<?xml version="1.0" encoding="utf-8"?>
<!-- Svg Vector Icons : http://www.onlinewebfonts.com/icon -->
<!DOCTYPE svg PUBLIC "-//W3C//DTD SVG 1.1//EN" "http://www.w3.org/Graphics/SVG/1.1/DTD/svg11.dtd">
<svg version="1.1" xmlns="http://www.w3.org/2000/svg" fill="#EF2B2F" xmlns:xlink="http://www.w3.org/1999/xlink" x="0px" y="0px" viewBox="0 0 1000 1000" enable-background="new 0 0 1000 1000" xml:space="preserve">
<metadata> Svg Vector Icons : http://www.onlinewebfonts.com/icon </metadata>
<g><path d="M357.6,653.4H116.4V186h724.2V314c40.4,18.7,76.5,45.2,106.4,77.4V83.8H10v668.5h371.5C368.9,721.4,360.6,688.1,357.6,653.4z"/><path d="M420,821.9v7.2l-175.7,0v58.6h237.5C458.4,868.6,437.6,846.4,420,821.9z"/><path d="M697.2,330.7c-161.7,0-292.8,131.1-292.8,292.7c0,161.7,131.1,292.7,292.8,292.7S990,785.1,990,623.4C990,461.8,858.9,330.7,697.2,330.7z M697.2,861.3c-131.4,0-237.9-106.5-237.9-237.9s106.5-237.9,237.9-237.9s237.9,106.5,237.9,237.9S828.6,861.3,697.2,861.3z"/><path d="M658.5,689.4h-61.8c3.6-4.2,10.7-12.1,21.5-23.8c40.3-42.7,60.5-75.7,60.5-99.1c-2.7-41-28.2-63.1-76.6-66.5c-49.3,5.9-76.2,30.1-80.6,72.8c0,15.1,8.5,22.6,25.5,22.6c9.8,0.8,17.5-6.7,22.8-22.6c6.3-19.2,16.6-28.9,30.9-28.9c14.3,1.7,22.4,10,24.2,25.1c0,10-4,20.1-12.1,30.1c-13.4,19.3-34.9,43.5-64.5,72.8c-7.2,7.5-14.3,15.1-21.5,22.6c-5.4,6.7-7.6,12.1-6.7,16.3c0,14.2,8.5,21.3,25.5,21.3h115.6c15.2,0,23.3-7.1,24.2-21.3C684.5,697.4,675.5,690.3,658.5,689.4z"/><path d="M868.2,639.2h-5.4v-99.1c-0.9-25.1-14.3-38.5-40.3-40.1c-17,0-28.7,6.3-34.9,18.8L710.9,648c-4.5,5-6.3,10-5.4,15.1c0.9,12.5,8.9,18.8,24.2,18.8h83.3v27.6c-0.9,15.1,7.2,22.6,24.2,22.6c17,0,25.5-7.5,25.5-22.6v-27.6h5.4c14.3-0.8,22.4-7.9,24.2-21.3C890.6,648,882.5,640.9,868.2,639.2z M813.1,639.2h-47.1l45.7-89.1h1.3V639.2z"/></g>
</svg>
