<?xml version="1.0" encoding="utf-8"?>
<!-- Svg Vector Icons : http://www.onlinewebfonts.com/icon -->
<!DOCTYPE svg PUBLIC "-//W3C//DTD SVG 1.1//EN" "http://www.w3.org/Graphics/SVG/1.1/DTD/svg11.dtd">
<svg version="1.1" xmlns="http://www.w3.org/2000/svg" xmlns:xlink="http://www.w3.org/1999/xlink" x="0px" y="0px" viewBox="0 0 1000 1000" enable-background="new 0 0 1000 1000" xml:space="preserve">
<metadata> Svg Vector Icons : http://www.onlinewebfonts.com/icon </metadata>
<g><g transform="translate(0.000000,511.000000) scale(0.100000,-0.100000)"><path d="M4745.5,5004.9c-670.3-79.1-1231.8-322.3-1724.1-747.4c-286.7-245.2-569.4-618.9-737.5-972.8c-77.1-160.2-94.9-185.9-138.4-185.9c-65.2,0-280.8-79.1-395.4-146.3c-118.6-71.2-306.5-259-377.6-377.6c-197.7-338.1-213.5-686.1-45.5-1032.1c185.8-389.5,589.2-638.6,1030.1-638.6h114.7l2,470.6c2,369.7,5.9,438.9,19.8,330.2C2622.1,686.8,3399.1-185.1,4407.5-442.2c81.1-21.8,209.6-43.5,284.7-51.4c162.1-13.8,138.4-35.6-65.2-53.4c-514.1-45.5-1071.6-253.1-1573.8-587.2c-298.6-199.7-715.7-616.9-915.4-915.4c-342.1-516.1-529.9-1022.2-593.2-1617.4c-11.9-106.7-21.7-401.4-21.7-658.4V-4790h3479.8h3479.8v464.6c0,257-9.9,551.6-21.7,658.4c-132.5,1214-848.2,2238.2-1953.5,2789.8c-342.1,172-777,298.6-1129,330.2c-203.6,17.8-227.4,39.6-65.2,53.4C5690.6-458,6141.4-274.1,6503.3-9.2c65.2,47.5,195.7,166.1,292.6,263l174,176h225.4c122.6,0,261,9.9,306.5,23.7c156.2,45.5,348,286.7,348,435c0,17.8,37.6,37.6,100.8,53.4c367.8,94.9,672.2,387.5,800.8,773.1c49.4,148.3,49.4,444.9,0,593.2c-89,266.9-284.7,520-496.3,642.6c-114.7,67.2-330.2,148.3-395.4,148.3c-41.5,0-63.3,29.7-156.2,217.5c-433,866-1247.6,1484.9-2176.9,1650.9C5350.6,4997,4880,5020.8,4745.5,5004.9z M5566.1,4645.1c510.1-110.7,929.3-334.1,1299-692c237.3-229.4,403.3-458.7,551.6-765.2l116.7-237.3l-2-385.6c-2-322.3-5.9-361.8-19.8-247.1c-98.9,775.1-583.3,1492.8-1281.2,1890.2c-1138.8,652.5-2570.3,306.5-3323.6-802.7c-227.4-336.1-377.6-747.4-421.1-1156.6c-4-37.6-9.9,100.8-9.9,308.4c-4,377.6-4,379.6,53.4,516c128.5,302.5,302.5,561.5,535.8,804.7c415.2,433,913.5,694,1516.5,792.9C4820.7,4710.3,5326.8,4696.5,5566.1,4645.1z M5496.9,4176.5c836.3-183.9,1492.8-846.2,1674.7-1690.5c49.4-233.3,49.4-715.7,0-949c-43.5-203.6-150.3-476.5-255.1-656.4l-77.1-134.4h-539.8h-539.8l-27.7,51.4c-45.5,87-207.6,217.5-298.5,243.2c-57.3,15.8-211.6,21.7-470.6,17.8c-429-5.9-468.6-15.8-599.1-148.3c-128.5-128.5-174-278.8-130.5-435c33.6-122.6,207.6-302.5,326.2-338.1c110.7-31.6,777-31.6,885.8,0c77.1,23.7,259,177.9,302.5,259c15.8,31.7,51.4,33.6,421.1,29.7l403.3-5.9l-152.2-122.6c-278.8-223.4-609-383.6-943.1-454.8c-233.3-49.4-715.7-49.4-949,0C3675.9,26.4,3017.5,684.8,2833.6,1537c-49.4,233.3-49.4,715.7,0,949c189.8,881.8,889.7,1554.1,1777.5,1710.3C4818.7,4231.9,5289.3,4222,5496.9,4176.5z M2155.4,2009.5v-773.1l-57.3,9.9c-326.2,65.3-575.4,397.4-575.4,763.2c0,334.1,185.8,618.9,480.4,737.5C2169.3,2814.2,2155.4,2879.5,2155.4,2009.5z M8059.3,2723.3c377.7-183.9,531.9-672.2,340.1-1083.5c-83-176-308.4-355.9-492.3-393.5l-57.4-9.9v775.1v777l63.3-13.8C7948.6,2766.8,8013.8,2745,8059.3,2723.3z M7533.4,1329.4c0-603,7.9-583.3-215.5-583.3h-134.4l73.2,144.3c136.4,259,257,674.2,257,875.9c0,37.6,4,67.2,9.9,67.2S7533.4,1606.2,7533.4,1329.4z M5437.6,706.6c25.7-25.7,39.5-65.2,39.5-118.6s-13.8-92.9-39.5-118.6c-37.6-37.6-65.2-39.5-435-39.5c-369.7,0-397.4,2-435,39.5c-25.7,25.7-39.5,65.2-39.5,118.6s13.8,92.9,39.5,118.6c37.6,37.6,65.2,39.5,435,39.5C5372.3,746.1,5400,744.1,5437.6,706.6z M5576-885.1c92.9-17.8,235.3-49.4,316.3-73.2c148.3-39.5,470.6-164.1,500.2-191.8c15.8-15.8-1059.8-2337-1324.7-2859l-61.3-118.6l-29.7,69.2c-15.8,37.6-328.2,696-696,1463.1c-365.8,767.1-670.3,1403.8-676.2,1417.6c-29.7,71.2,632.7,276.8,1061.7,330.2C4818.7-829.7,5413.8-853.4,5576-885.1z M4004.1-2739.7c346-725.6,624.8-1322.7,620.8-1326.7c-7.9-7.9-1615.4,907.5-1643,933.2c-9.9,11.9,148.3,733.5,369.7,1682.6c5.9,25.7,13.8,43.5,17.8,39.5C3373.4-1415,3658.1-2012.1,4004.1-2739.7z M6839.4-2271.1c108.7-466.6,191.8-854.1,183.9-862.1c-25.7-23.7-1611.4-925.3-1617.3-919.4c-3.9,4,146.3,330.2,334.2,727.6c187.8,395.4,466.6,988.6,616.9,1316.8c152.2,326.2,278.8,593.2,282.7,591.2C6641.7-1420.9,6732.6-1804.5,6839.4-2271.1z M2809.9-2419.4c-108.7-472.5-191.8-864-183.9-871.9c7.9-7.9,466.6-272.9,1022.2-589.2c553.6-316.3,1012.3-579.3,1016.3-585.2c4-4-630.7-7.9-1411.7-7.9H1835.1l7.9,438.9c11.9,484.4,45.5,707.8,156.2,1049.9c81.1,249.1,268.9,618.9,429,844.3c136.4,191.8,559.5,634.7,571.4,599.1C3003.7-1553.4,2918.6-1948.8,2809.9-2419.4z M7379.1-1893.4c369.7-421.1,616.9-925.3,729.6-1488.8c33.6-164.1,45.5-308.5,53.4-652.5l7.9-438.9H6752.4c-781,0-1415.7,4-1411.7,7.9c4,5.9,462.7,268.9,1016.3,585.2c555.6,316.3,1014.3,581.3,1022.2,589.2c7.9,7.9-75.1,397.4-181.9,864c-108.8,468.6-197.7,862.1-197.7,875.9C6999.5-1513.8,7219-1711.5,7379.1-1893.4z"/></g></g>
</svg>