<?xml version="1.0" encoding="utf-8"?>
<!-- Svg Vector Icons : http://www.onlinewebfonts.com/icon -->
<!DOCTYPE svg PUBLIC "-//W3C//DTD SVG 1.1//EN" "http://www.w3.org/Graphics/SVG/1.1/DTD/svg11.dtd">
<svg version="1.1" xmlns="http://www.w3.org/2000/svg" xmlns:xlink="http://www.w3.org/1999/xlink" fill="#EF2B2F"  x="0px" y="0px" viewBox="0 0 1000 1000" enable-background="new 0 0 1000 1000" xml:space="preserve">
<metadata> Svg Vector Icons : http://www.onlinewebfonts.com/icon </metadata>
<g><path d="M882.4,147.6c-11.5-10.6-26.6-16.5-42.2-16.5c-1.4,0-2.8,0.1-4.3,0.1c-0.9,0.1-10.8,0.7-26.3,0.7c-25.7,0-76-1.7-123.6-13.4c-61.5-15-132.4-84.5-153.1-98.2C522.6,13.4,510.6,10,498.6,10c-11.9,0-24.5,2.6-34.3,10.3c-17.5,13.8-76.8,80.6-149.4,98.3c-47.6,11.6-98.8,13.4-124.5,13.4c-15.5,0-25.5-0.6-26.4-0.7c-1.4-0.1-2.7-0.1-4.1-0.1c-15.6,0-30.8,5.9-42.3,16.6C105.1,159.3,98,175.5,98,192.5v153.4C98,913.1,471.8,986.2,487.7,989c3.6,0.6,7.3,1,10.9,1c3.7,0,7.3-0.3,10.9-1c15.9-2.8,392.5-75.9,392.5-643.1V192.5C902,175.5,894.9,159.2,882.4,147.6L882.4,147.6L882.4,147.6z M840.2,345.9c0,522.4-341.6,582.7-341.6,582.7s-338.8-60.3-338.8-582.7V192.5c0,0,11.7,0.8,30.6,0.8c32.4,0,86.9-2.4,139.2-15.1c85.6-20.8,169-106.8,169-106.8s87.2,86,172.7,106.8c52.3,12.8,105.9,15.1,138.4,15.1c18.9,0,30.6-0.8,30.6-0.8L840.2,345.9L840.2,345.9L840.2,345.9z"/><path d="M732.4,393.4c14.4-14.4,14.4-38.1,0-52.5l0,0c-14.4-14.4-38.1-14.4-52.5,0L440.4,580.4L320.1,460c-14.4-14.4-38.1-14.4-52.5,0c-14.4,14.4-14.4,38.1,0,52.5l146.6,146.6c14.4,14.4,38.1,14.4,52.5,0L732.4,393.4z"/></g>
</svg>