<?xml version="1.0" standalone="no"?>
<!DOCTYPE svg PUBLIC "-//W3C//DTD SVG 20010904//EN"
 "http://www.w3.org/TR/2001/REC-SVG-20010904/DTD/svg10.dtd">
<svg version="1.0" xmlns="http://www.w3.org/2000/svg"
 width="4092.000000pt" height="3532.000000pt" viewBox="0 0 4092.000000 3532.000000"
 preserveAspectRatio="xMidYMid meet">
<metadata>
Created by potrace 1.16, written by Peter Selinger 2001-2019
</metadata>
<g transform="translate(0.000000,3532.000000) scale(0.100000,-0.100000)"
fill="#EF2B2F" stroke="none">
<path d="M9725 35273 c-426 -28 -894 -140 -1260 -303 -401 -177 -767 -442
-1038 -748 -584 -663 -923 -1447 -998 -2310 -15 -181 -7 -685 15 -862 105
-839 413 -1676 934 -2535 232 -382 567 -847 875 -1215 l80 -95 -2954 -5 -2954
-5 -153 -28 c-481 -88 -899 -276 -1257 -564 -127 -103 -349 -330 -443 -456
-289 -384 -463 -820 -518 -1300 -13 -114 -14 -353 -12 -1727 3 -1471 5 -1603
21 -1700 93 -552 295 -999 630 -1401 443 -530 1049 -865 1727 -955 99 -13 244
-17 687 -21 l563 -5 3 -8272 c2 -7810 3 -8276 20 -8369 61 -344 135 -575 272
-849 127 -252 285 -475 484 -681 447 -461 1003 -740 1620 -812 189 -22 19004
-23 19108 0 348 74 606 316 705 661 19 67 23 103 23 234 0 131 -4 167 -23 234
-99 345 -357 587 -705 661 -59 13 -1346 15 -9878 15 l-9809 0 0 9070 0 9070
14970 0 14970 0 0 -9070 0 -9070 -1640 0 c-1808 0 -1704 3 -1874 -62 -155 -60
-333 -205 -423 -346 -55 -86 -101 -192 -125 -289 -30 -123 -30 -303 0 -426 85
-346 361 -612 707 -682 72 -14 217 -15 1400 -12 1198 2 1330 4 1425 20 580 96
1082 348 1499 752 472 458 762 1037 836 1674 13 110 15 1164 15 8337 l0 8212
543 5 c312 3 582 10 637 17 438 53 850 206 1214 451 528 355 937 908 1122
1517 44 147 90 373 104 522 8 81 10 581 8 1705 l-4 1590 -27 140 c-54 286
-133 522 -253 755 -366 705 -1039 1220 -1824 1394 -296 66 -25 60 -3142 66
l-2828 5 111 135 c61 74 175 221 253 325 1202 1598 1710 3184 1475 4610 -124
752 -500 1499 -1023 2033 -254 259 -500 439 -822 600 -410 205 -861 324 -1374
363 -196 15 -681 6 -885 -16 -1383 -147 -2919 -772 -4550 -1850 -942 -623
-1881 -1378 -2755 -2217 -982 -941 -1895 -2056 -2529 -3088 -46 -74 -90 -145
-98 -158 -14 -22 -17 -18 -115 140 -897 1459 -2280 2961 -3983 4327 -2149
1723 -4278 2725 -6075 2861 -123 9 -583 11 -705 3z m765 -1837 c997 -138 2094
-585 3335 -1359 1685 -1052 3461 -2670 4562 -4157 175 -237 392 -551 487 -707
6 -10 -796 -13 -3996 -13 l-4003 1 -185 172 c-1449 1350 -2310 2725 -2440
3897 -16 144 -14 430 5 577 51 396 214 774 468 1089 243 301 569 462 1037 513
127 14 593 5 730 -13z m20882 9 c457 -53 785 -214 1019 -501 250 -306 410
-689 459 -1098 16 -129 13 -440 -5 -586 -86 -698 -419 -1463 -986 -2270 -379
-540 -877 -1108 -1418 -1617 l-185 -173 -3978 0 c-2188 0 -3978 3 -3978 7 0
13 254 390 406 603 712 997 1605 1959 2623 2821 1666 1413 3418 2401 4821
2719 211 48 412 79 660 103 104 11 448 5 562 -8z m-10912 -10260 l0 -2265
-7715 0 -7715 0 0 -25 0 -25 -1217 2 -1218 3 -70 24 c-361 121 -607 430 -655
821 -14 118 -14 2805 1 2920 16 128 62 256 130 359 116 176 273 287 504 355
69 20 89 20 1528 23 l1457 3 0 35 0 35 7485 0 7485 0 0 -2265z m14970 2230 l0
-35 1443 -3 1442 -3 80 -22 c112 -32 268 -110 354 -177 131 -103 242 -270 288
-435 17 -61 18 -146 18 -1550 l0 -1485 -23 -90 c-86 -339 -347 -616 -674 -717
l-73 -23 -1197 -3 -1198 -2 0 25 0 25 -7260 0 -7260 0 0 2265 0 2265 7030 0
7030 0 0 -35z"/>
<path d="M18330 17654 c-14 -2 -59 -9 -100 -15 -383 -54 -853 -322 -1095 -624
-22 -28 -45 -55 -51 -62 -52 -55 -174 -302 -194 -393 -55 -252 -67 -380 -51
-553 12 -119 20 -169 51 -302 11 -49 54 -172 63 -182 4 -3 7 -12 7 -19 0 -13
46 -117 108 -244 20 -41 67 -126 104 -189 37 -63 68 -118 68 -122 0 -4 3 -9 8
-11 6 -2 62 -83 97 -139 31 -50 186 -256 253 -334 107 -127 166 -205 159 -211
-3 -3 -133 15 -289 40 -526 83 -775 106 -1178 106 -357 0 -586 -21 -860 -76
-453 -93 -858 -276 -1155 -524 -71 -59 -237 -231 -293 -305 -34 -44 -66 -85
-71 -91 -49 -59 -220 -380 -260 -487 -50 -136 -17 -171 239 -255 250 -82 529
-161 569 -162 32 0 55 29 103 130 34 72 110 203 128 220 3 3 18 23 35 45 44
59 174 185 247 239 34 25 69 51 76 57 24 20 236 117 312 142 254 86 540 112
1121 104 384 -5 406 -7 786 -71 286 -49 480 -93 466 -106 -12 -11 -398 -121
-1318 -375 -325 -90 -678 -189 -837 -236 -38 -11 -68 -24 -68 -29 0 -21 780
-246 1670 -480 151 -40 323 -85 382 -101 l108 -29 547 149 c890 243 1262 339
1560 406 l162 36 243 -104 c134 -58 320 -142 413 -187 151 -73 167 -84 146
-92 -29 -10 -537 -154 -801 -227 -102 -28 -309 -84 -460 -125 -516 -141 -609
-172 -553 -189 10 -2 137 -39 282 -81 146 -42 404 -114 575 -161 498 -134
1155 -311 1231 -330 l71 -18 194 53 c107 29 224 60 260 70 36 10 178 48 315
85 138 37 304 82 370 100 66 18 323 88 570 155 572 154 615 167 615 185 0 19
-109 53 -585 180 -403 108 -678 185 -813 228 l-74 24 39 6 c21 4 157 16 303
27 312 24 434 36 960 90 l395 41 512 -139 512 -139 213 57 c117 32 341 92 498
135 420 112 436 117 800 219 423 119 490 141 490 157 0 11 -130 51 -470 143
-151 42 -303 83 -337 93 l-61 18 126 54 c143 61 372 173 447 219 28 17 70 43
95 58 284 172 560 449 691 694 46 85 104 230 121 300 18 75 18 504 0 580 -23
99 -50 189 -73 248 -23 57 -30 72 -69 152 -38 79 -55 109 -101 185 -10 17 -26
44 -35 60 -56 100 -164 235 -188 235 -40 0 -385 -262 -666 -507 -14 -12 -36
-31 -49 -42 l-23 -20 79 -113 c176 -250 235 -437 186 -584 -22 -67 -105 -185
-167 -238 -28 -25 -64 -56 -81 -70 -16 -14 -33 -26 -37 -26 -4 0 -13 -6 -20
-13 -23 -23 -179 -113 -283 -164 -246 -121 -580 -237 -965 -336 -174 -45 -447
-107 -471 -107 -17 0 35 54 96 98 83 61 204 176 268 254 17 22 47 58 65 80 17
22 32 43 32 47 0 4 8 16 18 27 40 42 201 340 202 372 0 8 7 26 14 40 34 62 73
202 113 402 21 109 24 467 5 585 -31 189 -91 382 -153 490 -71 126 -92 160
-98 165 -3 3 -20 23 -36 46 -89 122 -245 268 -385 359 -309 201 -759 309
-1153 276 -357 -30 -621 -122 -922 -324 -33 -22 -62 -43 -65 -46 -3 -3 -34
-28 -70 -56 -95 -73 -112 -88 -245 -220 -148 -147 -281 -307 -408 -488 -54
-75 -97 -139 -97 -142 0 -3 -15 -29 -33 -58 -19 -28 -59 -96 -91 -149 -31 -53
-61 -100 -66 -103 -10 -6 -27 28 -85 170 -54 132 -191 414 -304 625 -22 41
-48 91 -57 110 -10 19 -33 59 -51 88 -18 29 -33 55 -33 58 0 3 -16 30 -35 60
-19 30 -35 56 -35 59 0 11 -163 253 -222 330 -152 200 -395 458 -533 567 -251
199 -683 407 -985 473 -57 13 -140 18 -340 20 -146 2 -276 2 -290 -1z m377
-944 c211 -34 485 -163 656 -308 59 -50 253 -246 303 -307 51 -61 194 -261
194 -271 0 -3 13 -24 29 -47 15 -23 39 -62 53 -87 14 -25 48 -84 76 -133 28
-48 92 -172 142 -275 51 -103 103 -209 116 -235 13 -27 24 -53 24 -57 0 -5 16
-43 35 -84 19 -42 35 -79 35 -84 0 -4 12 -36 26 -72 15 -36 30 -74 34 -85 5
-11 20 -54 35 -95 15 -41 33 -93 41 -114 37 -97 124 -369 124 -385 0 -16 -41
-30 -252 -90 -321 -90 -556 -151 -587 -151 -32 0 -111 45 -240 138 -95 68
-378 287 -391 301 -3 4 -30 26 -60 51 -30 25 -57 47 -60 50 -3 3 -39 34 -80
70 -204 177 -537 510 -619 620 -14 19 -31 40 -37 45 -41 37 -256 336 -309 430
-49 86 -117 219 -125 245 -5 14 -20 57 -34 95 -70 187 -72 358 -5 485 74 139
327 295 559 344 78 17 231 20 317 6z m4873 -980 c85 -14 249 -64 326 -101 147
-69 250 -248 285 -492 14 -96 5 -185 -31 -322 -22 -86 -26 -97 -56 -163 -13
-29 -24 -55 -24 -59 0 -3 -16 -28 -35 -54 -19 -27 -35 -51 -35 -54 0 -5 -48
-60 -76 -89 -126 -125 -316 -245 -629 -397 -382 -184 -514 -241 -576 -247 -25
-2 -81 3 -125 12 -74 15 -741 194 -756 202 -6 4 31 101 83 212 16 34 29 65 29
68 0 6 63 143 86 185 8 15 23 46 35 70 12 24 26 53 32 64 56 107 81 152 91
165 6 8 22 35 36 60 13 25 34 59 47 76 13 17 23 34 23 38 0 4 28 46 62 94 301
425 590 660 893 727 73 16 227 18 315 5z"/>
<path d="M15477 11803 c-4 -124 -7 -1592 -7 -3262 l0 -3036 623 -169 c822
-224 1502 -406 1517 -406 15 0 21 1960 14 4185 l-7 2341 -601 164 c-331 90
-637 173 -681 185 -357 99 -828 225 -839 225 -10 0 -14 -49 -19 -227z"/>
<path d="M26600 12011 c-36 -10 -168 -47 -295 -81 -126 -34 -358 -97 -515
-140 -157 -43 -400 -110 -540 -149 -140 -39 -343 -94 -450 -124 l-195 -54 -3
-3267 -2 -3266 27 6 c23 6 1579 430 1973 538 l115 31 8 1420 c9 1708 3 5016
-10 5065 -11 43 -25 45 -113 21z"/>
<path d="M23530 11175 c-1097 -300 -1783 -491 -1961 -546 l-96 -29 -7 -717
c-4 -394 -4 -1861 0 -3260 7 -2414 8 -2543 25 -2543 9 0 140 34 291 76 305 84
928 255 1598 438 l445 121 3 1545 c3 1511 -15 4760 -27 4911 l-6 76 -265 -72z"/>
<path d="M18417 11128 c-6 -148 -5 -6317 2 -6378 l6 -55 630 -172 c347 -94
664 -181 705 -192 41 -11 149 -40 240 -64 552 -149 663 -178 668 -172 10 10
20 2078 21 4441 l1 2081 -342 93 c-189 51 -473 128 -633 172 -529 144 -1219
327 -1257 333 l-37 7 -4 -94z"/>
</g>
</svg>
