<?xml version="1.0" standalone="no"?>
<!DOCTYPE svg PUBLIC "-//W3C//DTD SVG 20010904//EN"
 "http://www.w3.org/TR/2001/REC-SVG-20010904/DTD/svg10.dtd">
<svg version="1.0" xmlns="http://www.w3.org/2000/svg"
 width="4092.000000pt" height="3532.000000pt" viewBox="0 0 4092.000000 3532.000000"
 preserveAspectRatio="xMidYMid meet">
<metadata>
Created by potrace 1.16, written by Peter Selinger 2001-2019
</metadata>
<g transform="translate(0.000000,3532.000000) scale(0.100000,-0.100000)"
fill="#EF2B2F" stroke="none">
<path d="M9725 35273 c-426 -28 -894 -140 -1260 -303 -401 -177 -767 -442
-1038 -748 -584 -663 -923 -1447 -998 -2310 -15 -181 -7 -685 15 -862 105
-839 413 -1676 934 -2535 232 -382 567 -847 875 -1215 l80 -95 -2954 -5 -2954
-5 -153 -28 c-481 -88 -899 -276 -1257 -564 -127 -103 -349 -330 -443 -456
-289 -384 -463 -820 -518 -1300 -13 -114 -14 -353 -12 -1727 3 -1471 5 -1603
21 -1700 93 -552 295 -999 630 -1401 443 -530 1049 -865 1727 -955 99 -13 244
-17 687 -21 l563 -5 3 -8272 c2 -7810 3 -8276 20 -8369 61 -344 135 -575 272
-849 127 -252 285 -475 484 -681 447 -461 1003 -740 1620 -812 189 -22 19004
-23 19108 0 348 74 606 316 705 661 19 67 23 103 23 234 0 131 -4 167 -23 234
-99 345 -357 587 -705 661 -59 13 -1346 15 -9878 15 l-9809 0 0 9070 0 9070
14970 0 14970 0 0 -9070 0 -9070 -1640 0 c-1808 0 -1704 3 -1874 -62 -155 -60
-333 -205 -423 -346 -55 -86 -101 -192 -125 -289 -30 -123 -30 -303 0 -426 85
-346 361 -612 707 -682 72 -14 217 -15 1400 -12 1198 2 1330 4 1425 20 580 96
1082 348 1499 752 472 458 762 1037 836 1674 13 110 15 1164 15 8337 l0 8212
543 5 c312 3 582 10 637 17 438 53 850 206 1214 451 528 355 937 908 1122
1517 44 147 90 373 104 522 8 81 10 581 8 1705 l-4 1590 -27 140 c-54 286
-133 522 -253 755 -366 705 -1039 1220 -1824 1394 -296 66 -25 60 -3142 66
l-2828 5 111 135 c61 74 175 221 253 325 1202 1598 1710 3184 1475 4610 -124
752 -500 1499 -1023 2033 -254 259 -500 439 -822 600 -410 205 -861 324 -1374
363 -196 15 -681 6 -885 -16 -1383 -147 -2919 -772 -4550 -1850 -942 -623
-1881 -1378 -2755 -2217 -982 -941 -1895 -2056 -2529 -3088 -46 -74 -90 -145
-98 -158 -14 -22 -17 -18 -115 140 -897 1459 -2280 2961 -3983 4327 -2149
1723 -4278 2725 -6075 2861 -123 9 -583 11 -705 3z m765 -1837 c997 -138 2094
-585 3335 -1359 1685 -1052 3461 -2670 4562 -4157 175 -237 392 -551 487 -707
6 -10 -796 -13 -3996 -13 l-4003 1 -185 172 c-1449 1350 -2310 2725 -2440
3897 -16 144 -14 430 5 577 51 396 214 774 468 1089 243 301 569 462 1037 513
127 14 593 5 730 -13z m20882 9 c457 -53 785 -214 1019 -501 250 -306 410
-689 459 -1098 16 -129 13 -440 -5 -586 -86 -698 -419 -1463 -986 -2270 -379
-540 -877 -1108 -1418 -1617 l-185 -173 -3978 0 c-2188 0 -3978 3 -3978 7 0
13 254 390 406 603 712 997 1605 1959 2623 2821 1666 1413 3418 2401 4821
2719 211 48 412 79 660 103 104 11 448 5 562 -8z m-10912 -10260 l0 -2265
-7715 0 -7715 0 0 -25 0 -25 -1217 2 -1218 3 -70 24 c-361 121 -607 430 -655
821 -14 118 -14 2805 1 2920 16 128 62 256 130 359 116 176 273 287 504 355
69 20 89 20 1528 23 l1457 3 0 35 0 35 7485 0 7485 0 0 -2265z m14970 2230 l0
-35 1443 -3 1442 -3 80 -22 c112 -32 268 -110 354 -177 131 -103 242 -270 288
-435 17 -61 18 -146 18 -1550 l0 -1485 -23 -90 c-86 -339 -347 -616 -674 -717
l-73 -23 -1197 -3 -1198 -2 0 25 0 25 -7260 0 -7260 0 0 2265 0 2265 7030 0
7030 0 0 -35z"/>
<path d="M24375 17200 c-22 -4 -76 -13 -120 -20 -44 -6 -86 -15 -95 -20 -9 -5
-54 -18 -101 -29 -47 -12 -153 -44 -235 -72 -82 -28 -192 -65 -244 -81 -52
-17 -201 -66 -330 -108 -394 -129 -712 -233 -995 -325 -148 -49 -346 -114
-440 -146 -93 -32 -204 -68 -245 -80 -41 -12 -151 -48 -245 -80 -225 -77 -323
-109 -338 -109 -7 0 -114 -36 -240 -80 -125 -44 -235 -80 -245 -80 -10 0 -120
-36 -244 -80 -124 -44 -235 -80 -245 -80 -11 0 -127 -38 -259 -85 -131 -47
-247 -85 -256 -85 -10 0 -121 -36 -247 -80 -126 -44 -235 -80 -242 -80 -8 0
-106 -32 -219 -71 -113 -39 -234 -79 -270 -89 -73 -20 -312 -100 -410 -137
-36 -13 -83 -28 -105 -33 -22 -4 -134 -41 -250 -80 -115 -40 -226 -76 -245
-80 -19 -5 -141 -44 -270 -87 -129 -44 -350 -117 -490 -163 -140 -45 -345
-113 -455 -151 -110 -37 -234 -77 -275 -88 -41 -11 -164 -51 -272 -90 -109
-38 -214 -73 -235 -77 -21 -4 -139 -42 -261 -85 -123 -44 -231 -79 -240 -79
-10 0 -120 -35 -247 -79 -126 -43 -257 -86 -290 -96 -33 -9 -150 -47 -260 -85
-110 -37 -267 -89 -350 -115 -136 -43 -230 -79 -277 -105 -10 -6 -24 -10 -31
-10 -19 0 -132 -59 -216 -114 -41 -26 -81 -50 -90 -54 -59 -22 -368 -299 -435
-391 -19 -25 -48 -59 -65 -75 -17 -17 -31 -36 -31 -43 0 -7 -4 -13 -10 -13 -5
0 -10 -5 -10 -10 0 -6 -24 -45 -53 -88 -60 -87 -121 -194 -132 -232 -4 -14
-21 -54 -37 -90 -43 -93 -45 -98 -68 -165 -35 -100 -57 -195 -70 -302 -7 -57
-17 -103 -21 -103 -5 0 -8 -119 -8 -265 0 -146 3 -265 8 -265 9 0 37 -146 32
-168 -4 -21 38 -156 119 -386 23 -65 43 -131 45 -147 2 -16 34 -113 71 -216
75 -211 84 -239 88 -269 3 -24 111 -342 131 -389 13 -30 36 -107 40 -135 3
-19 48 -153 113 -337 28 -79 49 -143 47 -143 -4 0 40 -137 108 -335 30 -88 64
-191 75 -230 11 -38 47 -149 80 -245 33 -96 72 -218 87 -270 16 -52 32 -102
36 -110 12 -23 109 -310 104 -310 -2 0 22 -73 52 -162 93 -271 113 -332 113
-350 0 -10 5 -18 11 -18 5 0 8 -4 5 -9 -5 -7 67 -235 94 -296 17 -40 50 -149
50 -167 0 -10 5 -18 11 -18 5 0 8 -4 5 -9 -4 -7 65 -220 103 -314 6 -15 18
-57 28 -92 9 -36 20 -65 24 -65 4 0 5 -9 2 -20 -3 -12 0 -20 6 -20 7 0 10 -4
7 -9 -3 -4 24 -91 59 -192 36 -100 65 -186 65 -190 0 -4 5 -20 12 -36 6 -15
10 -36 9 -45 -1 -10 3 -18 9 -18 6 0 9 -4 6 -9 -6 -8 114 -359 134 -393 5 -10
10 -27 10 -38 0 -11 5 -20 11 -20 5 0 8 -4 5 -8 -2 -4 6 -29 20 -56 13 -26 24
-54 24 -62 0 -8 4 -14 8 -14 5 0 15 -12 23 -27 28 -55 83 -148 90 -153 4 -3
17 -24 29 -48 12 -23 44 -66 71 -95 26 -29 48 -55 49 -59 2 -21 212 -229 276
-274 23 -16 66 -50 95 -75 30 -26 71 -56 92 -68 20 -12 54 -31 75 -43 20 -12
66 -37 102 -56 36 -19 74 -40 86 -47 11 -7 42 -21 70 -31 27 -9 92 -33 144
-51 98 -36 280 -85 360 -99 25 -4 157 -9 294 -11 255 -4 399 8 506 41 386 123
797 256 1035 337 94 32 204 67 245 79 41 13 172 56 290 96 118 41 241 80 272
88 31 8 154 49 273 90 118 42 223 76 233 76 10 0 113 34 230 75 117 41 234 80
260 86 26 5 149 46 273 89 125 44 234 80 242 80 9 0 120 36 246 80 127 44 236
80 243 80 7 0 112 34 233 76 121 42 238 81 260 87 22 6 132 42 245 80 113 38
223 74 245 80 22 6 144 45 270 87 127 42 248 81 270 87 22 6 132 43 245 82
113 39 223 75 245 80 37 8 202 63 701 232 111 38 235 77 276 88 40 11 170 54
287 95 118 42 222 76 232 76 10 0 119 35 241 78 123 44 240 82 262 86 21 4
133 40 250 80 116 41 238 81 271 90 33 10 150 48 260 85 110 37 315 105 455
151 140 46 368 120 505 165 290 95 715 234 828 270 100 32 145 51 235 98 40
20 79 37 86 37 11 0 48 23 188 115 69 46 99 67 138 99 74 61 250 228 250 236
0 5 12 21 28 37 52 54 95 109 149 193 31 47 70 108 88 135 44 68 76 131 68
139 -4 3 0 6 7 6 7 0 11 3 7 6 -3 3 5 26 19 51 13 25 24 51 24 56 0 6 8 29 19
51 40 88 95 271 86 286 -3 6 -2 10 2 10 5 0 14 48 21 107 7 59 17 110 22 113
15 9 11 470 -3 470 -7 0 -5 5 3 10 11 7 12 12 4 18 -12 8 -29 83 -38 172 -3
30 -28 120 -56 200 -80 230 -104 304 -101 318 1 6 -3 12 -9 12 -6 0 -9 4 -6 9
3 5 -17 73 -44 152 -79 225 -104 303 -101 317 1 6 -3 12 -8 12 -6 0 -8 7 -5
15 4 8 1 15 -6 15 -6 0 -9 4 -6 9 3 5 -9 51 -28 102 -69 192 -119 345 -118
362 0 9 -4 17 -9 17 -6 0 -8 4 -4 9 3 5 -4 33 -15 63 -65 174 -132 376 -131
396 0 12 -4 22 -10 22 -5 0 -8 4 -5 8 3 5 -31 112 -75 238 -45 126 -82 240
-83 254 -1 14 -38 124 -81 245 -43 121 -77 230 -77 243 1 12 -2 22 -6 22 -4 0
-8 8 -9 19 -1 10 -34 110 -73 221 -39 111 -72 211 -73 221 -1 11 -5 19 -10 19
-4 0 -6 4 -2 9 3 5 -31 114 -76 243 -45 128 -83 244 -84 258 -3 21 -109 334
-144 424 -7 16 -13 41 -15 55 -3 21 -91 287 -149 446 -8 22 -12 46 -10 53 3 6
0 12 -6 12 -6 0 -8 7 -5 15 4 8 2 21 -4 28 -5 6 -19 41 -30 77 -12 36 -44 130
-72 210 -27 80 -52 156 -54 170 -2 14 -42 136 -89 271 -76 223 -149 398 -180
432 -12 12 -26 37 -70 121 -11 21 -33 52 -49 69 -15 17 -28 35 -28 39 0 3 -6
13 -13 20 -7 7 -46 53 -87 102 -41 49 -117 127 -168 173 -96 85 -247 203 -261
203 -4 0 -25 15 -47 33 -21 18 -66 44 -99 57 -33 13 -67 29 -75 35 -14 12
-110 59 -120 60 -3 0 -31 13 -62 28 -32 15 -91 35 -130 44 -40 8 -77 19 -82
24 -6 5 -23 9 -39 9 -15 0 -36 4 -46 9 -10 6 -73 19 -140 30 -100 17 -163 21
-344 20 -122 -1 -240 -5 -262 -9z m390 -1014 c33 -3 74 -9 90 -15 17 -5 44
-12 60 -15 17 -2 53 -12 80 -21 28 -10 69 -24 91 -32 23 -8 52 -23 65 -33 12
-11 26 -20 30 -20 8 0 79 -45 149 -96 40 -29 150 -136 150 -146 0 -4 12 -20
26 -35 14 -15 32 -35 40 -44 8 -9 14 -21 14 -27 0 -7 3 -12 8 -12 9 0 43 -67
73 -145 13 -33 27 -65 31 -71 17 -24 79 -217 71 -224 -10 -10 -279 -100 -297
-100 -7 0 -108 -33 -223 -74 -116 -41 -228 -78 -249 -82 -22 -4 -146 -45 -277
-91 -130 -45 -245 -83 -255 -83 -10 0 -108 -32 -217 -70 -109 -39 -237 -82
-284 -94 -48 -13 -174 -54 -281 -90 -559 -189 -678 -229 -710 -236 -19 -4
-129 -40 -245 -80 -115 -39 -226 -75 -245 -80 -19 -4 -135 -42 -258 -84 -123
-42 -229 -76 -236 -76 -7 0 -64 -18 -127 -41 -63 -22 -177 -61 -254 -85 -208
-67 -215 -69 -420 -138 -104 -35 -208 -68 -230 -74 -22 -5 -138 -44 -258 -86
-120 -42 -225 -76 -233 -76 -8 0 -110 -34 -227 -75 -117 -41 -233 -79 -259
-84 -25 -6 -138 -43 -250 -82 -111 -40 -228 -78 -258 -85 -30 -7 -144 -44
-254 -83 -109 -39 -226 -77 -260 -86 -33 -8 -151 -46 -261 -84 -110 -38 -234
-78 -275 -91 -41 -12 -151 -47 -245 -79 -93 -32 -291 -97 -440 -146 -148 -48
-376 -123 -505 -165 -129 -42 -356 -117 -505 -165 -148 -49 -340 -112 -425
-141 -85 -28 -195 -64 -245 -79 -49 -15 -180 -58 -290 -96 -110 -38 -228 -76
-261 -84 -34 -9 -151 -47 -260 -86 -110 -39 -224 -76 -254 -83 -30 -7 -153
-48 -273 -90 -119 -42 -225 -76 -234 -76 -10 0 -121 -35 -248 -78 -565 -193
-722 -245 -743 -246 -21 -1 -27 9 -54 84 -40 116 -68 218 -68 252 0 16 -5 28
-12 28 -9 0 -8 4 2 11 10 7 11 12 4 15 -7 3 -10 13 -8 22 1 9 5 89 8 177 4
137 9 172 31 245 25 80 111 261 128 268 4 2 7 8 7 14 0 20 109 153 172 209 99
89 119 104 183 139 145 79 151 82 460 181 55 17 170 55 255 84 85 28 270 89
410 135 140 45 361 117 490 160 129 42 357 116 505 165 149 48 353 116 455
151 102 34 212 70 245 79 33 9 157 50 275 91 118 40 244 81 279 90 35 8 157
49 273 90 115 41 218 74 228 74 10 0 113 33 228 74 116 41 238 82 273 90 35 9
161 50 279 90 118 41 242 82 275 91 33 9 143 45 245 80 102 34 300 100 440
145 140 46 368 120 505 166 138 45 363 118 500 163 138 45 311 102 385 127 74
25 185 61 245 80 61 19 130 40 155 48 25 8 137 46 249 85 113 39 211 71 219
71 8 0 117 36 243 80 126 44 237 80 246 80 9 0 125 38 258 85 132 47 249 85
259 85 9 0 120 36 245 80 125 44 235 80 244 80 9 0 119 36 245 80 126 44 235
80 243 80 8 0 106 32 219 71 113 39 228 78 255 86 28 8 72 22 99 31 28 8 66
19 85 23 20 4 47 10 61 14 14 3 57 9 95 12 39 3 71 6 73 8 3 2 33 1 157 -9z
m1324 -1958 c7 -24 12 -47 13 -53 0 -10 44 -140 118 -350 22 -60 41 -123 44
-140 3 -16 29 -97 57 -178 28 -82 49 -150 47 -151 -8 -7 -156 -56 -185 -61
-18 -4 -33 -11 -33 -16 0 -5 -3 -8 -7 -8 -5 1 -11 0 -15 -1 -5 -1 -12 -4 -18
-5 -5 -1 -11 -3 -12 -4 -2 -2 -14 -4 -27 -7 -14 -2 -29 -8 -35 -13 -16 -12
-133 -51 -154 -51 -9 0 -62 -16 -117 -36 -55 -20 -107 -37 -115 -39 -8 -2 -16
-4 -17 -4 -2 -1 -6 -1 -10 -2 -5 0 -14 -5 -20 -11 -7 -6 -13 -8 -13 -5 0 8
-72 -17 -127 -44 -23 -11 -59 -23 -80 -26 -21 -3 -89 -23 -152 -45 -63 -22
-122 -41 -132 -43 -45 -9 -129 -40 -129 -47 0 -5 -4 -7 -8 -4 -5 3 -21 -2 -36
-10 -16 -7 -37 -14 -47 -14 -10 0 -87 -24 -171 -53 -84 -30 -170 -57 -190 -61
-21 -4 -38 -10 -38 -14 0 -4 -8 -8 -17 -9 -10 -1 -119 -36 -243 -78 -124 -42
-234 -78 -245 -80 -12 -3 -48 -14 -80 -25 -33 -11 -60 -20 -60 -20 0 1 -7 -1
-15 -4 -138 -51 -412 -139 -470 -151 -8 -2 -16 -4 -17 -5 -2 -2 -7 -4 -13 -5
-5 -1 -11 -3 -12 -4 -2 -2 -14 -4 -27 -7 -14 -2 -29 -8 -35 -13 -15 -12 -365
-129 -401 -135 -16 -2 -30 -5 -30 -6 0 -1 -8 -3 -17 -5 -30 -6 -93 -28 -98
-34 -9 -12 -334 -117 -390 -126 -36 -5 -100 -30 -100 -38 0 -6 -3 -7 -7 -4 -3
4 -12 2 -20 -4 -7 -6 -13 -8 -13 -4 0 4 -6 3 -12 -2 -20 -16 -323 -111 -405
-128 -18 -4 -33 -11 -33 -16 0 -5 -3 -8 -7 -8 -5 1 -11 0 -15 -1 -5 -1 -12 -4
-18 -5 -5 -1 -11 -3 -12 -4 -2 -2 -14 -5 -28 -7 -14 -3 -41 -13 -60 -23 -19
-10 -78 -30 -130 -46 -52 -15 -124 -37 -160 -48 -36 -12 -68 -22 -72 -23 -5
-1 -10 -3 -13 -4 -3 -1 -9 -4 -15 -5 -5 -1 -12 -4 -15 -5 -3 -1 -8 -3 -12 -4
-42 -8 -103 -30 -103 -37 0 -5 -3 -8 -7 -7 -5 1 -20 -4 -35 -10 -15 -6 -71
-23 -124 -37 -53 -14 -112 -32 -132 -41 -21 -8 -71 -24 -112 -35 -41 -11 -78
-26 -82 -32 -4 -7 -8 -8 -8 -4 0 5 -6 5 -12 0 -7 -4 -19 -8 -26 -9 -8 -2 -29
-10 -47 -18 -18 -9 -55 -20 -82 -26 -26 -5 -99 -27 -161 -49 -62 -23 -122 -41
-132 -41 -11 0 -20 -4 -20 -10 0 -5 -3 -9 -7 -9 -5 1 -10 0 -13 -1 -3 -1 -13
-3 -22 -5 -28 -5 -122 -37 -133 -45 -5 -4 -26 -10 -45 -14 -19 -3 -93 -27
-164 -52 -70 -25 -137 -47 -149 -50 -22 -4 -191 -59 -412 -134 -211 -71 -272
-90 -292 -90 -11 0 -23 -4 -29 -9 -5 -5 -92 -36 -194 -70 -217 -72 -233 -77
-282 -86 -21 -3 -38 -10 -38 -15 0 -6 -3 -9 -7 -8 -5 0 -15 -2 -23 -5 -70 -30
-356 -121 -400 -128 -30 -4 -56 -12 -58 -18 -2 -5 -10 -7 -18 -4 -8 3 -14 0
-14 -6 0 -6 -3 -10 -7 -10 -5 1 -10 0 -13 -1 -3 -1 -14 -3 -25 -5 -10 -2 -28
-9 -40 -14 -62 -32 -347 -122 -387 -122 -10 0 -18 -4 -18 -10 0 -5 -3 -8 -7
-8 -5 1 -10 0 -13 -1 -3 -1 -13 -3 -22 -5 -31 -6 -93 -28 -113 -40 -11 -7 -74
-29 -140 -49 -66 -20 -145 -45 -175 -54 -30 -9 -57 -17 -60 -17 -25 -1 -100
-30 -100 -38 0 -6 -3 -7 -7 -4 -3 4 -12 2 -20 -4 -7 -6 -13 -8 -13 -4 0 4 -6
3 -12 -2 -7 -6 -60 -25 -118 -43 -58 -17 -139 -43 -180 -55 -41 -13 -90 -26
-107 -30 -18 -4 -33 -11 -33 -16 0 -5 -3 -8 -7 -8 -5 1 -11 0 -15 -1 -5 -1
-12 -4 -18 -5 -5 -1 -11 -3 -12 -4 -2 -2 -13 -4 -26 -7 -13 -2 -47 -15 -75
-28 -29 -13 -77 -29 -107 -36 -30 -7 -100 -29 -155 -48 -55 -18 -107 -35 -115
-37 -8 -2 -15 -4 -15 -5 0 -1 -8 -3 -17 -5 -35 -7 -123 -38 -128 -46 -3 -4
-28 -13 -55 -20 -28 -6 -108 -30 -180 -54 -71 -23 -158 -50 -192 -60 -35 -10
-63 -22 -63 -27 0 -5 -3 -7 -8 -4 -4 2 -25 -4 -47 -14 -22 -11 -49 -19 -60
-20 -11 0 -83 -22 -161 -49 -77 -26 -157 -51 -177 -55 -20 -4 -37 -10 -37 -15
0 -4 -6 -8 -13 -8 -10 0 -345 -107 -398 -128 -13 -5 -24 14 -53 98 -21 57 -39
114 -41 128 -4 30 -37 130 -104 319 -28 79 -54 157 -56 172 -3 15 -18 66 -34
112 l-28 84 217 76 c119 42 223 76 230 76 7 0 105 32 219 71 113 39 224 76
246 82 22 6 139 44 260 85 121 41 243 80 270 87 28 7 145 45 260 85 116 40
226 76 245 80 19 5 134 41 255 82 121 41 342 114 490 163 149 48 360 119 470
156 110 37 234 77 275 88 41 11 164 52 274 90 109 39 207 71 217 71 10 0 121
36 246 80 125 45 248 85 273 91 25 5 142 43 260 83 118 41 242 81 275 91 33 9
143 45 245 79 102 35 307 103 455 151 558 182 747 244 1000 327 143 47 375
123 515 168 140 46 338 112 440 146 102 35 212 70 245 80 83 23 140 42 360
118 104 36 196 66 205 66 9 0 118 36 242 80 124 44 234 80 245 80 10 0 120 35
243 78 124 43 248 84 275 91 28 7 145 46 261 87 115 41 217 74 225 74 9 0 107
32 220 71 112 39 222 76 244 82 22 5 132 41 245 80 113 38 228 76 255 84 106
32 363 117 425 140 36 13 83 28 105 33 22 4 144 43 270 85 485 164 580 195
591 195 6 0 17 -19 23 -42z m640 -1952 c17 -51 31 -103 31 -115 0 -11 4 -21 8
-21 4 0 8 -8 9 -17 0 -10 33 -110 73 -223 39 -113 72 -213 72 -222 -1 -10 4
-18 9 -18 6 0 7 -5 4 -11 -4 -6 0 -29 8 -52 65 -175 140 -395 139 -409 0 -10
2 -18 6 -18 4 0 8 -11 8 -25 1 -14 11 -49 22 -78 50 -129 135 -384 134 -399 0
-10 2 -18 6 -18 4 0 8 -11 8 -25 1 -14 11 -49 22 -78 46 -117 125 -353 124
-369 0 -10 4 -18 9 -18 6 0 8 -4 5 -8 -3 -5 15 -67 40 -138 25 -71 54 -158 65
-194 10 -36 25 -83 32 -105 8 -27 12 -109 11 -245 -1 -185 -3 -212 -24 -280
-25 -80 -106 -261 -121 -271 -5 -3 -11 -15 -13 -26 -5 -23 -49 -88 -90 -131
-75 -80 -162 -162 -173 -162 -7 0 -20 -8 -30 -18 -41 -42 -224 -142 -260 -142
-13 0 -122 -34 -241 -76 -119 -42 -242 -83 -272 -90 -30 -7 -152 -47 -270 -88
-118 -42 -221 -76 -230 -76 -8 0 -101 -30 -205 -66 -105 -36 -212 -73 -240
-81 -156 -48 -226 -71 -380 -122 -93 -32 -285 -95 -425 -141 -140 -45 -361
-117 -490 -160 -129 -42 -356 -116 -505 -165 -148 -48 -346 -114 -440 -146
-93 -31 -204 -67 -245 -79 -41 -12 -165 -53 -275 -91 -110 -38 -229 -76 -264
-85 -35 -8 -157 -49 -271 -89 -114 -41 -225 -77 -246 -81 -22 -4 -133 -40
-249 -81 -115 -41 -232 -79 -258 -85 -27 -5 -137 -41 -245 -79 -107 -39 -229
-79 -270 -90 -41 -11 -165 -50 -276 -88 -110 -38 -316 -106 -456 -152 -140
-45 -361 -118 -490 -162 -129 -43 -251 -83 -270 -87 -19 -4 -135 -42 -258 -84
-122 -42 -228 -76 -236 -76 -7 0 -69 -20 -137 -45 -109 -39 -196 -67 -394
-128 -27 -8 -142 -47 -255 -86 -113 -39 -211 -71 -219 -71 -7 0 -116 -36 -242
-80 -126 -44 -237 -80 -247 -80 -9 0 -118 -36 -242 -80 -124 -44 -241 -83
-260 -86 -19 -3 -98 -28 -175 -55 -131 -47 -185 -63 -245 -75 -32 -7 -263 -7
-317 0 -24 3 -62 10 -85 17 -24 6 -54 13 -68 16 -13 2 -29 8 -35 12 -5 4 -26
14 -45 21 -19 7 -59 24 -88 37 -29 12 -55 23 -59 23 -15 0 -123 78 -168 122
-27 26 -53 48 -57 48 -12 0 -56 48 -50 54 3 3 1 6 -5 6 -6 0 -22 18 -37 41
-15 22 -36 48 -47 57 -26 22 -73 100 -74 125 -1 10 -6 22 -11 25 -12 9 -31 51
-55 122 -10 30 -35 102 -55 160 -20 58 -36 113 -36 123 0 9 -4 17 -9 17 -6 0
-8 4 -5 9 4 5 1 22 -5 38 -33 84 -157 452 -153 456 2 2 -12 48 -32 103 -59
162 -126 365 -128 388 -2 12 -35 111 -74 221 -75 213 -88 253 -84 273 2 6 -1
12 -5 12 -5 0 -9 8 -10 18 -1 11 -35 115 -77 233 -41 118 -78 228 -81 246 -3
18 -25 89 -50 160 -29 84 -40 130 -33 134 6 4 56 21 112 38 55 17 175 56 266
87 91 31 210 70 265 86 55 17 203 66 328 109 125 44 236 79 246 79 10 0 115
34 232 76 118 41 236 80 262 86 27 5 137 41 245 79 107 39 229 79 270 90 41
11 165 50 276 88 110 37 316 106 456 151 140 46 361 119 490 163 129 44 251
83 270 87 19 4 135 42 258 84 122 42 228 76 236 76 7 0 56 15 107 34 120 43
382 129 434 143 22 6 132 43 245 82 113 39 211 71 219 71 7 0 116 36 242 80
126 44 237 80 246 80 9 0 119 36 243 80 124 44 245 84 270 89 25 4 142 43 260
85 118 42 222 76 232 76 10 0 120 35 245 79 126 43 255 86 288 95 33 9 150 48
260 85 110 38 234 78 275 91 41 12 152 48 245 79 94 32 292 97 440 146 149 48
376 123 505 165 129 42 350 114 490 160 140 46 338 111 440 146 102 34 219 72
260 84 41 12 165 53 275 91 110 38 229 76 264 85 35 8 157 49 273 90 115 41
218 74 228 74 10 0 125 38 256 84 132 46 255 86 275 90 21 4 120 36 220 72
182 64 298 101 331 103 12 1 24 -23 47 -93z"/>
<path d="M26025 10073 c-59 -7 -162 -36 -345 -97 -102 -35 -297 -100 -435
-145 -532 -173 -848 -281 -875 -298 -16 -10 -58 -47 -95 -83 -89 -85 -128
-162 -144 -287 -7 -51 -10 -96 -8 -100 3 -5 9 -38 12 -73 6 -59 39 -151 57
-158 4 -2 8 -10 8 -17 0 -7 33 -45 73 -85 118 -117 240 -160 412 -144 80 8 90
9 100 14 3 1 8 3 13 5 4 1 14 5 22 8 37 16 369 126 400 133 47 10 49 11 55 14
3 1 10 4 15 5 6 1 11 3 13 4 1 2 13 4 26 7 14 2 29 8 35 13 15 12 334 119 371
125 17 2 31 5 33 6 1 2 7 4 12 5 6 1 12 4 15 5 3 1 8 3 13 4 41 8 102 30 102
37 0 5 3 8 8 7 4 0 14 2 22 5 8 4 92 32 185 63 186 61 235 88 305 167 93 105
129 188 137 319 4 66 2 103 -11 149 -56 199 -232 359 -421 385 -68 9 -79 10
-110 7z"/>
<path d="M22210 8823 c-14 -3 -59 -14 -100 -25 -41 -11 -98 -26 -125 -33 -28
-8 -98 -30 -155 -50 -58 -20 -157 -54 -220 -74 -63 -21 -218 -73 -345 -116
-126 -42 -246 -80 -265 -85 -19 -4 -129 -40 -245 -80 -115 -39 -226 -76 -245
-80 -19 -4 -141 -43 -270 -87 -129 -44 -253 -84 -275 -90 -22 -6 -132 -42
-245 -80 -113 -38 -223 -74 -245 -80 -22 -6 -139 -45 -260 -87 -121 -42 -225
-76 -232 -76 -7 0 -111 -34 -231 -76 -119 -41 -235 -79 -257 -83 -22 -5 -137
-43 -255 -85 -118 -42 -222 -76 -232 -76 -10 0 -127 -38 -260 -85 -133 -47
-250 -85 -260 -85 -9 0 -113 -34 -230 -75 -117 -41 -240 -82 -273 -90 -33 -8
-150 -46 -260 -84 -110 -38 -245 -82 -300 -99 -117 -36 -410 -134 -508 -170
-37 -14 -79 -36 -93 -49 -14 -13 -28 -23 -32 -23 -4 0 -33 -24 -64 -54 -55
-53 -104 -127 -91 -140 4 -3 0 -6 -7 -6 -7 0 -11 -3 -8 -6 3 -3 -3 -29 -13
-57 -24 -64 -25 -220 -1 -282 8 -22 14 -48 14 -57 0 -10 3 -18 9 -18 5 0 9 -9
9 -20 0 -11 5 -20 10 -20 6 0 10 -6 10 -14 0 -18 112 -131 171 -172 54 -38 89
-50 196 -64 84 -11 192 1 268 30 17 6 32 11 35 10 14 -4 90 24 90 33 0 6 3 7
7 4 3 -4 12 -2 20 4 7 6 13 8 13 4 0 -4 6 -3 13 2 19 16 322 111 405 128 17 4
32 11 32 16 0 5 3 8 8 8 4 -1 10 0 15 1 4 1 12 4 17 5 6 1 11 3 13 4 1 2 13 5
27 7 14 3 41 13 60 23 19 10 71 28 115 40 44 13 121 36 170 53 50 17 97 32
105 33 8 2 16 4 18 5 1 2 5 3 10 4 41 8 102 30 102 37 0 5 3 8 8 7 4 -1 21 4
37 11 17 7 50 17 75 23 25 6 97 27 160 48 63 21 136 44 163 50 26 7 47 17 47
21 0 5 3 8 8 8 4 -1 9 0 12 1 3 1 13 3 23 5 10 2 34 11 52 19 18 9 55 20 82
26 26 5 99 27 161 49 62 23 122 41 132 41 11 0 20 4 20 10 0 5 3 9 8 9 4 -1 9
0 12 1 3 1 12 3 20 5 22 4 225 69 370 119 113 39 256 84 284 91 6 1 18 5 26 8
72 30 459 155 508 163 15 3 31 9 37 13 12 11 356 127 405 137 93 20 110 26
110 35 0 5 3 8 8 8 4 -1 10 0 15 1 4 1 10 3 15 5 4 1 14 5 22 8 65 28 326 111
369 117 30 5 58 15 62 22 5 7 9 9 9 4 0 -5 7 -2 17 5 9 8 18 13 20 12 1 -2 4
-3 6 -2 1 0 13 2 26 5 14 2 29 8 35 13 14 10 305 106 389 127 4 1 9 3 12 4 3
1 10 4 15 5 6 1 11 3 13 5 1 1 10 3 19 5 31 6 93 28 113 40 11 7 67 27 125 44
58 17 137 41 175 54 39 12 72 22 75 22 25 2 100 30 100 38 0 6 3 7 7 4 3 -4
12 -2 20 4 7 6 13 8 13 4 0 -4 7 -2 15 5 8 7 15 9 15 5 0 -4 6 -3 13 2 6 6 53
22 102 37 226 68 263 81 315 105 30 14 75 41 100 59 48 37 110 99 103 105 -2
2 3 10 12 17 8 7 15 17 15 23 0 6 6 18 14 26 7 9 24 45 37 81 45 126 23 298
-53 415 -17 28 -31 53 -30 58 1 4 -2 7 -8 7 -5 0 -10 7 -10 15 0 8 -3 15 -7
15 -5 0 -26 16 -48 35 -22 20 -44 39 -50 43 -16 13 -158 64 -185 67 -73 9
-128 12 -150 8z"/>
</g>
</svg>
