<?xml version="1.0" standalone="no"?>
<!DOCTYPE svg PUBLIC "-//W3C//DTD SVG 20010904//EN"
 "http://www.w3.org/TR/2001/REC-SVG-20010904/DTD/svg10.dtd">
<svg version="1.0" xmlns="http://www.w3.org/2000/svg"
 width="4092.000000pt" height="3532.000000pt" viewBox="0 0 4092.000000 3532.000000"
 preserveAspectRatio="xMidYMid meet">
<metadata>
Created by potrace 1.16, written by Peter Selinger 2001-2019
</metadata>
<g transform="translate(0.000000,3532.000000) scale(0.100000,-0.100000)"
fill="#EF2B2F" stroke="none">
<path d="M9725 35273 c-426 -28 -894 -140 -1260 -303 -401 -177 -767 -442
-1038 -748 -584 -663 -923 -1447 -998 -2310 -15 -181 -7 -685 15 -862 105
-839 413 -1676 934 -2535 232 -382 567 -847 875 -1215 l80 -95 -2954 -5 -2954
-5 -153 -28 c-481 -88 -899 -276 -1257 -564 -127 -103 -349 -330 -443 -456
-289 -384 -463 -820 -518 -1300 -13 -114 -14 -353 -12 -1727 3 -1471 5 -1603
21 -1700 93 -552 295 -999 630 -1401 443 -530 1049 -865 1727 -955 99 -13 244
-17 687 -21 l563 -5 3 -8272 c2 -7810 3 -8276 20 -8369 61 -344 135 -575 272
-849 127 -252 285 -475 484 -681 447 -461 1003 -740 1620 -812 189 -22 19004
-23 19108 0 348 74 606 316 705 661 19 67 23 103 23 234 0 131 -4 167 -23 234
-99 345 -357 587 -705 661 -59 13 -1346 15 -9878 15 l-9809 0 0 9070 0 9070
14970 0 14970 0 0 -9070 0 -9070 -1640 0 c-1808 0 -1704 3 -1874 -62 -155 -60
-333 -205 -423 -346 -55 -86 -101 -192 -125 -289 -30 -123 -30 -303 0 -426 85
-346 361 -612 707 -682 72 -14 217 -15 1400 -12 1198 2 1330 4 1425 20 580 96
1082 348 1499 752 472 458 762 1037 836 1674 13 110 15 1164 15 8337 l0 8212
543 5 c312 3 582 10 637 17 438 53 850 206 1214 451 528 355 937 908 1122
1517 44 147 90 373 104 522 8 81 10 581 8 1705 l-4 1590 -27 140 c-54 286
-133 522 -253 755 -366 705 -1039 1220 -1824 1394 -296 66 -25 60 -3142 66
l-2828 5 111 135 c61 74 175 221 253 325 1202 1598 1710 3184 1475 4610 -124
752 -500 1499 -1023 2033 -254 259 -500 439 -822 600 -410 205 -861 324 -1374
363 -196 15 -681 6 -885 -16 -1383 -147 -2919 -772 -4550 -1850 -942 -623
-1881 -1378 -2755 -2217 -982 -941 -1895 -2056 -2529 -3088 -46 -74 -90 -145
-98 -158 -14 -22 -17 -18 -115 140 -897 1459 -2280 2961 -3983 4327 -2149
1723 -4278 2725 -6075 2861 -123 9 -583 11 -705 3z m765 -1837 c997 -138 2094
-585 3335 -1359 1685 -1052 3461 -2670 4562 -4157 175 -237 392 -551 487 -707
6 -10 -796 -13 -3996 -13 l-4003 1 -185 172 c-1449 1350 -2310 2725 -2440
3897 -16 144 -14 430 5 577 51 396 214 774 468 1089 243 301 569 462 1037 513
127 14 593 5 730 -13z m20882 9 c457 -53 785 -214 1019 -501 250 -306 410
-689 459 -1098 16 -129 13 -440 -5 -586 -86 -698 -419 -1463 -986 -2270 -379
-540 -877 -1108 -1418 -1617 l-185 -173 -3978 0 c-2188 0 -3978 3 -3978 7 0
13 254 390 406 603 712 997 1605 1959 2623 2821 1666 1413 3418 2401 4821
2719 211 48 412 79 660 103 104 11 448 5 562 -8z m-10912 -10260 l0 -2265
-7715 0 -7715 0 0 -25 0 -25 -1217 2 -1218 3 -70 24 c-361 121 -607 430 -655
821 -14 118 -14 2805 1 2920 16 128 62 256 130 359 116 176 273 287 504 355
69 20 89 20 1528 23 l1457 3 0 35 0 35 7485 0 7485 0 0 -2265z m14970 2230 l0
-35 1443 -3 1442 -3 80 -22 c112 -32 268 -110 354 -177 131 -103 242 -270 288
-435 17 -61 18 -146 18 -1550 l0 -1485 -23 -90 c-86 -339 -347 -616 -674 -717
l-73 -23 -1197 -3 -1198 -2 0 25 0 25 -7260 0 -7260 0 0 2265 0 2265 7030 0
7030 0 0 -35z"/>
<path d="M24235 17293 c-346 -23 -1638 -125 -2515 -198 -1493 -125 -1748 -163
-2035 -305 -219 -108 -292 -167 -725 -580 -753 -720 -4660 -4617 -5967 -5953
-134 -136 -243 -255 -243 -263 0 -31 1071 -1113 4308 -4351 l1633 -1634 1715
1708 c2164 2155 4071 4074 4548 4578 345 365 496 548 496 601 0 33 -41 57
-391 233 -383 192 -429 207 -456 149 -22 -48 -851 -886 -3715 -3753 l-2178
-2180 -2325 2325 -2325 2325 2366 2365 c2205 2203 3210 3200 3447 3419 249
230 332 246 1882 376 1880 156 2368 190 2647 182 257 -7 295 -21 454 -174 209
-201 213 -251 123 -1408 -47 -596 -58 -864 -40 -957 21 -107 51 -148 231 -316
304 -284 555 -470 597 -444 16 10 28 96 52 352 63 668 138 1843 148 2295 5
251 4 277 -17 375 -60 291 -201 542 -434 776 -178 178 -336 281 -566 369 -205
79 -431 107 -715 88z"/>
<path d="M26546 15517 c-19 -359 -36 -659 -41 -717 -3 -36 -10 -160 -15 -277
l-11 -212 114 -157 c246 -337 409 -647 515 -974 51 -158 72 -283 72 -426 0
-131 -11 -195 -51 -281 -79 -176 -245 -263 -499 -263 -407 0 -920 207 -1401
566 -484 361 -844 759 -1149 1268 l-83 138 62 127 c75 156 92 216 98 356 9
181 -36 347 -133 497 -138 214 -344 341 -599 370 -468 53 -905 -346 -905 -827
0 -157 41 -291 130 -423 78 -115 144 -188 234 -256 124 -93 144 -122 333 -466
537 -982 1562 -1856 2578 -2199 689 -232 1288 -194 1747 111 55 37 138 107
204 173 218 215 350 475 404 792 28 162 28 460 0 630 -42 255 -138 582 -251
849 -200 473 -695 1137 -1180 1581 -82 76 -154 139 -158 141 -4 1 -11 -53 -15
-121z"/>
<path d="M19177 13464 c-286 -52 -606 -321 -727 -611 -120 -288 -115 -616 15
-890 102 -217 244 -366 455 -481 277 -150 654 -161 958 -26 230 101 436 322
546 584 62 144 70 214 57 435 -13 213 -30 296 -81 403 -154 322 -429 531 -774
587 -114 19 -344 18 -449 -1z m376 -579 c228 -59 369 -260 354 -503 -7 -118
-49 -202 -150 -300 -103 -99 -179 -135 -302 -140 -141 -6 -257 40 -360 144
-156 155 -188 370 -88 569 53 103 186 207 300 234 60 14 184 12 246 -4z"/>
<path d="M16840 10690 l0 -300 2585 0 2585 0 0 300 0 300 -2585 0 -2585 0 0
-300z"/>
<path d="M19301 10029 c-355 -44 -691 -290 -852 -624 -61 -126 -69 -175 -69
-435 0 -263 8 -309 70 -437 139 -282 415 -524 684 -600 50 -14 104 -18 291
-18 260 0 277 3 442 80 292 137 498 364 578 639 62 217 51 553 -26 749 -79
201 -292 428 -499 532 -188 95 -425 139 -619 114z m316 -624 c160 -79 284
-249 291 -400 5 -95 -11 -169 -58 -263 -70 -140 -168 -211 -329 -239 -102 -18
-206 -6 -286 31 -107 51 -228 173 -261 266 -9 25 -18 86 -21 136 -9 148 36
265 141 369 107 106 213 147 359 141 78 -3 97 -8 164 -41z"/>
</g>
</svg>
