<?xml version="1.0" standalone="no"?>
<!DOCTYPE svg PUBLIC "-//W3C//DTD SVG 20010904//EN"
 "http://www.w3.org/TR/2001/REC-SVG-20010904/DTD/svg10.dtd">
<svg version="1.0" xmlns="http://www.w3.org/2000/svg"
 width="4092.000000pt" height="3532.000000pt" viewBox="0 0 4092.000000 3532.000000"
 preserveAspectRatio="xMidYMid meet">
<metadata>
Created by potrace 1.16, written by Peter Selinger 2001-2019
</metadata>
<g transform="translate(0.000000,3532.000000) scale(0.100000,-0.100000)"
fill="#EF2B2F" stroke="none">
<path d="M9725 35273 c-426 -28 -894 -140 -1260 -303 -401 -177 -767 -442
-1038 -748 -584 -663 -923 -1447 -998 -2310 -15 -181 -7 -685 15 -862 105
-839 413 -1676 934 -2535 232 -382 567 -847 875 -1215 l80 -95 -2954 -5 -2954
-5 -153 -28 c-481 -88 -899 -276 -1257 -564 -127 -103 -349 -330 -443 -456
-289 -384 -463 -820 -518 -1300 -13 -114 -14 -353 -12 -1727 3 -1471 5 -1603
21 -1700 93 -552 295 -999 630 -1401 443 -530 1049 -865 1727 -955 99 -13 244
-17 687 -21 l563 -5 3 -8272 c2 -7810 3 -8276 20 -8369 61 -344 135 -575 272
-849 127 -252 285 -475 484 -681 447 -461 1003 -740 1620 -812 189 -22 19004
-23 19108 0 348 74 606 316 705 661 19 67 23 103 23 234 0 131 -4 167 -23 234
-99 345 -357 587 -705 661 -59 13 -1346 15 -9878 15 l-9809 0 0 9070 0 9070
14970 0 14970 0 0 -9070 0 -9070 -1640 0 c-1808 0 -1704 3 -1874 -62 -155 -60
-333 -205 -423 -346 -55 -86 -101 -192 -125 -289 -30 -123 -30 -303 0 -426 85
-346 361 -612 707 -682 72 -14 217 -15 1400 -12 1198 2 1330 4 1425 20 580 96
1082 348 1499 752 472 458 762 1037 836 1674 13 110 15 1164 15 8337 l0 8212
543 5 c312 3 582 10 637 17 438 53 850 206 1214 451 528 355 937 908 1122
1517 44 147 90 373 104 522 8 81 10 581 8 1705 l-4 1590 -27 140 c-54 286
-133 522 -253 755 -366 705 -1039 1220 -1824 1394 -296 66 -25 60 -3142 66
l-2828 5 111 135 c61 74 175 221 253 325 1202 1598 1710 3184 1475 4610 -124
752 -500 1499 -1023 2033 -254 259 -500 439 -822 600 -410 205 -861 324 -1374
363 -196 15 -681 6 -885 -16 -1383 -147 -2919 -772 -4550 -1850 -942 -623
-1881 -1378 -2755 -2217 -982 -941 -1895 -2056 -2529 -3088 -46 -74 -90 -145
-98 -158 -14 -22 -17 -18 -115 140 -897 1459 -2280 2961 -3983 4327 -2149
1723 -4278 2725 -6075 2861 -123 9 -583 11 -705 3z m765 -1837 c997 -138 2094
-585 3335 -1359 1685 -1052 3461 -2670 4562 -4157 175 -237 392 -551 487 -707
6 -10 -796 -13 -3996 -13 l-4003 1 -185 172 c-1449 1350 -2310 2725 -2440
3897 -16 144 -14 430 5 577 51 396 214 774 468 1089 243 301 569 462 1037 513
127 14 593 5 730 -13z m20882 9 c457 -53 785 -214 1019 -501 250 -306 410
-689 459 -1098 16 -129 13 -440 -5 -586 -86 -698 -419 -1463 -986 -2270 -379
-540 -877 -1108 -1418 -1617 l-185 -173 -3978 0 c-2188 0 -3978 3 -3978 7 0
13 254 390 406 603 712 997 1605 1959 2623 2821 1666 1413 3418 2401 4821
2719 211 48 412 79 660 103 104 11 448 5 562 -8z m-10912 -10260 l0 -2265
-7715 0 -7715 0 0 -25 0 -25 -1217 2 -1218 3 -70 24 c-361 121 -607 430 -655
821 -14 118 -14 2805 1 2920 16 128 62 256 130 359 116 176 273 287 504 355
69 20 89 20 1528 23 l1457 3 0 35 0 35 7485 0 7485 0 0 -2265z m14970 2230 l0
-35 1443 -3 1442 -3 80 -22 c112 -32 268 -110 354 -177 131 -103 242 -270 288
-435 17 -61 18 -146 18 -1550 l0 -1485 -23 -90 c-86 -339 -347 -616 -674 -717
l-73 -23 -1197 -3 -1198 -2 0 25 0 25 -7260 0 -7260 0 0 2265 0 2265 7030 0
7030 0 0 -35z"/>
<path d="M22575 15554 c-553 -80 -1015 -273 -1455 -607 -36 -27 -67 -52 -70
-56 -3 -3 -30 -26 -60 -51 -66 -54 -158 -141 -250 -235 -72 -74 -256 -285
-281 -322 -17 -25 -3 -36 -246 197 -154 147 -306 280 -398 345 -15 11 -39 29
-54 41 -30 24 -270 180 -316 206 -384 212 -755 329 -1148 360 -314 25 -581
-29 -837 -170 -306 -169 -665 -455 -995 -792 -60 -62 -122 -125 -136 -139 -40
-41 -168 -180 -239 -260 -36 -40 -77 -85 -91 -100 -27 -26 -289 -329 -337
-389 -28 -34 -44 -53 -158 -188 -38 -44 -82 -97 -99 -118 -16 -21 -59 -73 -95
-116 -110 -132 -234 -282 -250 -303 -8 -11 -44 -55 -80 -98 -97 -117 -173
-211 -190 -233 -19 -24 -264 -313 -294 -346 -13 -14 -70 -79 -127 -145 -124
-142 -194 -217 -349 -374 -212 -214 -305 -293 -403 -341 -68 -34 -87 -64 -87
-140 0 -90 11 -106 145 -207 6 -5 35 -25 65 -45 110 -75 108 -74 210 -157 24
-20 107 -99 185 -176 157 -157 237 -244 352 -382 17 -21 74 -88 125 -149 51
-62 111 -135 133 -163 22 -28 65 -82 95 -119 30 -38 89 -112 130 -166 41 -54
91 -117 110 -141 19 -24 49 -63 65 -85 17 -22 46 -61 65 -85 19 -24 49 -62 65
-85 17 -22 45 -57 62 -78 18 -20 33 -40 33 -43 0 -3 11 -19 25 -35 14 -16 58
-71 98 -122 168 -218 243 -308 472 -575 229 -267 250 -290 520 -562 273 -275
486 -472 650 -600 21 -16 50 -39 64 -51 481 -386 986 -617 1766 -809 99 -24
207 -48 240 -54 33 -5 110 -19 170 -30 141 -27 386 -58 595 -76 195 -18 954
-20 1180 -5 259 18 630 57 870 91 786 112 1053 177 1355 331 44 23 91 49 105
58 14 9 45 30 70 46 24 16 51 35 60 41 8 7 51 40 95 73 191 145 719 659 1010
985 39 43 88 97 110 121 22 23 64 71 93 106 29 35 110 131 180 214 146 174
348 424 389 484 10 14 43 57 73 95 31 39 64 81 73 95 9 14 32 43 50 66 68 87
123 158 137 179 8 13 42 58 74 101 33 44 73 99 90 122 17 24 46 61 64 82 17
20 32 40 32 44 0 4 18 30 40 59 22 29 52 69 67 90 16 21 40 53 56 71 15 19 27
37 27 40 0 4 18 30 40 59 53 70 84 112 128 176 20 29 49 68 65 86 15 18 27 36
27 40 0 4 17 29 38 56 20 26 47 63 60 81 12 18 37 53 55 77 18 24 37 51 42 59
6 9 35 49 65 90 30 41 62 85 70 97 19 29 125 174 165 225 17 22 59 78 95 126
68 91 192 240 218 261 38 31 52 68 52 137 0 65 -2 70 -34 101 -19 18 -59 46
-88 63 -130 73 -385 315 -514 488 -16 21 -56 71 -89 111 -33 40 -76 93 -95
118 -19 25 -50 63 -67 84 -18 21 -33 43 -33 48 0 6 -7 17 -17 24 -16 14 -88
105 -108 138 -5 9 -23 33 -40 53 -16 20 -43 55 -60 78 -16 22 -46 60 -65 84
-19 25 -93 124 -165 221 -71 98 -145 194 -162 215 -18 21 -33 41 -33 45 0 4
-14 24 -31 44 -30 36 -64 79 -127 162 -18 24 -62 82 -98 129 -35 47 -81 107
-102 134 -20 27 -52 66 -69 86 -18 21 -33 42 -33 47 0 6 -10 18 -21 29 -12 10
-42 46 -68 79 -116 152 -397 479 -531 619 -162 169 -367 364 -481 459 -343
282 -632 444 -931 524 -101 26 -110 27 -413 29 -170 1 -323 0 -340 -2z m-3770
-3448 c201 -26 420 -87 1060 -298 488 -160 567 -178 795 -178 247 0 342 19
760 148 618 192 980 275 1311 301 280 23 513 -21 851 -160 152 -63 301 -131
803 -368 184 -87 344 -161 351 -161 2 0 42 -18 89 -40 47 -22 88 -40 91 -40 3
0 35 -13 71 -30 35 -16 68 -30 72 -30 5 0 33 -11 62 -24 92 -40 409 -144 523
-171 60 -14 113 -28 118 -31 5 -3 -39 -38 -99 -78 -99 -66 -133 -87 -218 -136
-16 -10 -57 -34 -90 -54 -88 -54 -570 -293 -715 -355 -69 -30 -147 -64 -175
-76 -249 -111 -764 -295 -1060 -378 -350 -99 -828 -206 -1125 -252 -52 -8
-151 -23 -220 -34 -69 -11 -150 -22 -180 -26 -30 -3 -89 -10 -130 -15 -361
-45 -796 -70 -1225 -70 -911 0 -1712 104 -2600 336 -198 52 -526 156 -845 269
-145 52 -508 203 -700 292 -177 82 -587 294 -705 364 -16 10 -70 39 -118 66
l-88 47 78 26 c210 71 335 116 405 146 42 19 78 34 81 34 6 0 218 100 312 147
124 62 365 193 565 308 574 328 918 491 1105 524 33 6 71 13 85 15 62 11 582
-3 705 -18z"/>
</g>
</svg>
