<?xml version="1.0" standalone="no"?>
<!DOCTYPE svg PUBLIC "-//W3C//DTD SVG 20010904//EN"
 "http://www.w3.org/TR/2001/REC-SVG-20010904/DTD/svg10.dtd">
<svg version="1.0" xmlns="http://www.w3.org/2000/svg"
 width="4092.000000pt" height="3532.000000pt" viewBox="0 0 4092.000000 3532.000000"
 preserveAspectRatio="xMidYMid meet">
<metadata>
Created by potrace 1.16, written by Peter Selinger 2001-2019
</metadata>
<g transform="translate(0.000000,3532.000000) scale(0.100000,-0.100000)"
fill="#EF2B2F" stroke="none">
<path d="M9725 35273 c-426 -28 -894 -140 -1260 -303 -401 -177 -767 -442
-1038 -748 -584 -663 -923 -1447 -998 -2310 -15 -181 -7 -685 15 -862 105
-839 413 -1676 934 -2535 232 -382 567 -847 875 -1215 l80 -95 -2954 -5 -2954
-5 -153 -28 c-481 -88 -899 -276 -1257 -564 -127 -103 -349 -330 -443 -456
-289 -384 -463 -820 -518 -1300 -13 -114 -14 -353 -12 -1727 3 -1471 5 -1603
21 -1700 93 -552 295 -999 630 -1401 443 -530 1049 -865 1727 -955 99 -13 244
-17 687 -21 l563 -5 3 -8272 c2 -7810 3 -8276 20 -8369 61 -344 135 -575 272
-849 127 -252 285 -475 484 -681 447 -461 1003 -740 1620 -812 189 -22 19004
-23 19108 0 348 74 606 316 705 661 19 67 23 103 23 234 0 131 -4 167 -23 234
-99 345 -357 587 -705 661 -59 13 -1346 15 -9878 15 l-9809 0 0 9070 0 9070
14970 0 14970 0 0 -9070 0 -9070 -1640 0 c-1808 0 -1704 3 -1874 -62 -155 -60
-333 -205 -423 -346 -55 -86 -101 -192 -125 -289 -30 -123 -30 -303 0 -426 85
-346 361 -612 707 -682 72 -14 217 -15 1400 -12 1198 2 1330 4 1425 20 580 96
1082 348 1499 752 472 458 762 1037 836 1674 13 110 15 1164 15 8337 l0 8212
543 5 c312 3 582 10 637 17 438 53 850 206 1214 451 528 355 937 908 1122
1517 44 147 90 373 104 522 8 81 10 581 8 1705 l-4 1590 -27 140 c-54 286
-133 522 -253 755 -366 705 -1039 1220 -1824 1394 -296 66 -25 60 -3142 66
l-2828 5 111 135 c61 74 175 221 253 325 1202 1598 1710 3184 1475 4610 -124
752 -500 1499 -1023 2033 -254 259 -500 439 -822 600 -410 205 -861 324 -1374
363 -196 15 -681 6 -885 -16 -1383 -147 -2919 -772 -4550 -1850 -942 -623
-1881 -1378 -2755 -2217 -982 -941 -1895 -2056 -2529 -3088 -46 -74 -90 -145
-98 -158 -14 -22 -17 -18 -115 140 -897 1459 -2280 2961 -3983 4327 -2149
1723 -4278 2725 -6075 2861 -123 9 -583 11 -705 3z m765 -1837 c997 -138 2094
-585 3335 -1359 1685 -1052 3461 -2670 4562 -4157 175 -237 392 -551 487 -707
6 -10 -796 -13 -3996 -13 l-4003 1 -185 172 c-1449 1350 -2310 2725 -2440
3897 -16 144 -14 430 5 577 51 396 214 774 468 1089 243 301 569 462 1037 513
127 14 593 5 730 -13z m20882 9 c457 -53 785 -214 1019 -501 250 -306 410
-689 459 -1098 16 -129 13 -440 -5 -586 -86 -698 -419 -1463 -986 -2270 -379
-540 -877 -1108 -1418 -1617 l-185 -173 -3978 0 c-2188 0 -3978 3 -3978 7 0
13 254 390 406 603 712 997 1605 1959 2623 2821 1666 1413 3418 2401 4821
2719 211 48 412 79 660 103 104 11 448 5 562 -8z m-10912 -10260 l0 -2265
-7715 0 -7715 0 0 -25 0 -25 -1217 2 -1218 3 -70 24 c-361 121 -607 430 -655
821 -14 118 -14 2805 1 2920 16 128 62 256 130 359 116 176 273 287 504 355
69 20 89 20 1528 23 l1457 3 0 35 0 35 7485 0 7485 0 0 -2265z m14970 2230 l0
-35 1443 -3 1442 -3 80 -22 c112 -32 268 -110 354 -177 131 -103 242 -270 288
-435 17 -61 18 -146 18 -1550 l0 -1485 -23 -90 c-86 -339 -347 -616 -674 -717
l-73 -23 -1197 -3 -1198 -2 0 25 0 25 -7260 0 -7260 0 0 2265 0 2265 7030 0
7030 0 0 -35z"/>
<path d="M18875 15381 c-55 -9 -104 -19 -110 -23 -5 -3 -50 -14 -100 -24 -49
-9 -92 -20 -95 -24 -3 -4 -27 -13 -55 -20 -27 -8 -68 -22 -90 -31 -22 -10 -57
-21 -77 -24 -21 -4 -38 -11 -38 -16 0 -4 -27 -16 -60 -25 -33 -9 -60 -20 -60
-24 0 -4 -20 -13 -45 -20 -25 -7 -45 -16 -45 -20 0 -5 -22 -16 -50 -25 -27 -9
-50 -20 -50 -24 0 -4 -18 -14 -40 -21 -22 -7 -40 -17 -40 -21 0 -4 -22 -15
-50 -25 -27 -10 -50 -21 -50 -25 0 -4 -15 -12 -32 -20 -18 -7 -35 -16 -38 -20
-3 -3 -23 -16 -45 -28 -22 -12 -58 -33 -80 -46 -22 -13 -53 -32 -69 -41 -16
-9 -38 -25 -49 -35 -11 -10 -29 -21 -39 -25 -10 -3 -18 -9 -18 -13 0 -5 -13
-14 -30 -21 -16 -7 -30 -15 -30 -19 0 -4 -14 -15 -31 -25 -18 -10 -39 -26 -49
-35 -9 -9 -30 -25 -46 -36 -27 -19 -73 -58 -120 -100 -35 -32 -154 -139 -212
-192 -30 -26 -60 -51 -67 -56 -8 -4 -31 -24 -53 -45 -22 -20 -64 -57 -93 -82
-29 -25 -63 -54 -75 -65 -13 -11 -39 -33 -60 -50 -21 -16 -51 -42 -68 -56 -17
-14 -41 -34 -54 -45 -13 -10 -34 -28 -47 -39 -13 -11 -37 -30 -52 -42 -25 -19
-131 -104 -189 -151 -12 -9 -35 -27 -50 -39 -16 -12 -57 -44 -90 -70 -34 -26
-74 -57 -89 -67 -14 -11 -38 -30 -53 -43 -15 -13 -30 -23 -33 -23 -3 0 -19
-11 -35 -25 -16 -14 -32 -25 -36 -25 -4 0 -13 -6 -20 -12 -7 -7 -36 -30 -63
-50 -28 -21 -55 -42 -62 -48 -7 -5 -24 -15 -38 -22 -14 -6 -25 -15 -25 -19 0
-5 -15 -16 -32 -25 -18 -9 -35 -20 -38 -24 -3 -4 -30 -23 -60 -43 -30 -20 -60
-41 -66 -46 -5 -4 -20 -14 -33 -20 -12 -7 -31 -20 -40 -29 -10 -9 -42 -30 -70
-47 -29 -16 -61 -38 -73 -47 -12 -10 -25 -18 -29 -18 -4 0 -14 -6 -21 -14 -8
-7 -29 -21 -48 -31 -18 -9 -38 -21 -44 -26 -6 -5 -33 -24 -61 -41 -27 -17 -66
-42 -86 -55 -19 -12 -40 -23 -47 -23 -7 0 -12 -4 -12 -8 0 -4 -21 -19 -46 -33
-25 -13 -63 -33 -83 -43 -20 -11 -42 -26 -49 -33 -7 -7 -24 -16 -38 -19 -13
-3 -24 -10 -24 -14 0 -4 -20 -16 -45 -27 -25 -10 -45 -21 -45 -24 0 -4 -15
-12 -32 -20 -18 -7 -35 -16 -38 -19 -3 -4 -44 -26 -93 -50 -48 -23 -89 -46
-92 -50 -3 -5 -22 -14 -43 -21 -20 -6 -39 -15 -42 -18 -8 -10 -155 -81 -168
-81 -7 0 -12 -4 -12 -8 0 -5 -25 -17 -55 -27 -30 -11 -55 -23 -55 -27 0 -4 -4
-8 -10 -8 -5 0 -38 -13 -72 -29 -35 -16 -75 -33 -90 -36 -16 -4 -28 -11 -28
-15 0 -4 -20 -13 -45 -20 -25 -7 -48 -16 -51 -21 -2 -4 -32 -16 -64 -25 -33
-9 -60 -20 -60 -25 0 -4 -15 -11 -32 -14 -18 -4 -52 -16 -75 -26 -23 -11 -65
-24 -93 -31 -27 -6 -50 -15 -50 -19 0 -4 -33 -15 -72 -24 -40 -10 -75 -21 -78
-25 -3 -4 -27 -12 -55 -19 -27 -6 -63 -18 -80 -25 -16 -8 -63 -20 -102 -27
-40 -7 -73 -15 -73 -19 0 -4 -30 -13 -67 -20 -38 -7 -72 -16 -78 -20 -12 -9
-180 -40 -217 -40 -16 0 -28 -4 -28 -9 0 -5 -44 -14 -97 -21 -54 -6 -111 -16
-128 -20 -69 -21 -493 -53 -690 -53 -144 0 -425 19 -550 37 -177 26 -290 46
-310 55 -11 5 -60 17 -110 26 -49 9 -94 20 -100 25 -5 4 -35 13 -65 20 -30 7
-57 16 -60 20 -3 4 -38 15 -77 25 -40 9 -73 20 -73 24 0 4 -23 13 -50 20 -28
7 -50 16 -50 20 0 4 -27 16 -60 26 -33 10 -60 22 -60 27 0 4 -6 8 -13 8 -14 0
-258 119 -267 130 -3 3 -20 12 -37 19 -18 8 -33 17 -33 21 0 4 -18 15 -40 25
-22 10 -40 21 -40 25 0 4 -14 13 -30 20 -16 7 -30 16 -30 19 0 4 -16 15 -35
24 -19 9 -35 21 -35 27 0 5 -6 10 -13 10 -7 0 -22 8 -33 18 -11 10 -33 27 -49
38 -37 24 -48 33 -109 89 -27 25 -52 45 -56 45 -7 0 -177 171 -209 210 l-20
25 -1 -26 c0 -16 12 -40 30 -59 16 -17 62 -73 102 -123 40 -51 96 -119 125
-153 29 -34 53 -66 53 -73 0 -6 4 -11 9 -11 6 0 37 -36 71 -79 34 -44 65 -81
68 -83 4 -2 34 -37 67 -78 33 -41 69 -84 80 -95 11 -12 63 -72 115 -134 52
-62 106 -125 120 -140 14 -15 50 -56 80 -90 30 -35 63 -73 74 -84 10 -10 41
-44 68 -76 343 -383 899 -950 1204 -1226 43 -38 89 -81 104 -95 37 -34 117
-106 180 -160 29 -25 65 -56 80 -70 26 -24 71 -63 155 -132 38 -31 54 -45 111
-93 13 -11 36 -29 50 -40 15 -11 38 -30 53 -42 25 -22 64 -53 131 -103 18 -14
49 -37 69 -53 20 -15 46 -35 59 -45 12 -9 35 -27 49 -39 14 -13 29 -23 33 -23
4 0 20 -11 36 -25 16 -14 32 -25 35 -25 3 0 15 -8 27 -17 52 -45 62 -52 84
-64 13 -6 30 -18 38 -26 8 -8 39 -29 69 -48 30 -19 57 -38 60 -42 3 -5 23 -17
44 -28 20 -11 37 -22 37 -26 0 -4 14 -12 30 -19 17 -7 30 -16 30 -20 0 -4 18
-15 40 -25 22 -10 40 -21 40 -25 0 -4 14 -13 30 -20 17 -7 30 -16 30 -20 0 -4
17 -14 38 -24 38 -16 109 -58 127 -73 6 -5 25 -15 43 -22 17 -7 32 -17 32 -21
0 -4 17 -15 38 -24 45 -20 103 -52 117 -63 6 -5 46 -26 90 -48 44 -21 82 -42
85 -45 3 -4 26 -15 53 -25 26 -10 47 -21 47 -25 0 -4 20 -13 45 -20 25 -7 45
-16 45 -20 0 -5 24 -16 53 -26 28 -9 54 -20 57 -24 3 -4 23 -13 45 -20 22 -7
49 -18 60 -25 11 -6 38 -18 60 -25 22 -7 42 -16 45 -19 3 -4 32 -15 65 -25 33
-10 65 -22 70 -26 6 -4 31 -13 58 -20 26 -7 47 -16 47 -19 0 -4 29 -13 64 -20
35 -7 76 -19 90 -26 15 -8 53 -19 86 -26 33 -6 60 -15 60 -18 0 -4 44 -16 98
-26 53 -10 99 -21 102 -25 3 -3 61 -15 130 -25 69 -10 132 -22 140 -26 33 -17
366 -39 590 -39 228 0 542 21 585 40 11 5 67 16 125 26 58 9 110 20 115 24 6
5 49 16 98 25 48 10 87 21 87 25 0 4 27 13 60 20 33 7 60 16 60 19 0 4 32 15
70 26 39 11 70 22 70 26 0 3 20 12 45 19 25 7 48 16 50 21 3 4 29 15 58 25 28
9 54 20 57 24 7 10 153 80 167 80 6 0 13 4 15 8 3 7 107 70 191 114 18 9 37
22 44 28 7 5 24 15 38 22 14 6 25 14 25 18 0 4 16 15 35 26 19 10 35 22 35 26
0 3 9 9 19 13 11 3 35 18 54 33 19 15 47 36 62 46 14 11 38 30 53 43 15 13 30
23 33 23 3 0 17 10 31 23 14 12 39 33 57 47 33 27 47 38 137 115 79 68 407
396 469 470 28 33 58 66 68 73 9 7 17 20 17 28 0 8 4 14 8 14 5 0 35 34 68 76
32 42 66 84 74 94 8 10 26 33 40 50 14 18 33 42 42 54 58 71 128 168 128 176
0 5 6 13 13 17 6 4 17 15 22 24 6 9 19 29 29 45 11 16 45 67 75 114 31 47 59
87 64 88 4 2 7 9 7 16 0 7 9 21 20 31 11 10 17 22 14 26 -3 5 -1 9 4 9 5 0 15
14 22 30 7 17 15 30 19 30 3 0 13 15 20 33 8 17 29 53 47 79 32 45 45 67 89
154 11 21 24 44 29 49 11 13 75 131 127 235 24 47 45 87 48 90 10 9 81 158 81
169 0 6 5 11 10 11 6 0 10 5 10 11 0 5 19 49 42 97 23 48 41 90 40 95 -1 4 2
7 6 7 5 0 14 19 21 42 7 22 19 48 27 55 8 8 14 22 14 31 0 9 9 31 19 49 11 17
25 50 32 72 7 23 15 41 19 41 3 0 14 27 24 60 10 33 21 60 25 60 4 0 14 23 21
50 7 28 17 50 20 50 4 0 13 19 19 43 7 23 22 61 32 85 11 23 22 56 26 72 3 17
9 30 13 30 4 0 13 21 20 48 7 26 19 61 26 77 7 17 20 55 29 85 10 30 21 60 25
65 4 6 13 35 20 65 7 30 16 57 20 60 4 3 15 36 24 75 10 38 21 74 26 80 4 5
14 53 21 105 6 52 15 97 19 100 6 4 32 202 62 475 14 129 14 728 0 820 -22
142 -55 310 -61 315 -4 3 -14 30 -23 60 -24 81 -59 174 -67 180 -4 3 -13 21
-21 40 -8 19 -20 39 -27 43 -7 4 -13 13 -13 18 0 14 -61 101 -77 112 -7 4 -13
13 -13 18 0 9 -40 49 -135 134 -12 11 -37 29 -56 39 -19 11 -36 22 -39 25 -8
9 -112 58 -140 66 -14 4 -38 13 -55 21 -103 45 -480 59 -690 25z"/>
<path d="M21465 15381 c-44 -9 -84 -19 -90 -22 -5 -4 -38 -15 -72 -24 -35 -10
-63 -21 -63 -26 0 -4 -10 -11 -22 -15 -55 -16 -207 -128 -258 -189 -14 -16
-32 -37 -40 -45 -22 -24 -76 -102 -83 -122 -4 -10 -10 -18 -15 -18 -5 0 -15
-18 -22 -40 -7 -22 -17 -40 -21 -40 -5 0 -16 -25 -24 -55 -9 -30 -20 -55 -24
-55 -4 0 -14 -26 -21 -57 -7 -32 -16 -60 -20 -63 -7 -4 -27 -103 -62 -300 -15
-85 -15 -813 0 -930 6 -47 21 -161 32 -255 12 -93 25 -179 30 -190 5 -11 14
-51 20 -90 6 -38 17 -83 24 -100 8 -16 20 -56 27 -87 7 -32 16 -58 21 -58 4 0
8 -8 8 -17 1 -10 10 -43 21 -73 11 -30 27 -79 35 -109 9 -30 21 -63 29 -75 7
-11 19 -45 26 -73 7 -29 16 -53 20 -53 4 0 13 -22 20 -50 7 -27 15 -50 19 -50
3 0 12 -21 19 -47 7 -27 19 -57 26 -68 6 -11 18 -38 25 -60 7 -22 19 -49 26
-60 7 -11 18 -39 25 -62 7 -24 15 -43 19 -43 4 0 13 -20 20 -45 7 -25 16 -45
20 -45 4 0 16 -27 26 -60 11 -33 22 -60 26 -60 3 0 12 -17 18 -37 7 -21 18
-45 25 -53 7 -8 19 -34 26 -57 7 -24 15 -43 19 -43 3 0 14 -22 24 -50 10 -27
21 -50 25 -50 4 0 14 -18 21 -40 7 -22 16 -40 20 -40 3 0 14 -22 24 -50 10
-27 21 -50 25 -50 3 0 12 -15 20 -32 8 -18 19 -40 26 -48 6 -8 18 -31 25 -50
8 -19 17 -37 21 -40 4 -3 26 -41 49 -85 62 -119 74 -139 85 -147 6 -4 6 -8 2
-8 -4 0 -3 -6 3 -12 16 -20 60 -88 60 -94 0 -3 14 -25 30 -49 17 -24 30 -48
30 -54 0 -6 3 -11 8 -11 4 0 16 -18 26 -40 11 -22 22 -40 26 -40 4 0 13 -13
20 -30 7 -16 16 -30 21 -30 5 0 9 -6 10 -12 0 -7 20 -40 44 -73 25 -33 52 -73
61 -90 9 -16 20 -32 24 -35 4 -3 27 -34 51 -68 75 -109 83 -119 129 -179 102
-133 204 -259 217 -270 8 -6 25 -25 37 -41 46 -63 137 -160 306 -327 181 -179
190 -188 256 -243 21 -19 57 -49 79 -68 22 -18 72 -58 110 -89 39 -30 78 -61
87 -69 9 -8 31 -22 47 -31 17 -8 31 -19 31 -24 0 -4 11 -13 25 -19 14 -7 31
-17 38 -22 7 -6 36 -26 66 -45 30 -19 57 -38 60 -43 3 -4 25 -16 49 -26 23
-11 42 -22 42 -25 0 -3 35 -24 78 -46 42 -22 79 -42 82 -45 3 -3 41 -23 85
-45 44 -21 82 -42 85 -45 3 -4 29 -15 57 -24 29 -10 55 -21 58 -25 2 -5 25
-14 50 -21 25 -7 45 -16 45 -19 0 -4 32 -15 70 -25 39 -10 70 -22 70 -26 0 -4
27 -13 60 -20 33 -7 60 -16 60 -20 0 -4 39 -15 88 -25 48 -9 89 -20 92 -24 7
-10 221 -48 400 -71 134 -18 200 -20 480 -17 309 4 527 18 560 36 9 5 73 17
143 26 70 10 127 21 127 25 0 4 45 15 100 25 55 10 100 22 100 26 0 3 29 12
65 19 36 7 67 16 70 20 3 5 39 16 80 26 41 10 75 21 75 24 0 4 25 13 55 20 30
7 55 16 55 20 0 4 29 15 65 25 36 9 65 21 65 25 0 5 23 14 50 21 28 7 50 16
50 19 0 4 27 15 60 26 33 10 60 22 60 26 0 3 17 12 37 19 21 7 58 23 82 36 24
12 50 23 57 23 8 0 14 4 14 8 0 4 23 16 50 26 28 10 50 21 50 25 0 4 18 14 40
21 22 7 40 17 40 21 0 4 21 15 48 25 26 10 52 23 58 29 6 5 42 26 79 45 38 19
74 39 79 43 37 27 122 77 133 77 7 0 13 4 13 8 0 5 16 16 36 25 19 10 40 22
47 27 7 6 35 25 62 42 82 51 130 83 135 89 3 3 20 14 39 24 19 9 39 21 45 26
45 38 91 69 107 74 10 4 19 10 19 14 0 4 16 16 35 27 19 10 35 21 35 25 0 4
14 12 30 19 17 7 30 16 30 21 0 5 14 16 31 24 16 9 39 24 49 33 28 25 42 37
75 58 16 10 37 26 46 34 9 8 29 24 43 35 15 11 38 29 51 40 14 11 46 36 72 55
26 19 55 42 64 50 10 8 32 26 49 40 18 14 42 34 54 45 12 11 38 31 56 45 18
14 44 34 56 45 12 11 46 40 75 65 29 25 63 54 75 65 13 11 39 34 59 50 21 17
51 43 69 58 17 16 51 47 76 69 25 22 77 70 116 107 39 36 117 109 173 161 215
200 604 595 887 899 34 36 91 98 127 136 36 39 75 83 88 99 12 16 32 38 43 50
12 12 46 51 76 86 30 35 69 78 85 95 38 40 115 129 152 175 33 42 49 60 83 99
14 15 43 49 65 76 22 26 47 55 55 64 8 9 42 50 74 91 33 41 68 84 78 95 33 35
68 78 145 178 41 53 79 97 84 97 5 0 9 5 9 11 0 6 20 34 45 61 30 34 45 59 45
77 l-1 26 -27 -34 c-48 -61 -186 -194 -277 -266 -20 -16 -42 -35 -49 -40 -27
-25 -159 -117 -181 -127 -14 -6 -25 -14 -25 -18 0 -4 -13 -13 -30 -20 -16 -7
-30 -16 -30 -20 0 -4 -18 -15 -40 -25 -22 -10 -40 -21 -40 -25 0 -4 -15 -13
-32 -21 -18 -7 -35 -16 -38 -19 -9 -11 -253 -130 -267 -130 -7 0 -13 -4 -13
-8 0 -5 -27 -17 -60 -27 -33 -10 -60 -22 -60 -26 0 -4 -22 -13 -50 -20 -27 -7
-50 -16 -50 -20 0 -4 -34 -15 -75 -25 -41 -10 -75 -21 -75 -24 0 -4 -28 -13
-62 -20 -35 -7 -65 -17 -68 -21 -6 -8 -152 -39 -185 -39 -13 0 -25 -4 -27 -9
-3 -9 -101 -28 -303 -57 -127 -18 -406 -37 -555 -37 -145 0 -431 19 -575 38
-199 26 -340 48 -345 54 -3 4 -54 15 -115 25 -60 10 -114 21 -120 26 -5 4 -43
13 -82 20 -40 7 -73 16 -73 20 0 4 -31 12 -68 19 -38 7 -81 18 -95 26 -14 7
-51 19 -82 25 -30 6 -55 15 -55 19 0 4 -27 13 -59 20 -33 7 -71 19 -85 26 -14
7 -51 21 -83 30 -32 9 -63 21 -68 25 -6 5 -32 14 -58 20 -26 7 -47 16 -47 20
0 4 -21 13 -47 19 -27 7 -57 18 -69 26 -11 7 -39 19 -62 26 -23 7 -42 15 -42
19 0 4 -19 12 -42 19 -24 7 -52 18 -63 25 -11 7 -37 18 -57 25 -21 7 -38 16
-38 20 0 4 -25 15 -55 26 -30 10 -55 22 -55 27 0 4 -5 8 -12 8 -13 0 -160 71
-168 81 -3 3 -22 12 -43 18 -20 7 -43 18 -50 24 -6 7 -48 30 -92 51 -44 22
-82 42 -85 46 -3 3 -20 12 -37 19 -18 8 -33 16 -33 20 0 3 -20 14 -45 24 -25
11 -45 23 -45 27 0 4 -11 11 -24 14 -14 3 -31 12 -39 20 -8 8 -29 22 -48 30
-36 17 -107 59 -124 73 -5 4 -22 14 -37 20 -16 7 -28 17 -28 23 0 5 -6 10 -13
10 -11 0 -71 35 -137 80 -8 6 -40 26 -70 45 -30 19 -62 39 -70 45 -8 6 -44 29
-80 52 -36 23 -71 47 -78 54 -6 7 -21 16 -32 19 -11 3 -20 10 -20 13 0 4 -16
16 -35 26 -19 11 -35 22 -35 26 0 4 -13 13 -30 20 -16 7 -30 16 -30 21 0 4 -8
10 -18 13 -10 4 -27 14 -38 24 -10 9 -29 24 -41 32 -98 68 -150 105 -159 114
-6 6 -46 36 -88 66 -43 30 -88 64 -101 75 -13 11 -36 29 -51 40 -14 11 -37 30
-51 43 -14 12 -29 22 -32 22 -3 0 -18 10 -33 23 -14 12 -40 33 -58 47 -17 14
-43 35 -57 48 -14 12 -29 22 -32 22 -3 0 -28 21 -55 45 -27 25 -52 45 -55 45
-3 0 -28 20 -56 44 -27 25 -63 55 -78 68 -16 13 -39 32 -52 43 -13 11 -40 34
-60 50 -21 17 -47 39 -60 50 -12 11 -46 40 -76 65 -29 25 -64 56 -78 69 -14
13 -50 44 -80 70 -29 25 -73 64 -97 86 -23 22 -69 63 -100 90 -32 28 -65 57
-74 65 -9 8 -38 32 -65 52 -28 21 -57 43 -65 51 -8 7 -39 29 -67 47 -29 18
-53 36 -53 40 0 3 -16 14 -36 23 -19 10 -40 22 -47 28 -7 5 -37 25 -67 44 -30
19 -59 38 -65 42 -5 5 -29 17 -52 27 -24 11 -43 22 -43 26 0 5 -11 11 -24 14
-14 3 -31 12 -38 19 -7 7 -34 22 -61 32 -26 10 -47 21 -47 25 0 4 -18 13 -40
20 -22 7 -40 17 -40 21 0 4 -17 13 -37 20 -37 12 -112 46 -165 75 -14 8 -32
14 -40 14 -8 0 -31 9 -53 20 -21 11 -63 27 -94 36 -31 9 -60 19 -66 24 -5 4
-35 13 -65 20 -30 7 -57 16 -60 20 -3 3 -43 14 -90 24 -47 9 -94 21 -105 26
-89 39 -528 52 -680 21z"/>
</g>
</svg>
