<?xml version="1.0" encoding="utf-8"?>
<!-- Svg Vector Icons : http://www.onlinewebfonts.com/icon -->
<!DOCTYPE svg PUBLIC "-//W3C//DTD SVG 1.1//EN" "http://www.w3.org/Graphics/SVG/1.1/DTD/svg11.dtd">
<svg version="1.1" xmlns="http://www.w3.org/2000/svg" xmlns:xlink="http://www.w3.org/1999/xlink" x="0px" y="0px" viewBox="0 0 1000 1000" enable-background="new 0 0 1000 1000" xml:space="preserve">
<metadata> Svg Vector Icons : http://www.onlinewebfonts.com/icon </metadata>
<g><path d="M848.4,239.7c7.1,0,12.9-6.9,12.9-15.3v-51c0-27.7-19-50.2-42.2-50.2h-69.3l-15.8-55.4c-2.2-7.8-9.3-12.2-16-9.7L342.7,193.6c-6.8,2.5-10.7,11-8.6,19.1c1.7,6.6,6.8,10.8,12.4,10.8c1.2,0,2.5-0.2,3.8-0.6L713.5,91.7l34.6,121.4c2.3,8,9.7,12.4,16.4,9.6c6.8-2.7,10.4-11.4,8.1-19.4l-14.1-49.5h60.6c9.1,0,16.5,8.8,16.5,19.5v51C835.5,232.9,841.3,239.7,848.4,239.7z M951.3,469.4c-7.1,0-12.9,6.9-12.9,15.3c0,8.5,5.8,15.3,12.9,15.3c9.1,0,12.9,4.6,12.9,15.3v183.8c0,10.8-3.8,15.3-12.9,15.3H745c-9.1,0-12.9-4.6-12.9-15.3V546c0-10.8,3.8-15.3,12.9-15.3h154.7c7.1,0,12.9-6.9,12.9-15.3V331.6c0-27.9-15.2-45.9-38.7-45.9H87.4c-31.8,0-51.6-23.5-51.6-61.3s19.8-61.3,51.6-61.3h130.9l-78,30.6c-6.8,2.6-10.4,11.3-8.2,19.3c1.8,6.4,6.8,10.5,12.3,10.5c1.3,0,2.7-0.2,4-0.8L615.6,39.9c6.8-2.7,10.4-11.3,8.2-19.4c-2.2-8-9.5-12.4-16.3-9.7L295.4,133c-0.6-0.1-1.1-0.4-1.8-0.4H87.4c-46.3,0-77.4,36.9-77.4,91.9v673.8c0,54.9,31.1,91.9,77.4,91.9h786.6c23.5,0,38.7-18,38.7-45.9V791c0-8.5-5.8-15.3-12.9-15.3s-12.9,6.9-12.9,15.3v153.1c0,10.8-3.8,15.3-12.9,15.3H87.4c-31.8,0-51.6-23.5-51.6-61.3V295.2c13.2,13.3,30.7,21.1,51.6,21.1h786.6c9.1,0,12.9,4.6,12.9,15.3V500H745c-23.5,0-38.7,18-38.7,45.9v153.1c0,27.9,15.2,45.9,38.7,45.9h206.3c23.5,0,38.7-18,38.7-45.9V515.3C990,487.4,974.8,469.4,951.3,469.4z M809.5,622.5c0,16.9,11.6,30.6,25.8,30.6c14.2,0,25.8-13.7,25.8-30.6c0-16.9-11.6-30.6-25.8-30.6C821,591.9,809.5,605.6,809.5,622.5z"/></g>
</svg>