<?xml version="1.0" encoding="utf-8"?>
<!-- Svg Vector Icons : http://www.onlinewebfonts.com/icon -->
<!DOCTYPE svg PUBLIC "-//W3C//DTD SVG 1.1//EN" "http://www.w3.org/Graphics/SVG/1.1/DTD/svg11.dtd">
<svg version="1.1" xmlns="http://www.w3.org/2000/svg" xmlns:xlink="http://www.w3.org/1999/xlink" x="0px" y="0px" viewBox="0 0 1000 1000" enable-background="new 0 0 1000 1000" xml:space="preserve">
<metadata> Svg Vector Icons : http://www.onlinewebfonts.com/icon </metadata>
<g>
<g transform="translate(0.000000,511.000000) scale(0.100000,-0.100000)">
<path fill="#EF2B2F" d="M3802.5,4848.6c-89.1-55-217.5-235.8-330.2-455.9c-97-191.3-217.5-348.5-314.4-406.2c-102.2-62.9-262-68.1-568.6-13.1c-458.6,81.2-668.2,36.7-749.4-159.8c-21-49.8-49.8-246.3-65.5-435c-13.1-188.7-31.4-374.7-41.9-411.4c-49.8-217.5-159.8-290.9-623.6-435c-361.6-110.1-469-167.7-526.7-283c-60.3-115.3-34.1-272.5,104.8-628.9c152-385.2,170.3-497.9,99.6-639.4c-31.5-57.6-172.9-214.9-319.7-348.5C160.3,349.5,100,263.1,100,108.5c0-154.6,60.3-241.1,366.8-524c146.7-133.7,288.2-290.9,319.7-348.5c70.7-141.5,52.4-256.8-99.6-642c-141.5-351.1-167.7-508.3-104.8-626.3c57.7-115.3,170.3-175.6,500.5-272.5c332.8-96.9,516.2-180.8,576.5-264.6c62.9-94.3,89.1-220.1,115.3-587c13.1-191.3,41.9-382.6,65.5-437.6c81.2-199.2,296.1-246.3,731.1-162.5c112.7,21,272.5,39.3,353.7,39.3c248.9,0,353.7-94.3,597.4-542.4c290.9-534.5,432.3-550.3,1045.5-112.7c102.2,70.8,238.5,146.7,309.2,167.7c165.1,52.4,309.2,7.9,555.5-167.7c628.9-448.1,738.9-429.7,1079.6,172.9c157.2,277.8,248.9,393,366.8,453.3c78.6,39.3,306.6,36.7,550.3-10.5c429.7-83.9,649.8-34.1,731.1,159.8c21,49.8,49.8,246.3,65.5,437.6c26.2,374.7,52.4,497.9,115.3,589.6c60.3,83.8,243.7,167.7,576.5,264.6c589.6,173,639.4,285.6,395.7,901.4C9163.7-1031.4,9142.7-903,9205.6-772c26.2,52.4,167.7,209.6,319.7,348.5C9842.3-130,9900-46.1,9900,108.5c0,154.6-60.3,241.1-366.8,524.1c-146.7,133.6-288.2,290.9-319.7,348.5c-70.8,141.5-55,251.6,99.6,642c138.9,361.6,165.1,511,104.8,626.3c-57.6,115.3-167.7,172.9-521.4,280.4c-605.3,183.4-626.3,209.6-670.8,843.7c-36.7,516.2-96.9,615.8-382.6,634.1c-91.7,5.2-277.7-7.9-414-31.4c-332.8-55-482.1-55-587,10.5c-97,57.7-217.5,214.9-314.4,406.2c-115.3,222.7-243.7,400.9-332.8,458.6c-167.7,102.2-283,65.5-717.9-230.6l-298.7-201.8H5000h-178.2l-298.7,201.8C4088.1,4916.8,3967.6,4956.1,3802.5,4848.6z M5686.5,2799.5c482.1-125.8,875.2-351.1,1244.7-707.5c374.7-364.2,626.2-791.3,759.9-1297.1c60.3-225.4,68.1-304,68.1-686.5c0-382.6-7.9-461.2-65.5-683.9C7429-1560.7,6669.1-2320.6,5683.9-2585.2c-222.7-57.7-301.3-65.5-683.9-65.5c-382.6,0-461.2,7.9-686.5,68.1c-505.7,133.6-932.8,385.2-1297.1,759.9c-356.4,366.8-576.5,757.3-707.5,1244.6c-62.9,225.3-70.7,304-70.7,686.5c0,382.6,7.9,461.2,70.7,686.5c133.6,505.7,385.2,932.8,759.9,1297.1c421.9,408.8,877.8,644.6,1451.7,754.6C4829.7,2904.4,5361.6,2883.4,5686.5,2799.5z"/>
<path fill="#EF2B2F" d="M6152.9,1334.8c-68.1-18.3-269.9-201.8-820.2-749.4L4607-137.8l-335.4,330.2c-183.4,180.8-359,343.3-390.4,359c-86.5,44.6-272.5,34.1-374.7-21C3328.2,436,3247,181.8,3336.1-6.8c21-44.6,317.1-359,655.1-697L4607-1317l987.9,980c545,539.8,1016.7,1024.5,1050.7,1074.3c125.8,191.3,31.5,479.5-188.7,579.1C6336.4,1371.5,6286.6,1374.1,6152.9,1334.8z"/></g></g>
</svg>