<?xml version="1.0" encoding="utf-8"?>
<!-- Svg Vector Icons : http://www.onlinewebfonts.com/icon -->
<!DOCTYPE svg PUBLIC "-//W3C//DTD SVG 1.1//EN" "http://www.w3.org/Graphics/SVG/1.1/DTD/svg11.dtd">
<svg version="1.1" xmlns="http://www.w3.org/2000/svg" fill="#EF2B2F" xmlns:xlink="http://www.w3.org/1999/xlink" x="0px" y="0px" viewBox="0 0 1000 1000" enable-background="new 0 0 1000 1000" xml:space="preserve">
<metadata> Svg Vector Icons : http://www.onlinewebfonts.com/icon </metadata>
<g><g transform="translate(0.000000,511.000000) scale(0.100000,-0.100000)"><path d="M1425.9,4404.4c-342-73-674.5-332.4-822.4-643.7c-101.9-213.3-128.7-334.4-126.8-564.9c11.5-955,1085.7-1520,1881.2-985.8c417,276.7,620.7,770.5,518.8,1254.8c-73,351.6-330.5,684.1-645.6,835.9C1962,4429.4,1696.8,4463.9,1425.9,4404.4z"/><path d="M3389.7,3238c-42.3-44.2-42.3-50-42.3-855.1c0-445.8-3.8-810.9-7.7-810.9c-3.8,0-124.9,55.7-270.9,124.9l-263.3,124.9l-338.2-1.9h-340.1l-228.7-269c-217.1-255.6-232.5-267.1-261.3-234.4c-17.3,19.2-121.1,140.3-228.7,269C1301,1714.2,1203,1816,1189.5,1812.2c-11.5-3.8-226.7-44.2-474.6-88.4c-247.9-44.2-459.3-86.5-466.9-94.2c-17.3-15.4-69.2-1498.8-71.1-1963.8V-561h199.8h199.8l11.5-59.6c5.8-32.7,11.5-132.6,11.5-221c0-148,3.8-161.4,38.4-161.4c38.4,0,38.4-13.5,38.4-1325.9v-1325.9h-42.3c-23.1,0-151.8-23.1-288.2-51.9l-246-53.8v-224.8v-226.7h217.1c126.8,0,305.5,15.4,436.2,38.4c269,46.1,249.8,46.1,249.8,0c0-36.5,13.5-38.4,269-38.4h269v1364.3v1364.3h153.7h153.7v-1364.3v-1364.3h269c255.6,0,269,1.9,269,38.4c0,46.1-19.2,46.1,249.8,0c130.7-23,309.4-38.4,438.1-38.4h215.2v226.7v224.8l-246,53.8c-136.4,28.8-265.2,51.9-288.2,51.9h-42.3v1318.2c0,1304.7,0,1318.2,38.4,1327.8c21.1,5.8,42.3,28.8,48,51.9c3.8,21.1,26.9,465,50,981.9c23.1,518.8,48,949.3,55.7,956.9c7.7,7.7,107.6-26.9,222.9-80.7l209.4-94.2l5.8-1028l3.8-1030l50-38.4c50-40.4,63.4-40.4,1566.1-40.4h1516.1v-447.7v-445.8l-882-882c-486.2-486.2-887.8-903.1-895.4-928.1c-11.5-51.9,32.7-149.9,76.9-167.2c103.8-38.4,109.5-34.6,916.6,770.5l784,782.1v-714.8v-716.7l50-50c38.4-38.4,59.6-46.1,109.5-36.5c130.7,25,128.8,13.4,128.8,805.1v714.8l784-784c839.7-839.7,824.4-826.3,933.9-741.7c38.4,28.8,50,55.7,50,109.5c0,67.3-40.3,111.5-883.9,955l-883.9,883.9v447.7v445.8h1518h1520l46.1,48l48,46.1V976.3V3188l-48,46.1l-46.1,48H6618H3430.1L3389.7,3238z M9611.8,1053.2V-887.6h-2988h-2988v780.2c0,616.8,5.8,778.2,25,770.5c11.5-5.8,255.6-115.3,538-244c284.4-128.7,520.7-230.6,526.5-224.8c5.8,5.8,3.8,171-3.8,367L4706,916.7l-534.2,253.7l-536.1,255.6v784v784h2988h2988V1053.2z"/><path d="M7511.5,2532.8c-167.2-19.2-307.5-38.4-311.3-42.3c-3.8-3.8,61.5-61.5,146-128.7c82.6-67.3,151.8-132.6,151.8-146c0-34.6-526.5-541.9-730.2-705.2c-413.1-328.6-870.5-584.2-1275.9-716.7c-117.2-36.5-217.1-78.8-226.7-92.2c-26.9-42.3-15.4-88.4,30.8-119.1c44.2-30.7,59.6-26.9,282.5,46.1c618.8,207.5,1206.8,597.6,1806.3,1193.3l282.5,280.5l148-121.1c80.7-67.3,153.7-121.1,163.3-121.1c9.6,0,13.5,28.8,7.7,63.4c-11.5,80.7-65.3,601.5-65.3,628.4C7920.8,2577,7888.1,2575,7511.5,2532.8z"/><path d="M7469.2,1587.3c-5.8-25-7.7-507.3-5.8-1072.2l5.8-1028h221h221V553.5V1620l-215.2,5.8C7484.6,1631.6,7478.8,1629.6,7469.2,1587.3z"/><path d="M6729.4,198.1v-720.6h221h221v720.6v720.6h-221h-221V198.1z"/><path d="M6012.7,463.2c-7.7-5.8-13.5-230.6-13.5-499.6v-486.2h221h221v488.1c0,426.6-3.8,490-30.7,499.6C6370.1,480.5,6028,480.5,6012.7,463.2z"/><path d="M5259.4,105.8c-5.8-13.5-7.7-157.6-5.8-320.9l5.8-297.8h221h221v317.1v317.1l-217.1,5.8C5319,130.8,5265.2,127,5259.4,105.8z"/></g></g>
</svg>
