<svg xmlns="http://www.w3.org/2000/svg" viewBox="0 0 159.02 45.83"><defs><style>.cls-1{fill:#fff;stroke:#fff;stroke-miterlimit:10;}</style></defs><g id="Layer_2" data-name="Layer 2"><g id="Layer_1-2" data-name="Layer 1"><path class="cls-1" d="M112,10.21a23.32,23.32,0,0,0-20.36,19.7H86.41V10H80V29.91H72.66V10l-3.42.23a23.34,23.34,0,0,0-20.36,19.7h-5.7V10.43H36.77v19.5H7.62c2.8-12,12.94-13.21,14.26-13.32l-.45-6.4c-.21,0-20.36,1.68-20.92,25.42H115.43V10ZM66.25,29.91H55.44c1.9-8.16,7.2-11.33,10.81-12.55Zm42.77,0H98.2c1.91-8.16,7.21-11.32,10.82-12.55Z"/><rect class="cls-1" x="72.23" y="37.85" width="7.48" height="7.48"/><rect class="cls-1" x="80.48" y="37.85" width="7.48" height="7.48"/><rect class="cls-1" x="17.93" y="19.52" width="7.48" height="7.48"/><rect class="cls-1" x="26.18" y="19.52" width="7.48" height="7.48"/><rect class="cls-1" x="99.04" y="0.5" width="7.48" height="7.48"/><rect class="cls-1" x="107.29" y="0.5" width="7.48" height="7.48"/><path class="cls-1" d="M152.11,10V29.91h-7.33V10l-3.43.23c-.21,0-20.35,1.68-20.91,25.42h11.83v-6.3h-4.56c2-7.73,7.13-10.79,10.65-12V35.63h20.16V10Z"/><rect class="cls-1" x="148.24" y="37.85" width="7.48" height="7.48"/></g></g></svg>