<?xml version="1.0" encoding="utf-8"?>
<!-- Svg Vector Icons : http://www.onlinewebfonts.com/icon -->
<!DOCTYPE svg PUBLIC "-//W3C//DTD SVG 1.1//EN" "http://www.w3.org/Graphics/SVG/1.1/DTD/svg11.dtd">
<svg version="1.1" xmlns="http://www.w3.org/2000/svg" xmlns:xlink="http://www.w3.org/1999/xlink" x="0px" y="0px" viewBox="0 0 1000 1000" enable-background="new 0 0 1000 1000" xml:space="preserve">
<metadata> Svg Vector Icons : http://www.onlinewebfonts.com/icon </metadata>
<g><g transform="translate(0.000000,511.000000) scale(0.100000,-0.100000)">
<path fill="#EF2B2F" d="M8237.7,4785.8c-73.8-30.7-303.3-143.5-512.4-250C6907.5,4115.6,6325.5,3925,4968.7,3636c-1147.7-245.9-1514.6-375.1-1760.5-625.1c-84-84-168.1-225.4-416.1-688.7c-368.9-694.8-518.5-989.9-600.5-1196.9c-34.8-86.1-61.5-159.9-61.5-164c0-6.2,348.4-10.3,774.7-8.2h772.7l84,106.6c110.7,141.4,278.7,393.5,334.1,502.1c24.6,47.1,53.3,86.1,65.6,86.1c92.2,0,463.2,53.3,662,94.3l241.8,51.2l178.3-170.1c96.4-94.3,178.3-180.4,182.4-192.7c8.2-34.8-219.3-330-346.4-450.9c-172.2-161.9-334.1-260.3-803.4-489.8C3386.4,53.4,3058.5-211,2831-666c-88.1-176.3-94.3-202.9-94.3-338.2c4.1-194.7,65.6-352.5,184.5-471.4c209-209.1,512.4-237.7,1053.5-96.3c686.6,178.3,907.9,280.8,1578.1,735.8c342.3,229.6,409.9,262.3,670.2,311.5c713.2,137.3,881.3,182.4,1223.6,321.8c319.7,129.1,491.9,235.7,670.2,414c137.3,139.4,170.1,190.6,301.3,453c252.1,512.4,547.2,907.9,846.5,1139.5c65.6,49.2,198.8,137.3,299.2,194.7c299.2,172.2,336.1,227.5,336.1,498c2.1,192.7-24.6,352.5-92.2,580c-231.6,762.4-737.8,1537.2-1129.3,1727.8C8555.4,4863.7,8401.7,4857.6,8237.7,4785.8z"/>
<path fill="#EF2B2F" d="M920.8,600.6C746.6,572,527.3,457.2,396.2,328.1C262.9,192.8,152.3-24.5,121.5-217.1c-28.7-180.4-28.7-3385.8,0-3566.2c67.6-420.2,399.7-752.2,819.8-819.8c182.4-28.7,6007.2-28.7,6189.6,0c420.2,67.6,752.2,399.7,819.8,819.8c12.3,84,20.5,750.1,20.5,1779v1645.8l-59.4-43c-51.2-34.9-420.2-200.9-559.5-252.1c-34.9-12.3-36.9-71.7-36.9-844.4v-830.1H4036.1H756.9v1026.8c0,1135.5-2,1119.1,131.2,1213.3c63.5,45.1,67.6,45.1,1024.8,51.2l961.2,6.1l125,114.8c133.2,125,360.7,276.7,631.3,428.3c94.3,51.2,172.2,96.3,178.3,102.5C3827.1,631.4,1031.5,619.1,920.8,600.6z M7311.3-3541.5c-6.1-200.8-12.3-239.8-51.2-295.1c-100.4-141.4,139.4-131.2-3223.9-131.2c-3363.3,0-3123.5-10.3-3223.9,131.2c-38.9,55.3-45.1,94.3-51.2,295.1l-8.2,229.6h3283.4h3283.4L7311.3-3541.5z"/></g></g>
</svg>