<?xml version="1.0" encoding="utf-8"?>
<!-- Svg Vector Icons : http://www.onlinewebfonts.com/icon -->
<!DOCTYPE svg PUBLIC "-//W3C//DTD SVG 1.1//EN" "http://www.w3.org/Graphics/SVG/1.1/DTD/svg11.dtd">
<svg version="1.1" xmlns="http://www.w3.org/2000/svg" fill="#EF2B2F" xmlns:xlink="http://www.w3.org/1999/xlink" x="0px" y="0px" viewBox="0 0 1000 1000" enable-background="new 0 0 1000 1000" xml:space="preserve">
<metadata> Svg Vector Icons : http://www.onlinewebfonts.com/icon </metadata>
<g><path d="M175.4,719c-29.3,0-53.2,23.8-53.2,53.1c0,29.4,23.9,53.2,53.2,53.2c29.4,0,53.3-23.9,53.3-53.2C228.7,742.8,204.8,719,175.4,719z M175.4,798.5c-14.5,0-26.4-11.8-26.4-26.4c0-14.5,11.8-26.3,26.4-26.3c14.6,0,26.4,11.8,26.4,26.3C201.8,786.6,190,798.5,175.4,798.5z"/><path d="M735,723.5c-29.3,0-53.2,23.8-53.2,53.1c0,29.4,23.9,53.2,53.2,53.2c29.4,0,53.2-23.8,53.2-53.2C788.2,747.4,764.3,723.5,735,723.5z M735,803c-14.5,0-26.3-11.8-26.3-26.4c0-14.5,11.8-26.3,26.3-26.3c14.6,0,26.4,11.8,26.4,26.3C761.4,791.2,749.5,803,735,803z"/><path d="M765.9,594.8c-136.5,0-247.6-111.1-247.6-247.6c0-20.2,2.7-40.9,8.2-61.7l4.4-16.8H383.6l-0.1,120.6h-126c-60,0-113.6,68.8-160.9,129.5c-14.8,18.9-28.7,36.9-41.3,50.6l-1.4,1.7C-11.2,670,15,774.2,16.2,778.5l2.6,10h53.9c7.9,49.6,50.9,87.7,102.7,87.7c51.8,0,94.8-38.1,102.7-87.7h105h16.6h231.9c5.9,51.8,50,92.2,103.4,92.2c53.4,0,97.5-40.4,103.4-92.2h90.5V676.2h29.4V505.5l-22.6,21.4C889.3,570.7,829,594.8,765.9,594.8z M253.3,417.1h119.2v134.2H110.1C152.8,492.4,218.8,417.1,253.3,417.1z M175.4,849.4c-39.2,0-71.2-29.4-76.2-67.2v-7.1c0-43.3,35.2-78.4,78.5-78.4c15.8,0,30.5,4.8,42.9,12.9c19.4,14.1,32.2,36.8,32.2,62.5C252.7,814.7,218,849.4,175.4,849.4z M282,761.7c-3.5-27.6-18-51.6-38.6-68.3c-18.3-15.8-42-25.5-68-25.5c-53.9,0-98.4,41.2-103.6,93.7H40.2c-4.4-26.9-11.2-103.3,35.6-175c2.5-2.7,5-5.6,7.5-8.5h289.2v172l0.3,11.6L282,761.7L282,761.7z M735,853.9c-42.6,0-77.2-34.7-77.2-77.3c0-42.6,34.6-77.3,77.2-77.3c42.2,0,76.5,34,77.2,76v2.6C811.5,819.9,777.2,853.9,735,853.9z M931.5,649.3h-69.3V733h39.9v28.7h-64c-0.1-1.1-0.5-2.1-0.7-3.2c-0.5-2.8-1.1-5.7-1.9-8.4c-11.3-45.9-52.5-80.2-101.8-80.2c-53.5,0-97.8,40.1-104.4,91.8H409.9l0.5-466.2h86.2c-3.4,17.4-5.2,34.7-5.2,51.6c0,151.3,123.1,274.5,274.5,274.5c60.2,0,118-19.7,165.6-56L931.5,649.3L931.5,649.3z"/><path d="M762.7,573.8c125.3,0,227.3-102,227.3-227.3c0-125.3-101.9-227.3-227.3-227.3c-125.3,0-227.3,102-227.3,227.3C535.5,471.8,637.4,573.8,762.7,573.8z M762.7,149.7c108.5,0,196.8,88.2,196.8,196.8c0,108.5-88.3,196.8-196.8,196.8c-108.5,0-196.8-88.3-196.8-196.8C565.9,237.9,654.2,149.7,762.7,149.7z"/><path d="M750.4,376.3c3.4,3.4,7.9,5.1,12.3,5.1c4.5,0,8.9-1.7,12.4-5.1l0,0l105-105c6.8-6.8,6.8-17.9,0-24.7c-6.8-6.8-17.8-6.8-24.7,0l-92.7,92.6l-92.6-92.6c-6.8-6.8-17.9-6.8-24.7,0c-6.8,6.8-6.8,17.9,0,24.7L750.4,376.3z"/></g>
</svg>
