<?xml version="1.0" encoding="utf-8"?>
<!-- Svg Vector Icons : http://www.onlinewebfonts.com/icon -->
<!DOCTYPE svg PUBLIC "-//W3C//DTD SVG 1.1//EN" "http://www.w3.org/Graphics/SVG/1.1/DTD/svg11.dtd">
<svg version="1.1" xmlns="http://www.w3.org/2000/svg" fill="#EF2B2F" xmlns:xlink="http://www.w3.org/1999/xlink" x="0px" y="0px" viewBox="0 0 1000 1000" enable-background="new 0 0 1000 1000" xml:space="preserve">
<metadata> Svg Vector Icons : http://www.onlinewebfonts.com/icon </metadata>
<g><path d="M300.3,628.5c-47.7,0-86.3,38.7-86.3,86.2c0,47.7,38.7,86.3,86.3,86.3c47.5,0,86.2-38.7,86.2-86.3C386.5,667.2,347.8,628.5,300.3,628.5z M300.3,758c-23.8,0-43.2-19.4-43.2-43.2c0-23.7,19.4-43.1,43.2-43.1c23.7,0,43.1,19.4,43.1,43.1C343.4,738.6,324,758,300.3,758z M226,628.6H32.8c-7.7,0-13.9,6.2-13.9,13.9v42c0,7.7,6.2,13.9,13.9,13.9h154.9C191.7,670.6,205.7,646.1,226,628.6z M751.4,628.5c-47.5,0-86.2,38.7-86.2,86.2c0,47.7,38.7,86.3,86.2,86.3c47.7,0,86.2-38.7,86.2-86.3C837.6,667.2,799,628.5,751.4,628.5z M751.4,758c-23.8,0-43.1-19.4-43.1-43.2c0-23.7,19.3-43.1,43.1-43.1c23.8,0,43.1,19.4,43.1,43.1C794.5,738.6,775.2,758,751.4,758z M976.1,628.5h-33.7V440.2c0-22-6.7-43.7-19-61.9l-84.4-125c-20.5-30.5-55-48.8-91.9-48.8H616.4c-15.2,0-27.7,12.3-27.7,27.7v396.3H374.6c20.2,17.6,34.2,42,38.2,69.8h226c7.9-55,55.3-97.6,112.5-97.6c57.2,0,104.6,42.5,112.7,97.6h112.1c7.8,0,13.9-6.2,13.9-13.9v-42.1C990,634.8,983.9,628.5,976.1,628.5z M838.1,403.2H665.5c-7.6,0-13.9-6.1-13.9-13.9v-95.8c0-7.6,6.2-13.9,13.9-13.9h105.2c4.6,0,8.9,2.2,11.4,5.8l67.5,95.9C856,390.6,849.3,403.2,838.1,403.2z M522.7,600.8h-485c-15.3,0-27.7-12.4-27.7-27.7V448.4c0-15.3,12.4-27.7,27.7-27.7h485c15.3,0,27.7,12.4,27.7,27.7v124.7C550.4,588.4,538,600.8,522.7,600.8z M231.7,379.1h-194c-15.3,0-27.7-12.4-27.7-27.7V226.7c0-15.3,12.4-27.7,27.7-27.7h194c15.3,0,27.7,12.4,27.7,27.7v124.7C259.4,366.7,247,379.1,231.7,379.1z M522.7,379.1h-194c-15.3,0-27.7-12.4-27.7-27.7V226.7c0-15.3,12.4-27.7,27.7-27.7h194c15.3,0,27.7,12.4,27.7,27.7v124.7C550.4,366.7,538,379.1,522.7,379.1z"/></g>
</svg>
