<?xml version="1.0" encoding="utf-8"?>
<!-- Svg Vector Icons : http://www.onlinewebfonts.com/icon -->
<!DOCTYPE svg PUBLIC "-//W3C//DTD SVG 1.1//EN" "http://www.w3.org/Graphics/SVG/1.1/DTD/svg11.dtd">
<svg version="1.1" xmlns="http://www.w3.org/2000/svg" fill="#EF2B2F" xmlns:xlink="http://www.w3.org/1999/xlink" x="0px" y="0px" viewBox="0 0 1000 1000" enable-background="new 0 0 1000 1000" xml:space="preserve">
<metadata> Svg Vector Icons : http://www.onlinewebfonts.com/icon </metadata>
<g><path d="M885.8,963.3c0,15.3-12.4,27.6-27.6,27.6H655.9c-0.2,0-0.3,0-0.5,0c-0.2,0-0.3,0-0.5,0H414.4c-0.3,0-0.7,0-1,0H172.9c-0.3,0-0.7,0-1,0H37.6c-15.3,0-27.6-12.4-27.6-27.6c0-15.3,12.4-27.6,27.6-27.6h107.1V219.5c0-15.3,12.4-27.6,27.6-27.6c15.3,0,27.6,12.4,27.6,27.6v716.1h186.2V461.1c0-15.3,12.4-27.6,27.6-27.6s27.6,12.4,27.6,27.6v474.5h186.2V654.4c0-15.3,12.4-27.6,27.6-27.6c15.3,0,27.6,12.4,27.6,27.6v281.2h175.1C873.4,935.7,885.8,948,885.8,963.3z M962.4,522.1c-15.3,0-27.6,12.4-27.6,27.6v75.5l-608-608c-5.5-5.5-12.9-8.3-20.1-8.1h-269C22.4,9.1,10,21.4,10,36.7C10,52,22.4,64.3,37.6,64.3h258.1l599.9,599.9h-75.5c-15.3,0-27.6,12.4-27.6,27.6c0,15.3,12.4,27.6,27.6,27.6h142.2c9,0,16.9-4.3,22-10.9c1.1-1.5,2.1-3.1,2.9-4.7c1.8-3.6,2.8-7.7,2.8-12.1v0V549.7C990,534.4,977.6,522.1,962.4,522.1z"/><g></g><g></g><g></g><g></g><g></g><g></g><g></g><g></g><g></g><g></g><g></g><g></g><g></g><g></g><g></g></g>
</svg>
