<?xml version="1.0" encoding="utf-8"?>
<!-- Svg Vector Icons : http://www.onlinewebfonts.com/icon -->
<!DOCTYPE svg PUBLIC "-//W3C//DTD SVG 1.1//EN" "http://www.w3.org/Graphics/SVG/1.1/DTD/svg11.dtd">
<svg version="1.1" xmlns="http://www.w3.org/2000/svg" xmlns:xlink="http://www.w3.org/1999/xlink" x="0px" y="0px" viewBox="0 0 1000 1000" enable-background="new 0 0 1000 1000" xml:space="preserve">
<metadata> Svg Vector Icons : http://www.onlinewebfonts.com/icon </metadata>
<g>
<path fill="#EF2B2F" d="M10,576.9h166.7v95.4H10V576.9z M208.4,576.9h166.7v95.4H208.4V576.9z M39,918.1h137.7V691.8H39V918.1z M208.4,918.1h137.7V691.8H208.4V918.1z"/>
<path fill="#EF2B2F" d="M115.7,462.8c0-120.6,48.8-230.1,128.2-309.1c79-79.4,188.4-128.2,309-128.2c120.9,0,230,48.9,309,128.2c79.3,79,128.2,188.5,128.2,309.1c0,120.6-48.8,230.1-128.2,309.1c-79,79.4-188.1,128.2-309,128.2h-0.8h0.8v-73.3l0,0c100.7,0,191.5-40.8,257.5-106.9c65.6-65.6,106.4-156.9,106.4-257.2c0-100.4-40.8-191.6-106.4-257.6c-66-65.6-156.8-106.5-257.5-106.5c-100.3,0-191.5,40.8-257.1,106.5c-66,66-106.8,157.2-106.8,257.6H115.7z"/>
<path fill="#EF2B2F" d="M451.4,375.8v-58.4h215.9v45.8c-33.9,33.6-60.6,77.5-80.5,131.3c-19.8,53.8-29.8,103-29.8,148.1h-61c3.4-96.6,36.2-185.5,98.8-266.8H451.4z"/>
<path fill="#EF2B2F" d="M821,452.5h67.5v20.6H821V452.5z"/>
<path fill="#EF2B2F" d="M542.5,126.9h20.6v67.6h-20.6V126.9z"/>
<path fill="#EF2B2F" d="M749.7,280.3l-14.5-14.5l47.7-48.1l14.9,14.9L749.7,280.3z"/>
<path fill="#EF2B2F" d="M307.9,232.6l14.9-14.9l47.7,48.1L356,280.3L307.9,232.6z"/>
<path fill="#EF2B2F" d="M735.2,659.7l14.5-14.5l48.1,47.7l-14.9,14.9L735.2,659.7z"/>
<path fill="#EF2B2F" d="M563.9,757v108.8v108.8L454,865.8L563.9,757z"/>
<path fill="#EF2B2F" d="M602.8,551.7h33.6c9.5,0,17.1,1.2,22.9,3.8c6.1,2.7,10.7,7.6,14.5,14.9c3.4,7.3,5.4,16.4,5.4,27.5c0,29.4-13.7,44.3-41.6,44.3h-34.7V551.7z M621.1,567v59.9h13.7c9.5,0,16-1.9,19.5-6.1c3.8-3.8,5.7-11.8,5.7-24.1c0-8.8-1.1-15.3-3.4-19.8c-2.3-4.2-5.3-6.9-8.8-8c-3.4-1.5-9.5-1.9-18.3-1.9H621.1z"/>
</g>
</svg>