<?xml version="1.0" standalone="no"?>
<!DOCTYPE svg PUBLIC "-//W3C//DTD SVG 20010904//EN"
 "http://www.w3.org/TR/2001/REC-SVG-20010904/DTD/svg10.dtd">
<svg version="1.0" xmlns="http://www.w3.org/2000/svg"
 width="100.000000pt" height="100.000000pt" viewBox="0 0 100.000000 100.000000"
 preserveAspectRatio="xMidYMid meet">

<g transform="translate(0.000000,100.000000) scale(0.100000,-0.100000)"
fill="#000000" stroke="none">
<path d="M154 835 c-9 -23 5 -35 41 -35 25 0 39 -6 49 -22 8 -13 26 -109 42
-223 28 -212 28 -212 18 -263 -6 -32 -6 -32 35 -32 43 0 51 -9 26 -30 -19 -16
-19 -44 1 -64 34 -34 90 -5 81 42 -9 49 -2 52 109 52 102 0 119 -5 89 -30 -19
-16 -19 -44 1 -64 34 -34 90 -5 81 42 -6 32 1 52 19 52 8 0 14 5 14 10 0 6
-80 10 -220 10 -236 0 -241 1 -202 49 16 21 33 23 232 37 118 8 216 16 217 18
2 2 63 283 63 291 0 3 -94 5 -210 5 l-210 0 0 40 c0 47 -14 82 -40 98 -11 6
-59 16 -107 22 -115 13 -123 13 -129 -5z m66 -10 c0 -10 -10 -15 -30 -15 -20
0 -30 5 -30 15 0 10 10 15 30 15 20 0 30 -5 30 -15z m132 -15 c44 -13 58 -34
58 -89 l0 -41 -59 0 c-63 0 -71 7 -71 68 0 13 -11 34 -25 47 l-24 25 42 0 c23
0 59 -5 79 -10z m449 -274 c-14 -68 -29 -127 -32 -130 -7 -7 -430 -38 -436
-32 -2 2 -10 50 -18 107 -8 57 -17 121 -20 142 l-5 37 269 0 269 0 -27 -124z
m-361 -284 c0 -13 -30 -52 -41 -52 -5 0 -9 14 -9 30 0 25 4 30 25 30 14 0 25
-3 25 -8z m280 0 c0 -13 -30 -52 -41 -52 -5 0 -9 14 -9 30 0 25 4 30 25 30 14
0 25 -3 25 -8z m-326 -62 c6 0 17 5 24 12 16 16 29 1 16 -20 -25 -38 -87 -7
-69 34 8 18 9 17 12 -3 3 -13 10 -23 17 -23z m280 0 c6 0 17 5 24 12 16 16 29
1 16 -20 -25 -38 -87 -7 -69 34 8 18 9 17 12 -3 3 -13 10 -23 17 -23z"/>
<path d="M500 575 l-34 -35 37 -37 c40 -41 65 -38 26 3 l-24 25 55 -3 55 -3 3
-42 c4 -54 22 -57 22 -4 0 54 -20 71 -82 71 l-51 0 21 23 c12 13 22 26 22 30
0 15 -18 5 -50 -28z"/>
</g>
</svg>
