<?xml version="1.0" encoding="utf-8"?>
<!-- Svg Vector Icons : http://www.onlinewebfonts.com/icon -->
<!DOCTYPE svg PUBLIC "-//W3C//DTD SVG 1.1//EN" "http://www.w3.org/Graphics/SVG/1.1/DTD/svg11.dtd">
<svg version="1.1" xmlns="http://www.w3.org/2000/svg" fill="#EF2B2F" xmlns:xlink="http://www.w3.org/1999/xlink" x="0px" y="0px" viewBox="0 0 1000 1000" enable-background="new 0 0 1000 1000" xml:space="preserve">
<metadata> Svg Vector Icons : http://www.onlinewebfonts.com/icon </metadata>
<g><g transform="translate(0.000000,511.000000) scale(0.100000,-0.100000)"><path d="M691.8,4276c0-76.9-3.8-222.9-3.8-322.8l-1.9-182.5l-292.1-5.8l-294-5.8v-420.8v-420.8l294-5.8l292.1-5.8l3.8-3458.8c1.9-1902.4,3.8-3499.2,3.8-3549.1l1.9-92.2h749.4h749.4v3554.9v3554.9h672.5h672.5v-192.2v-192.2h288.2h288.2v192.2v192.2h1950.4h1950.4v-192.2v-192.2h288.2h288.2v192.2v192.2h384.3H9362v422.7V3761h-384.3h-384.3v192.2v192.2h-288.2h-288.2v-192.2V3761H6066.5H4116.1v192.2v192.2h-288.2h-288.2v-192.2V3761h-672.5h-672.5v326.7v326.7h-749.4H695.7L691.8,4276z"/><path d="M2771,340.6v-2056.1h3564.5H9900V340.6v2056.1H6335.5H2771V340.6z M4650.3,1003.5c44.2-19.2,111.5-67.3,146-109.5c61.5-71.1,124.9-234.4,101.8-259.4c-7.7-5.8-71.1-15.4-144.1-21.1l-134.5-9.6l-23.1,71.1c-15.4,46.1-42.3,80.7-82.6,101.8c-78.8,40.3-238.3,38.4-317.1-1.9c-51.9-26.9-61.5-42.3-61.5-98c0-82.6,28.8-98,313.2-180.6c232.5-67.3,330.5-111.5,392-178.7c144.1-153.7,130.7-430.4-25-576.5c-103.8-98-226.7-136.4-430.4-136.4c-280.6,0-436.2,82.6-530.4,284.4c-61.5,128.8-61.5,201.8,0,201.8c25,0,82.6,5.8,128.8,11.5l84.5,11.5l42.3-98c34.6-80.7,55.7-105.7,124.9-136.4c190.2-86.5,418.9-3.8,418.9,153.7c0,84.6-69.2,126.8-307.5,192.2c-121.1,32.7-257.5,80.7-303.6,107.6c-197.9,117.2-249.8,359.3-115.3,551.5c38.4,55.7,155.6,124.9,255.6,149.9C4275.6,1059.3,4558,1040,4650.3,1003.5z M6128,404c140.3-347.8,267.1-662.9,284.4-701.4l28.8-73h-157.6h-159.5l-57.7,153.7l-55.7,153.7h-280.5h-282.5l-51.9-153.7L5342-370.4h-151.8c-84.6,0-151.8,3.8-151.8,7.7c0,5.8,480.4,1245.2,532.3,1372c7.7,15.4,57.7,23.1,157.6,23.1h147.9L6128,404z M8823.9,907.5V782.5h-372.8c-205.6,0-378.5-7.7-384.3-15.4c-5.8-9.6-3.8-78.8,1.9-153.7l11.5-138.4h342h344V359.8V244.5h-344h-342l-11.5-167.2c-5.8-92.2-5.8-178.7,0-192.1c7.7-19.2,92.2-25,392-25h382.4v-115.3v-115.3h-526.5h-526.5l-11.5,73c-11.5,82.6-11.5,1293.2,1.9,1316.3c3.8,7.7,240.2,13.5,526.5,13.5h516.9V907.5z M6883.1,436.7v-576.5H7229h345.9v-115.3v-115.3h-490h-490v691.8v691.8H6739h144.1V436.7z"/><path d="M5632.2,440.5l-86.5-244l171-5.8c94.2-1.9,176.8-1.9,180.6,3.8c7.7,7.7-165.3,491.9-174.9,491.9C5722.5,686.5,5680.2,575,5632.2,440.5z"/></g></g>
</svg>
