<?xml version="1.0" encoding="utf-8"?>
<!-- Svg Vector Icons : http://www.onlinewebfonts.com/icon -->
<!DOCTYPE svg PUBLIC "-//W3C//DTD SVG 1.1//EN" "http://www.w3.org/Graphics/SVG/1.1/DTD/svg11.dtd">
<svg version="1.1" xmlns="http://www.w3.org/2000/svg" fill="#EF2B2F" xmlns:xlink="http://www.w3.org/1999/xlink" x="0px" y="0px" viewBox="0 0 1000 1000" enable-background="new 0 0 1000 1000" xml:space="preserve">
<metadata> Svg Vector Icons : http://www.onlinewebfonts.com/icon </metadata>
<g><path d="M722.3,493.3c41.6-51.2,65.3-116.4,65.3-184.4C787.5,149.6,658.5,20,500,20S212.5,148.7,212.5,306.9c0,67.9,24.2,134.7,65.6,186.5C111.1,576,10,739.8,10,935.4C10,960,29.9,980,54.5,980c24.6,0,44.5-20,44.5-44.5c0-180.5,104.6-327.9,272.9-384.6l81.9-27.6l-70-50.7c-50.8-36.8-82.4-100.3-82.4-165.6c0-109,89-197.8,198.5-197.8c109.4,0,198.5,89.6,198.5,199.8c0,64.9-30.8,125.9-82.3,163.3l-70,50.7l81.9,27.6c168.3,56.7,272.9,204.3,272.9,384.9c0,24.6,19.9,44.5,44.5,44.5c24.6,0,44.5-20,44.5-44.5C990,739.8,889.1,576,722.3,493.3z"/><path d="M428.3,903.9l31.5-31.5l-75.6-75.6c-17.4-17.4-45.6-17.4-63,0c-17.4,17.4-17.4,45.6,0,63l107.1,107.1C410.9,949.5,410.9,921.3,428.3,903.9z"/><path d="M620,712.2L459.8,872.4l31.5,31.5c17.4,17.4,17.4,45.6,0,63L683,775.2c17.4-17.4,17.4-45.6,0-63C665.6,694.8,637.4,694.8,620,712.2z"/><path d="M491.3,903.9l-31.5-31.5l-31.5,31.5c-17.4,17.4-17.4,45.6,0,63c8.7,8.7,20.1,13,31.5,13c11.4,0,22.8-4.3,31.5-13C508.7,949.5,508.7,921.3,491.3,903.9z"/></g>
</svg>
