<svg xmlns="http://www.w3.org/2000/svg" xmlns:xlink="http://www.w3.org/1999/xlink" viewBox="0 0 189.75 235.48"><defs><style>.cls-1{fill:url(#linear-gradient);}.cls-2{fill:url(#linear-gradient-2);}.cls-3{fill:url(#linear-gradient-3);}.cls-4{fill:url(#linear-gradient-4);}.cls-5{fill:url(#linear-gradient-5);}.cls-6{fill:url(#linear-gradient-6);}.cls-7{fill:url(#linear-gradient-7);}.cls-8{fill:url(#linear-gradient-8);}.cls-9{fill:url(#linear-gradient-9);}.cls-10{font-size:15.1px;fill:#3a3737;font-family:Kalameh-Bold, Kalameh;font-weight:700;}.cls-11{fill:#414042;}.cls-12{fill:#be1e2d;}.cls-13{fill:url(#linear-gradient-10);}.cls-14{fill:#58595b;}.cls-15{fill:url(#linear-gradient-11);}</style><linearGradient id="linear-gradient" x1="15.62" y1="175.82" x2="120.08" y2="175.82" gradientUnits="userSpaceOnUse"><stop offset="0" stop-color="#be1e2d"/><stop offset="1" stop-color="#ed1c24"/></linearGradient><linearGradient id="linear-gradient-2" x1="80.81" y1="192.89" x2="87.61" y2="192.89" xlink:href="#linear-gradient"/><linearGradient id="linear-gradient-3" x1="88.31" y1="192.89" x2="95.11" y2="192.89" xlink:href="#linear-gradient"/><linearGradient id="linear-gradient-4" x1="31.45" y1="176.23" x2="38.25" y2="176.23" xlink:href="#linear-gradient"/><linearGradient id="linear-gradient-5" x1="38.95" y1="176.23" x2="45.75" y2="176.23" xlink:href="#linear-gradient"/><linearGradient id="linear-gradient-6" x1="105.18" y1="158.94" x2="111.98" y2="158.94" xlink:href="#linear-gradient"/><linearGradient id="linear-gradient-7" x1="112.67" y1="158.94" x2="119.48" y2="158.94" xlink:href="#linear-gradient"/><linearGradient id="linear-gradient-8" x1="121.14" y1="175.82" x2="155.76" y2="175.82" gradientUnits="userSpaceOnUse"><stop offset="0" stop-color="#58595b"/><stop offset="1" stop-color="#414042"/></linearGradient><linearGradient id="linear-gradient-9" x1="146.41" y1="192.89" x2="153.21" y2="192.89" xlink:href="#linear-gradient-8"/><linearGradient id="linear-gradient-10" x1="165.01" y1="126.68" x2="84.9" y2="61.41" xlink:href="#linear-gradient-8"/><linearGradient id="linear-gradient-11" x1="56.67" y1="151.64" x2="87.68" y2="62.62" xlink:href="#linear-gradient"/></defs><g id="Layer_2" data-name="Layer 2"><g id="Layer_1-2" data-name="Layer 1"><path class="cls-1" d="M117,164.37a21.2,21.2,0,0,0-18.51,17.9H93.69V164.19H87.86v18.08H81.2V164.16l-3.11.21a21.2,21.2,0,0,0-18.5,17.9H54.4v-17.7H48.57v17.72H22.08c2.55-10.9,11.76-12,13-12.1l-.41-5.82c-.19,0-18.5,1.53-19,23.11H120.08V164.16Zm-41.59,17.9H65.54c1.74-7.41,6.55-10.29,9.83-11.4Zm38.87,0h-9.83c1.74-7.41,6.56-10.29,9.83-11.4Z"/><rect class="cls-2" x="80.81" y="189.49" width="6.8" height="6.8"/><rect class="cls-3" x="88.31" y="189.49" width="6.8" height="6.8"/><rect class="cls-4" x="31.45" y="172.83" width="6.8" height="6.8"/><rect class="cls-5" x="38.95" y="172.83" width="6.8" height="6.8"/><rect class="cls-6" x="105.18" y="155.54" width="6.8" height="6.8"/><rect class="cls-7" x="112.67" y="155.54" width="6.8" height="6.8"/><path class="cls-8" d="M149.93,164.19v18.08h-6.67V164.16l-3.11.21c-.19,0-18.5,1.53-19,23.11H131.9v-5.73h-4.15c1.83-7,6.48-9.8,9.68-10.88v16.61h18.33V164.19Z"/><rect class="cls-9" x="146.41" y="189.49" width="6.8" height="6.8"/><text class="cls-10" transform="translate(10.85 229.37) scale(0.83 1)">www.begheymat.com</text></g><g id="Layer_4" data-name="Layer 4"><path class="cls-11" d="M122.39,215.07a2.73,2.73,0,0,0-.18.55,2.84,2.84,0,0,0-.07.66,2.42,2.42,0,0,0,0,.47.91.91,0,0,0,.2.39,1,1,0,0,0,.41.27,2.1,2.1,0,0,0,.69.1h1.8v-1.94a1.9,1.9,0,0,1,2.08-2.09l.58,0,.58,0a.5.5,0,0,1,.38.17.56.56,0,0,1,.15.39v3.43h1v1.1h-1.5a.54.54,0,0,1-.4-.16.53.53,0,0,1-.15-.39v-3.47h-.62a2,2,0,0,0-.47.05.74.74,0,0,0-.3.17.69.69,0,0,0-.15.31,2,2,0,0,0-.05.46V218a.63.63,0,0,1-.15.43.5.5,0,0,1-.41.18h-2.34a3,3,0,0,1-1.15-.2,2.25,2.25,0,0,1-.76-.53,1.94,1.94,0,0,1-.41-.76,2.76,2.76,0,0,1-.13-.86,4,4,0,0,1,.11-.92,4.19,4.19,0,0,1,.26-.78Z"/><path class="cls-11" d="M129.87,218.6v-1.1h1.28v-3.82h1.09v3.82h1.15v1.1Z"/><path class="cls-11" d="M133.28,217.5h1.77v-3.82h1.09V218a.07.07,0,0,1,0,.05.5.5,0,0,1-.16.39.51.51,0,0,1-.39.16h-2.32Z"/><path class="cls-11" d="M137.21,215.21c0-.15,0-.3,0-.45v-.42h1.09s0,.1,0,.21,0,.25,0,.4,0,.31,0,.49,0,.34,0,.49,0,.3,0,.41v.94c0,.08,0,.15,0,.22h.94v1.1h-1.09a5.52,5.52,0,0,1-.38,1.19,3.21,3.21,0,0,1-.64,1,2.82,2.82,0,0,1-1,.67,3.48,3.48,0,0,1-1.32.27v-1.11a2.54,2.54,0,0,0,.92-.2,2,2,0,0,0,.64-.47,2.2,2.2,0,0,0,.42-.69,3.78,3.78,0,0,0,.24-.83,5.64,5.64,0,0,0,.11-.92c0-.32,0-.64,0-.95s0-.45,0-.67S137.22,215.42,137.21,215.21Z"/><path class="cls-11" d="M139.18,218.6v-1.1h1.27v-3.82h1.09v3.82h1.15v1.1Z"/><path class="cls-11" d="M143.87,217.5v-3.82H145v3.8h1.15v1.1H142.6v-1.1Z"/><path class="cls-11" d="M146,217.5h2.09v-3.82h1.09V218a.43.43,0,0,1,0,.05.54.54,0,0,1,0,.22.33.33,0,0,1-.12.17.66.66,0,0,1-.17.12.54.54,0,0,1-.22,0H146Z"/><path class="cls-11" d="M151,218.59h-1.09v-7.34H151Z"/><path class="cls-11" d="M156.9,218.42a6,6,0,0,1-1,.19,8.43,8.43,0,0,1-1,.06h-.51l-.51,0h0l-.46-.08a3,3,0,0,1-.45-.1,1.13,1.13,0,0,1-.34-.2.44.44,0,0,1-.13-.34v-2a2.26,2.26,0,0,1,.19-.94,2.35,2.35,0,0,1,.51-.77,2.36,2.36,0,0,1,1.7-.71h1.68a.67.67,0,0,1,.28.06.73.73,0,0,1,.23.16.63.63,0,0,1,.16.23.72.72,0,0,1,.06.29v3.68a.52.52,0,0,1-.12.34.59.59,0,0,1-.32.19Zm-2-.85q.33,0,.66,0l.65-.09v-2.87h-1.31a1.18,1.18,0,0,0-.5.11,1.34,1.34,0,0,0-.42.28,1.19,1.19,0,0,0-.28.42,1.26,1.26,0,0,0-.11.51v1.55l.39.08.3,0h.61Z"/><path class="cls-11" d="M160.07,218.6h-1.79a.49.49,0,0,1-.38-.16.51.51,0,0,1-.17-.39.43.43,0,0,1,0-.05v-6.75h1.1v6.25h1.23Z"/><path class="cls-11" d="M167.16,217.5h1v1.1h-8.26v-1.1h6.11v-.78a5.08,5.08,0,0,0,0-.61.63.63,0,0,0-.12-.32.46.46,0,0,0-.28-.13l-.5,0h-3.27a1,1,0,0,1-.4-.08.7.7,0,0,1-.28-.19.73.73,0,0,1-.17-.28,1.21,1.21,0,0,1,0-.34,1.6,1.6,0,0,1,.19-.74,3.92,3.92,0,0,1,.84-1.14,5.33,5.33,0,0,1,1.16-.83,5.68,5.68,0,0,1,1.34-.5,6.16,6.16,0,0,1,1.4-.17h.1c0,.21,0,.39,0,.56s0,.35,0,.55a5.2,5.2,0,0,0-1.09.12,5.37,5.37,0,0,0-1.08.39,4.7,4.7,0,0,0-1,.65,3.37,3.37,0,0,0-.72.91h3.45a3.85,3.85,0,0,1,.64.08,1.47,1.47,0,0,1,.46.18,1.1,1.1,0,0,1,.3.34,1.89,1.89,0,0,1,.16.55,5.88,5.88,0,0,1,0,.8Zm-1.25-7.31v.65a8.44,8.44,0,0,0-1.1.13,9,9,0,0,0-1.08.3,8.49,8.49,0,0,0-1.49.8c-.3-.23-.28-.52.07-.88a6.75,6.75,0,0,1,1-.57,5,5,0,0,1,1.13-.31A5.92,5.92,0,0,1,165.91,210.19Z"/><path class="cls-11" d="M168.09,217.5h1.33v-3.82h1.11v3.82h1.66v-3.82h1.09v3.82H175v-3.82H176v4.37a.5.5,0,0,1-.16.39.49.49,0,0,1-.38.16h-7.41Z"/><path class="cls-11" d="M180.36,217.48a3.07,3.07,0,0,1-.46.09q-.33,0-.72.06a7.69,7.69,0,0,1-.83,0,3.76,3.76,0,0,1-.78-.11,1.81,1.81,0,0,1-.58-.24.5.5,0,0,1-.22-.43v-2a2.41,2.41,0,0,1,.18-.93,2.43,2.43,0,0,1,.52-.77,2.51,2.51,0,0,1,.76-.52,2.29,2.29,0,0,1,.94-.19h1.67a.72.72,0,0,1,.29.06.76.76,0,0,1,.23.15.78.78,0,0,1,.16.24.72.72,0,0,1,.06.29c0,.36,0,.74,0,1.14s0,.8,0,1.2,0,.82-.06,1.22a7.2,7.2,0,0,1-.17,1.16,4.92,4.92,0,0,1-.37,1,3.22,3.22,0,0,1-.61.85,3.14,3.14,0,0,1-.93.59,3.83,3.83,0,0,1-1.3.28v-1.1a2.34,2.34,0,0,0,.85-.16,1.83,1.83,0,0,0,.6-.39,2,2,0,0,0,.41-.57,5.67,5.67,0,0,0,.28-.7Zm-1.19-.95.67,0c.22,0,.44-.06.67-.11,0-.22,0-.46,0-.7s0-.51,0-.76,0-.49,0-.73,0-.46,0-.67h-1.32a1.25,1.25,0,0,0-.51.1,1.46,1.46,0,0,0-.41.29,1.22,1.22,0,0,0-.29.42,1.44,1.44,0,0,0-.1.5v1.55l.38.08.31,0,.28,0h.33Z"/><path class="cls-11" d="M182,215.21c0-.15,0-.3,0-.45s0-.29,0-.42H183v.21c0,.12,0,.25,0,.4s0,.31,0,.49,0,.34,0,.49,0,.3,0,.41,0,.2,0,.24a1.7,1.7,0,0,1,0,.22v.48a1.55,1.55,0,0,1,0,.22H184v1.1h-1.08a6.14,6.14,0,0,1-.38,1.19,3.63,3.63,0,0,1-.64,1,2.86,2.86,0,0,1-1,.67,3.48,3.48,0,0,1-1.32.27v-1.11a2.5,2.5,0,0,0,.92-.2,2,2,0,0,0,.64-.47,2.2,2.2,0,0,0,.42-.69,4.44,4.44,0,0,0,.25-.83,9.24,9.24,0,0,0,.11-.92c0-.32,0-.64,0-.95s0-.45,0-.67S182,215.42,182,215.21Z"/><path class="cls-11" d="M184,218.6v-1.1h1.41a3.65,3.65,0,0,1-.28-.75A3,3,0,0,1,185,216a3.09,3.09,0,0,1,.15-.95,2.43,2.43,0,0,1,.45-.82,2.36,2.36,0,0,1,.74-.58,2.32,2.32,0,0,1,1-.22H189a.78.78,0,0,1,.52.23.75.75,0,0,1,.15.24.72.72,0,0,1,.06.29v3.82a.5.5,0,0,1-.16.39.49.49,0,0,1-.38.16Zm2.25-1.92a1.37,1.37,0,0,0,.16.32,1,1,0,0,0,.25.26,1.29,1.29,0,0,0,.33.18,1.31,1.31,0,0,0,.41.06h1.29v-2.92h-1.29a1.26,1.26,0,0,0-.57.12,1.17,1.17,0,0,0-.39.34,1.37,1.37,0,0,0-.23.47,2,2,0,0,0-.08.53,1.84,1.84,0,0,0,0,.33A1.21,1.21,0,0,0,186.21,216.68Zm.53-4.77a1,1,0,0,1,.27-.7,1,1,0,0,1,1.4,1.4,1,1,0,0,1-1.67-.7Zm-17.1-.13a.94.94,0,0,1,.28-.7.9.9,0,0,1,.69-.28,1,1,0,0,1,1,1,.9.9,0,0,1-.28.69.94.94,0,0,1-.7.28,1,1,0,0,1-1-1Zm1.91,0a1,1,0,0,1,.28-.7.94.94,0,0,1,.7-.28,1,1,0,0,1,.7.28,1,1,0,0,1,.28.7.94.94,0,0,1-.28.69,1,1,0,0,1-.7.28,1,1,0,0,1-1-1Zm1.92,0a.94.94,0,0,1,.28-.7.9.9,0,0,1,.69-.28,1,1,0,0,1,1,1,.9.9,0,0,1-.28.69.94.94,0,0,1-.7.28,1,1,0,0,1-1-1Z"/><path class="cls-11" d="M144.89,220.46a1,1,0,0,1,.27-.7,1,1,0,0,1,1.68.7.9.9,0,0,1-.28.69,1,1,0,0,1-1.67-.69Z"/><path class="cls-11" d="M146.84,220.46a1,1,0,0,1,.28-.7,1,1,0,0,1,1.68.7.9.9,0,0,1-.28.69,1,1,0,0,1-1.68-.69Z"/><path class="cls-11" d="M137.32,212a.93.93,0,0,1,.28-.7.91.91,0,0,1,.69-.29,1,1,0,0,1,.7.29,1,1,0,0,1,0,1.39.94.94,0,0,1-.7.28.9.9,0,0,1-.69-.28A.92.92,0,0,1,137.32,212Z"/><path class="cls-11" d="M139.28,212a1,1,0,0,1,1.67-.7,1,1,0,0,1,0,1.39,1,1,0,0,1-1.67-.69Z"/><path class="cls-11" d="M141.89,212a1,1,0,0,1,1.67-.7,1,1,0,0,1,0,1.39,1,1,0,0,1-1.67-.69Z"/><path class="cls-11" d="M133.14,212a1,1,0,1,1,.28.69A.93.93,0,0,1,133.14,212Z"/><path class="cls-11" d="M128.05,212a1,1,0,1,1,.28.69A.93.93,0,0,1,128.05,212Z"/><path class="cls-11" d="M130,212a.93.93,0,0,1,.28-.7A.91.91,0,0,1,131,211a1,1,0,0,1,.7.29,1,1,0,0,1,0,1.39.94.94,0,0,1-.7.28.9.9,0,0,1-.69-.28A.92.92,0,0,1,130,212Z"/></g><g id="Layer_3" data-name="Layer 3"><polygon class="cls-12" points="0 217.5 28.1 217.22 56.2 217.07 84.3 217.01 112.39 217.04 112.1 217.15 124.92 206.36 125.04 206.26 125.2 206.26 152.09 206.41 178.99 206.68 152.09 206.96 125.2 207.11 125.47 207.01 112.69 217.85 112.56 217.96 112.39 217.96 84.3 217.99 56.2 217.93 28.1 217.78 0 217.5"/></g><g id="Layer_2-2" data-name="Layer 2"><polygon class="cls-13" points="154.17 146.48 122.62 30.71 122.62 30.45 65.81 30.45 65.81 30.47 65.79 30.45 46.54 30.45 59.78 43.58 65.98 49.69 65.96 49.71 125.35 108.65 118.63 83.71 79.25 44.01 112.06 44.01 136.2 132.92 100.98 132.92 113.59 146.48 149.15 146.48 149.15 146.48 154.17 146.48"/><circle class="cls-14" cx="100.45" cy="35.63" r="2.54"/><circle class="cls-11" cx="100.45" cy="35.63" r="1.42"/><circle class="cls-14" cx="65.89" cy="35.63" r="2.54"/><circle class="cls-11" cx="65.89" cy="35.63" r="1.42"/><polygon class="cls-15" points="110.45 146.48 49.88 86.11 45.79 101.3 77.57 132.92 32.93 132.92 56.74 45.38 45.66 34.01 15.07 146.48 28.13 146.48 29.24 146.48 91.18 146.48 91.18 146.46 91.2 146.48 110.45 146.48"/><path class="cls-11" d="M99.64,35.76c0-.34-4.21-33.62-17.47-33.62H82c-13.37.3-15.09,33.21-15.11,33.54l-2.14-.1C64.81,34.14,66.59.34,82,0h.22c15.15,0,19.42,34.05,19.6,35.5Z"/></g></g></svg>