<?xml version="1.0" encoding="utf-8"?>
<!-- Svg Vector Icons : http://www.onlinewebfonts.com/icon -->
<!DOCTYPE svg PUBLIC "-//W3C//DTD SVG 1.1//EN" "http://www.w3.org/Graphics/SVG/1.1/DTD/svg11.dtd">
<svg version="1.1" xmlns="http://www.w3.org/2000/svg" fill="#EF2B2F" xmlns:xlink="http://www.w3.org/1999/xlink" x="0px" y="0px" viewBox="0 0 1000 1000" enable-background="new 0 0 1000 1000" xml:space="preserve">
<metadata> Svg Vector Icons : http://www.onlinewebfonts.com/icon </metadata>
<g><path d="M177,225.8h605.9v53.9H177L177,225.8L177,225.8z"/><path d="M813.3,531.5c-20.1,0-40.3-3.3-60.2-10c-43.6-14.6-78.3-46.3-98.1-86.5c-29.9,55.2-88.2,92.1-155.4,92.1c-67.5,0-127.1-38.7-156.8-95.5c-29.9,57.3-89.2,95.5-156.2,95.5c-99,0-176.6-75.7-176.6-172.3c0-2.3,0.4-4.5,1.1-6.7L118.8,49.3c7.3-19.9,26.2-33.1,47.2-33.1h693.5c22.5,0,42.4,15.2,48.4,36.9l81.3,296.6c0.5,1.7,0.7,3.5,0.7,5.2C990,452.3,910.7,531.5,813.3,531.5L813.3,531.5z M676.1,356.9c0.1,57.9,36.1,109.4,89.5,127.3c15.8,5.3,31.9,8,47.7,8c74.8,0,135.8-60.2,137.2-134.7L869.9,63.6c-1.3-4.7-5.6-7.9-10.4-7.9H166.1c-4.5,0-8.6,2.9-10.2,7.1L49.4,358.3c1.8,72.9,61.4,129.5,137.1,129.5c71.3,0,131.4-55.6,136.8-126.6c-0.3-1.5-0.5-6-0.5-10.6c0-10.9,8.8-19.7,19.7-19.7c10.9,0,20.6,8.8,20.6,19.7c0,4.6-0.2,9.1-0.5,13.6c5.4,68,65.5,123.6,136.8,123.6c74.3,0,134.5-58.1,137.1-132.3l0,0l0.8-4.9c2.4-8.9,10.1-16.9,19-16.9c0.1,0,0.2,0,0.3,0c10.7,0.2,19.4,6.1,19.4,16.9v0.6C676.2,351.1,676.1,356.8,676.1,356.9L676.1,356.9z"/><path d="M851.5,983.8H192.3c-44.3,0-80.4-36.1-80.4-80.4V599.8h39.4v303.6c0,22.6,18.4,41,41,41h659.1c22.6,0,41-18.4,41-41V599.8h39.4v303.6C931.9,947.8,895.8,983.8,851.5,983.8L851.5,983.8z"/></g>
</svg>
