<?xml version="1.0" encoding="utf-8"?>
<!-- Svg Vector Icons : http://www.onlinewebfonts.com/icon -->
<!DOCTYPE svg PUBLIC "-//W3C//DTD SVG 1.1//EN" "http://www.w3.org/Graphics/SVG/1.1/DTD/svg11.dtd">
<svg version="1.1" xmlns="http://www.w3.org/2000/svg" xmlns:xlink="http://www.w3.org/1999/xlink" x="0px" y="0px" viewBox="0 0 1000 1000" enable-background="new 0 0 1000 1000" xml:space="preserve">
<metadata> Svg Vector Icons : http://www.onlinewebfonts.com/icon </metadata>
<g><g transform="translate(0.000000,511.000000) scale(0.100000,-0.100000)">
<path fill="#EF2B2F"  d="M4474.5,4234.7c-828.2-120.9-1601-543.2-2152.4-1172.5c-549.4-631.4-869.2-1453.4-869.2-2246.7V585.9h-209.1c-231.6-2.1-350.5-30.7-555.5-139.4c-161.9-84.1-360.8-289-453-465.3C114.4-248.4,100-350.9,100-1097.1c0-588.3,4.1-674.4,41-815.9c55.4-219.3,129.1-346.4,299.3-518.6c229.6-229.6,477.6-334.1,793.3-334.1c313.6,0,571.9,106.6,793.3,328c151.7,151.7,221.4,260.3,289,451c45.1,127.1,47.1,166,55.3,807.7c4.1,440.7,0,717.5-16.4,805.6c-30.7,176.3-90.2,332.1-176.3,457.1l-69.7,102.5v393.6c0,641.6,79.9,994.2,330,1469.8C3047.7,3209.7,4374,3810.3,5657.2,3504.9C6458.8,3316.3,7168,2762.9,7535,2039.2c250.1-494,334.1-881.5,334.1-1551.8V169.7l-71.7-118.9c-153.7-254.2-161.9-307.5-170.1-1063.9c-8.2-750.3,4.1-865.1,102.5-1082.3l63.5-137.3l-57.4-108.6c-241.9-446.9-633.4-799.5-1113.1-1000.3c-350.5-145.6-981.9-250.1-1297.6-213.2c-116.8,12.3-135.3,20.5-172.2,77.9c-22.5,34.9-71.7,82-108.6,102.5c-69.7,41-377.2,96.3-533,96.3c-305.4,0-475.6-360.8-278.8-594.5c79.9-94.3,141.4-116.8,401.8-151.7c287-36.9,358.7-22.5,477.6,94.3l82,82l369,6.1c276.7,4.1,420.2,14.4,576,47.1c598.6,120.9,1094.6,387.4,1486.2,797.4c141.4,147.6,352.6,422.3,373.1,483.8c4.1,14.3,49.2-6.2,118.9-51.3c186.6-129.1,350.5-184.5,571.9-196.8c360.8-18.5,621.1,82,873.3,334.1c161.9,162,252.1,323.9,305.4,545.3c43,184.5,43,1377.5,0,1582.5c-82,385.4-385.4,711.3-789.2,846.6c-82,26.6-174.2,36.9-330,36.9h-217.3l-12.3,278.8c-39,910.1-397.7,1732.2-1031.1,2365.6c-553.5,553.5-1221.7,887.6-2013,1006.5C5232.9,4271.6,4730.7,4271.6,4474.5,4234.7z"/>
<path fill="#EF2B2F"  d="M3880,977.4c-137.3-32.8-280.8-118.9-346.4-207c-63.5-82-133.2-254.2-133.2-328c0-49.2,6.1-51.2,143.5-55.4c297.2-8.2,270.6-14.3,301.3,77.9c47.1,139.4,108.6,182.4,264.4,182.4c112.7,0,137.3-6.1,184.5-53.3c36.9-36.9,57.4-84,63.5-147.6c16.4-145.5-47.2-252.1-266.5-448.9c-330-295.2-580.1-555.5-645.7-672.4c-57.4-100.5-65.6-131.2-65.6-270.6v-159.9h727.7h727.7V-931v174.2h-471.5c-258.3,0-471.5,6.1-471.5,12.3c0,49.2,112.7,172.2,293.1,317.7c289,235.7,471.5,422.3,539.1,553.5c51.2,98.4,59.4,133.2,59.4,295.2c0,202.9-34.9,299.3-147.6,401.8C4470.4,979.5,4152.6,1043,3880,977.4z"/>
<path fill="#EF2B2F" d="M5413.3,296.8l-436.6-666.2l6.2-157.8l6.1-157.8l467.4-6.2l465.3-4.1v-205v-205h205h205v205v202.9l129.1,6.1l127.1,6.2l6.1,159.9l6.2,157.9h-135.3h-133.2v666.2v666.2h-239.8h-241.9L5413.3,296.8z M5921.7,73.4v-440.7h-287c-157.9,0-287,4.1-287,8.2c0,6.2,114.8,182.4,252.1,395.6c139.4,211.1,264.5,405.9,278.8,432.5c12.3,24.6,28.7,45.1,32.8,45.1C5917.6,514.1,5921.7,315.3,5921.7,73.4z"/></g></g>
</svg>