<svg xmlns="http://www.w3.org/2000/svg" xmlns:xlink="http://www.w3.org/1999/xlink" width="53.5" height="60.43" viewBox="0 0 53.5 60.43">
  <defs>
    <clipPath id="clip-path">
      <rect id="Rectangle_1410" data-name="Rectangle 1410" width="34.458" height="28.271" fill="none"/>
    </clipPath>
  </defs>
  <g id="Group_4010" data-name="Group 4010" transform="translate(-76.294 -359.131)">
    <g id="Group_3278" data-name="Group 3278" transform="translate(77.044 359.902)">
      <g id="Group_3084" data-name="Group 3084" transform="translate(18.773 0)">
        <g id="Group_3083" data-name="Group 3083">
          <path id="Path_2416" data-name="Path 2416" d="M330.178,375.478s3.209-9.266,6.237-6.237S330.178,375.478,330.178,375.478Z" transform="translate(-323.126 -368.632)" fill="none" stroke="#EF2B2F" stroke-miterlimit="10" stroke-width="1.5"/>
          <path id="Path_2417" data-name="Path 2417" d="M326.616,375.478s-3.209-9.266-6.237-6.237S326.616,375.478,326.616,375.478Z" transform="translate(-319.77 -368.632)" fill="none" stroke="#EF2B2F" stroke-miterlimit="10" stroke-width="1.5"/>
        </g>
      </g>
      <ellipse id="Ellipse_880" data-name="Ellipse 880" cx="26" cy="25.904" rx="26" ry="25.904" transform="translate(0 7.1)" fill="#fff" stroke="#EF2B2F" stroke-miterlimit="10" stroke-width="1.5"/>
      <g id="Group_3087" data-name="Group 3087" transform="translate(9.88 20.652)">
        <rect id="Rectangle_1402" data-name="Rectangle 1402" width="1.149" height="2.298" transform="translate(27.567 7.529)" fill="#EF2B2F"/>
        <rect id="Rectangle_1403" data-name="Rectangle 1403" width="1.149" height="2.298" transform="translate(25.269 7.529)" fill="#EF2B2F"/>
        <rect id="Rectangle_1404" data-name="Rectangle 1404" width="1.149" height="2.298" transform="translate(22.972 7.529)" fill="#EF2B2F"/>
        <rect id="Rectangle_1405" data-name="Rectangle 1405" width="1.149" height="2.298" transform="translate(20.675 7.529)" fill="#EF2B2F"/>
        <rect id="Rectangle_1406" data-name="Rectangle 1406" width="1.149" height="1.149" transform="translate(27.567 18.441)" fill="#EF2B2F"/>
        <rect id="Rectangle_1407" data-name="Rectangle 1407" width="1.149" height="1.149" transform="translate(25.269 18.441)" fill="#EF2B2F"/>
        <rect id="Rectangle_1408" data-name="Rectangle 1408" width="1.149" height="1.149" transform="translate(22.972 18.441)" fill="#EF2B2F"/>
        <g id="Group_3086" data-name="Group 3086">
          <g id="Group_3085" data-name="Group 3085" clip-path="url(#clip-path)">
            <rect id="Rectangle_1409" data-name="Rectangle 1409" width="1.149" height="1.149" transform="translate(20.675 18.441)" fill="#EF2B2F"/>
            <path id="Path_2418" data-name="Path 2418" d="M308.515,417.441v3.489a2.875,2.875,0,0,0,2.871,2.872H321.77l10.222,4.906a2.673,2.673,0,0,0,3.568-1.263l1.776-3.733a2.871,2.871,0,0,0,2.193-2.781V419.1l1.461-3.07a2.689,2.689,0,0,0-1.259-3.576l-.2-.1v-4.064a2.875,2.875,0,0,0-2.871-2.871h-11.58l-9.025-4.331a2.67,2.67,0,0,0-3.567,1.263l-1.478,3.106a2.866,2.866,0,0,0-2.492,2.833v2.4l-1.462,3.071a2.69,2.69,0,0,0,1.259,3.575Zm31.014-3.761a1.539,1.539,0,0,1,.424,1.857l-.424.89Zm-5.008,13.267a1.521,1.521,0,0,1-2.033.722l-8.064-3.868h11.6Zm3.859-6.018a1.723,1.723,0,0,1-1.722,1.724H317.7v-6.642a6.845,6.845,0,0,0,4.754,1.912v-1.148a5.708,5.708,0,0,1-3.957-1.589H338.38Zm-20.14-7.248,1.13-2.84a1.305,1.305,0,1,1,1.694,1.7Zm18.418-7.11a1.723,1.723,0,0,1,1.722,1.723v5.743H320.433l1.059-.425a2.458,2.458,0,1,0-3.188-3.2l-.6,1.505v-5.35Zm-23.134-3.722a1.521,1.521,0,0,1,2.033-.722l6.868,3.3H312.3Zm-3.86,5.445a1.723,1.723,0,0,1,1.723-1.723h5.169v4.949l-.44-1.1a2.454,2.454,0,1,0-3.188,3.2l1.058.425h-4.323Zm6.517,5.387-2.825-1.137a1.309,1.309,0,1,1,1.693-1.705Zm-6.517,1.5h6.254a5.708,5.708,0,0,1-3.957,1.589v1.148a6.838,6.838,0,0,0,4.594-1.766v6.5h-5.169a1.724,1.724,0,0,1-1.723-1.724Zm-1.573-.924.424-.892v2.749a1.538,1.538,0,0,1-.424-1.857Zm0,0" transform="translate(-306.793 -400.767)" fill="#EF2B2F"/>
          </g>
        </g>
      </g>
      <g id="Group_3088" data-name="Group 3088" transform="translate(34.849 15.556)">
        <path id="Path_2419" data-name="Path 2419" d="M344.141,398.545a.112.112,0,0,1,.056.031c.031.029.087.03.407.008.493-.035,1-.083,1-.1a.818.818,0,0,1,.179-.025,3.764,3.764,0,0,0,.518-.074l.106-.03c.044-.012.049-.025.044-.1s-.006-.091-.1-.107c-.075-.012-1.452.076-1.451.093s-.173.026-.5.062a1.516,1.516,0,0,0-.214.032,1.053,1.053,0,0,0-.063.191.018.018,0,0,0,.02.019Z" transform="translate(-344.121 -394.201)" fill="#EF2B2F"/>
        <path id="Path_2420" data-name="Path 2420" d="M345.9,395.61c.03.022.1.079.154.124a2.269,2.269,0,0,0,.312.249.467.467,0,0,1,.092.067l.19.157c.167.136.361.2.388.133.007-.018.022-.056.034-.083.03-.069.009-.113-.086-.181s-.264-.206-.469-.383a.726.726,0,0,0-.181-.131.029.029,0,0,1-.029-.029c0-.018-.011-.03-.022-.03a.134.134,0,0,1-.064-.035.919.919,0,0,0-.263-.124.091.091,0,0,0-.089.081.07.07,0,0,1-.016.053c-.034.024-.01.09.048.132Z" transform="translate(-344.675 -393.298)" fill="#EF2B2F"/>
        <path id="Path_2421" data-name="Path 2421" d="M346.53,401.226c.03.04.066.074.077.073a.919.919,0,0,0,.213-.156.086.086,0,0,1,.045-.031.117.117,0,0,0,.073-.087.023.023,0,0,1,.02-.024c.029,0,.079-.06.064-.075s.009-.023.037-.039a.192.192,0,0,0,.073-.081c.013-.029.03-.053.04-.054s.016-.014.014-.032a.029.029,0,0,1,.024-.033c.013,0,.047-.035.072-.072a1.065,1.065,0,0,1,.081-.105.106.106,0,0,0,.031-.062.03.03,0,0,1,.029-.029.032.032,0,0,0,.029-.035.171.171,0,0,1,.045-.085.192.192,0,0,0,.047-.068c0-.009.012-.027.028-.041.064-.056.027-.28-.047-.29a.477.477,0,0,0-.238.14.213.213,0,0,1-.066.055c-.009,0-.011.008,0,.018s-.014.037-.046.061a.211.211,0,0,0-.065.077.184.184,0,0,1-.068.072c-.034.023-.06.055-.058.072s-.007.033-.02.034a.727.727,0,0,0-.194.234c.006.006,0,.012-.014.014a1.315,1.315,0,0,0-.265.316.253.253,0,0,0,.043.233Z" transform="translate(-344.881 -394.767)" fill="#EF2B2F"/>
        <path id="Path_2422" data-name="Path 2422" d="M348.914,398.093a.655.655,0,0,0,.249.257.563.563,0,0,0,.435-.028c.239-.093.314-.219.308-.524,0-.073-.01-.132-.02-.131s-.018-.013-.02-.029c0-.032-.112-.154-.137-.152a.166.166,0,0,1-.064-.038.158.158,0,0,0-.093-.036.081.081,0,0,1-.061-.017.022.022,0,0,0-.032-.007.07.07,0,0,1-.056,0,.462.462,0,0,0-.409.06.085.085,0,0,1-.044.031c-.011,0-.018.014-.016.033s-.005.031-.016.032-.034.071-.045.163a.332.332,0,0,1-.013.055.518.518,0,0,0,.033.336Z" transform="translate(-345.651 -393.948)" fill="#EF2B2F"/>
        <path id="Path_2423" data-name="Path 2423" d="M348.75,392.866a1.883,1.883,0,0,1,.035.247c.032.308.055.491.075.6.009.045.026.155.039.24a3.963,3.963,0,0,0,.145.738c.026.056.031.058.118.038a.8.8,0,0,0,.115-.032c.033-.015.043-.1.018-.155-.012-.027-.012-.045,0-.046s.013-.019,0-.045a2.821,2.821,0,0,1-.044-.34c-.014-.165-.035-.369-.046-.455-.039-.322-.072-.555-.079-.565a1.15,1.15,0,0,1-.022-.157.975.975,0,0,0-.034-.193,1.07,1.07,0,0,1-.039-.173.654.654,0,0,0-.053-.186c-.031-.054-.045-.06-.117-.051-.115.015-.142.083-.133.336a1.076,1.076,0,0,0,.017.2Z" transform="translate(-345.608 -392.324)" fill="#EF2B2F"/>
        <path id="Path_2424" data-name="Path 2424" d="M349.642,400.177c.006.005.045.336.121,1.02a3.8,3.8,0,0,0,.124.8c.014.052.033.139.044.2.029.157.063.232.115.252a.127.127,0,0,0,.142-.042,1.658,1.658,0,0,0-.019-.383c-.008-.064-.029-.235-.045-.379s-.041-.334-.053-.419-.027-.209-.034-.273a6.322,6.322,0,0,0-.106-.764.993.993,0,0,1-.037-.154.132.132,0,0,0-.162-.123c-.081.018-.108.064-.1.175a.788.788,0,0,0,.01.1Z" transform="translate(-345.898 -394.767)" fill="#EF2B2F"/>
        <path id="Path_2425" data-name="Path 2425" d="M350.81,395.973c.011.07.012.07.085.052.041-.01.077-.028.079-.041a.047.047,0,0,1,.042-.024.1.1,0,0,0,.06-.036.1.1,0,0,1,.061-.035c.041,0,.135-.1.133-.133,0-.014.006-.025.018-.026a1.357,1.357,0,0,0,.269-.329.024.024,0,0,1,.02-.029.662.662,0,0,0,.166-.193.582.582,0,0,1,.094-.131.613.613,0,0,0,.091-.123c-.006,0,.01-.024.037-.057.065-.076.055-.131-.043-.24-.028-.032-.035-.031-.077,0-.026.02-.047.029-.048.021,0-.034-.138.082-.246.21a.677.677,0,0,1-.144.143c-.014,0-.02.007-.013.013s-.041.072-.211.253a.228.228,0,0,0-.061.087c0,.011-.022.033-.048.048s-.048.042-.047.059-.005.031-.016.032c-.043,0-.157.2-.159.281,0,.044,0,.087,0,.095s-.013.018-.026.023-.02.035-.013.079Z" transform="translate(-346.277 -393.059)" fill="#EF2B2F"/>
        <path id="Path_2426" data-name="Path 2426" d="M351.252,399.311a.341.341,0,0,0,.077.084c.035.03.058.055.052.055a1.218,1.218,0,0,0,.158.161l.2.187a.088.088,0,0,0,.048.026.021.021,0,0,1,.02.021c0,.03.045.069.094.084.02.006.033.022.026.034s0,.021.006.02a.729.729,0,0,1,.142.108.471.471,0,0,0,.163.106.118.118,0,0,1,.076.035c.031.03.046.032.085.01s.047-.038.047-.051a.128.128,0,0,1,.037-.065c.025-.028.031-.048.016-.062a.089.089,0,0,1-.024-.054c0-.019-.026-.045-.056-.06s-.054-.037-.055-.052a.038.038,0,0,0-.02-.032,2.933,2.933,0,0,1-.529-.459c0-.006,0-.01-.016-.009a.449.449,0,0,1-.131-.1.465.465,0,0,0-.128-.1.02.02,0,0,1-.023-.016c0-.01-.038-.035-.082-.055-.062-.029-.087-.031-.108-.012a.472.472,0,0,0-.09.152l.015.037Z" transform="translate(-346.416 -394.512)" fill="#EF2B2F"/>
        <path id="Path_2427" data-name="Path 2427" d="M351.9,397.709a1.039,1.039,0,0,0,.188.064.878.878,0,0,0,.451.011c.327-.037.529-.057,1.208-.121.543-.051.566-.06.557-.207-.006-.095-.021-.108-.131-.123a2.952,2.952,0,0,0-.564.035c0,.009-.028.011-.055,0a.254.254,0,0,0-.117.008.121.121,0,0,1-.1,0c-.014-.011-.027-.012-.026,0a1.187,1.187,0,0,1-.29.042l-.383.031-.123.01a1.924,1.924,0,0,0-.606.112c-.035.05-.039.116-.01.137Z" transform="translate(-346.622 -393.938)" fill="#EF2B2F"/>
      </g>
    </g>
  </g>
</svg>
