<svg xmlns="http://www.w3.org/2000/svg" width="53.5" height="60.183" viewBox="0 0 53.5 60.183">
  <g id="Group_3279" data-name="Group 3279" transform="translate(0.75 0.771)">
    <g id="Group_3120" data-name="Group 3120" transform="translate(19.434 0)">
      <g id="Group_3119" data-name="Group 3119">
        <path id="Path_2469" data-name="Path 2469" d="M217.512,376.864s3.079-8.889,5.984-5.984S217.512,376.864,217.512,376.864Z" transform="translate(-210.747 -370.296)" fill="none" stroke="#EF2B2F" stroke-miterlimit="10" stroke-width="1.5"/>
        <path id="Path_2470" data-name="Path 2470" d="M213.672,376.864s-3.079-8.889-5.984-5.984S213.672,376.864,213.672,376.864Z" transform="translate(-207.104 -370.296)" fill="none" stroke="#EF2B2F" stroke-miterlimit="10" stroke-width="1.5"/>
      </g>
    </g>
    <ellipse id="Ellipse_881" data-name="Ellipse 881" cx="26" cy="26.047" rx="26" ry="26.047" transform="translate(0 6.568)" fill="#fff" stroke="#EF2B2F" stroke-miterlimit="10" stroke-width="1.5"/>
    <g id="Group_3121" data-name="Group 3121" transform="translate(12.649 17.214)">
      <path id="Path_2471" data-name="Path 2471" d="M221.946,402.055h-3.7a3.662,3.662,0,0,0,.975-2.491s0-.147,0-.188a3.35,3.35,0,0,0-1.728-2.827,3.428,3.428,0,0,0-3.388,0l-1.685.951a5.874,5.874,0,0,0-2.394,2.548,5.875,5.875,0,0,0-2.395-2.548l-1.685-.951a3.428,3.428,0,0,0-3.388,0,3.353,3.353,0,0,0-1.728,2.827c0,.042,0,.188,0,.188a3.665,3.665,0,0,0,.975,2.491h-3.7a1.426,1.426,0,0,0-1.424,1.425v3.381a1.426,1.426,0,0,0,1.424,1.425h.653V421.1a1.426,1.426,0,0,0,1.425,1.424h19.7a1.426,1.426,0,0,0,1.425-1.424V408.286h.652a1.427,1.427,0,0,0,1.425-1.425V403.48A1.426,1.426,0,0,0,221.946,402.055ZM213,398.534l1.685-.951a2.249,2.249,0,0,1,2.224,0,2.175,2.175,0,0,1,1.123,1.832c0,.028,0,.148,0,.148a2.494,2.494,0,0,1-2.491,2.491h-4.892A4.7,4.7,0,0,1,213,398.534ZM211.5,421.341h-2.967v-18.1H211.5v18.1Zm-9.494-21.777s0-.12,0-.148a2.175,2.175,0,0,1,1.123-1.832,2.249,2.249,0,0,1,2.224,0l1.685.951a4.7,4.7,0,0,1,2.35,3.521H204.5A2.494,2.494,0,0,1,202.008,399.564Zm-4.154,7.3V403.48a.238.238,0,0,1,.238-.238h9.257V407.1h-9.257A.238.238,0,0,1,197.854,406.861Zm2.077,14.242V408.286h7.418v1.805h-2.443a.593.593,0,0,0,0,1.187h2.443v10.063h-7.18A.238.238,0,0,1,199.932,421.1Zm20.176,0a.238.238,0,0,1-.238.238h-7.18V411.278h2.261a.593.593,0,0,0,0-1.187H212.69v-1.805h7.418Zm2.077-14.242a.238.238,0,0,1-.238.238H212.69v-3.857h9.256a.238.238,0,0,1,.238.238Z" transform="translate(-196.668 -396.101)" fill="#EF2B2F" stroke="#fff" stroke-miterlimit="10" stroke-width="0.3"/>
      <path id="Path_2472" data-name="Path 2472" d="M228.812,418.811h.06a.593.593,0,0,0,0-1.187h-.06a.593.593,0,1,0,0,1.187Z" transform="translate(-207.711 -403.634)" fill="#EF2B2F" stroke="#fff" stroke-miterlimit="10" stroke-width="0.3"/>
      <path id="Path_2473" data-name="Path 2473" d="M204.654,417.624h-.06a.593.593,0,0,0,0,1.187h.06a.593.593,0,0,0,0-1.187Z" transform="translate(-199.235 -403.634)" fill="#EF2B2F" stroke="#fff" stroke-miterlimit="10" stroke-width="0.3"/>
    </g>
    <path id="Path_2474" data-name="Path 2474" d="M240.519,428.879l1.21.27,1.21.27-.839.913-.839.913-.372-1.183Z" transform="translate(-199.122 -390.234)" fill="none" stroke="#EF2B2F" stroke-miterlimit="10" stroke-width="1"/>
  </g>
</svg>
