<svg xmlns="http://www.w3.org/2000/svg" width="53.5" height="60.377" viewBox="0 0 53.5 60.377">
  <g id="Group_4009" data-name="Group 4009" transform="translate(489.682 -4897.808)">
    <g id="Group_3736" data-name="Group 3736" transform="translate(-488.932 4898.58)">
      <g id="Group_3709" data-name="Group 3709" transform="translate(0 0)">
        <g id="Group_3124" data-name="Group 3124" transform="translate(19.235)">
          <g id="Group_3123" data-name="Group 3123">
            <path id="Path_2475" data-name="Path 2475" d="M106.69,376.859s3.077-8.883,5.98-5.98S106.69,376.859,106.69,376.859Z" transform="translate(-99.93 -370.296)" fill="none" stroke="#EF2B2F" stroke-miterlimit="10" stroke-width="1.5"/>
            <path id="Path_2476" data-name="Path 2476" d="M102.846,376.859s-3.077-8.883-5.981-5.98S102.846,376.859,102.846,376.859Z" transform="translate(-96.282 -370.296)" fill="none" stroke="#EF2B2F" stroke-miterlimit="10" stroke-width="1.5"/>
          </g>
        </g>
        <ellipse id="Ellipse_882" data-name="Ellipse 882" cx="26" cy="26.05" rx="26" ry="26.05" transform="translate(0 6.754)" fill="#fff" stroke="#EF2B2F" stroke-miterlimit="10" stroke-width="1.5"/>
        <path id="Path_2480" data-name="Path 2480" d="M104.334,429.229" transform="translate(-79.889 -390.377)"/>
        <g id="Group_3700" data-name="Group 3700" transform="translate(12.967 16.278)">
          <g id="Group_3685" data-name="Group 3685" transform="translate(17.421 0)">
            <g id="Group_3684" data-name="Group 3684" transform="translate(0 0)">
              <path id="Path_2782" data-name="Path 2782" d="M650.968,101.594a.916.916,0,0,1-.915-.915,1.177,1.177,0,1,0-2.354,0,.917.917,0,0,1-.916.915,1.177,1.177,0,0,0,0,2.354.917.917,0,0,1,.916.915,1.177,1.177,0,1,0,2.354,0,.916.916,0,0,1,.915-.915,1.177,1.177,0,1,0,0-2.354Zm-2.093,2.518a2.235,2.235,0,0,0-1.341-1.341,1.341,1.341,0,1,1,2.682,0A2.234,2.234,0,0,0,648.876,104.111Z" transform="translate(-645.606 -99.501)" fill="#EF2B2F" stroke="#fff" stroke-width="0.5"/>
            </g>
          </g>
          <g id="Group_3687" data-name="Group 3687" transform="translate(21.422 5.626)">
            <g id="Group_3686" data-name="Group 3686">
              <path id="Path_2783" data-name="Path 2783" d="M712.152,187.629a.916.916,0,0,1-.916-.915,1.177,1.177,0,0,0-2.354,0,.916.916,0,0,1-.916.915,1.177,1.177,0,0,0,0,2.354.917.917,0,0,1,.916.915,1.177,1.177,0,0,0,2.354,0,.917.917,0,0,1,.916-.915,1.177,1.177,0,0,0,0-2.354Zm-2.093,2.518a2.234,2.234,0,0,0-1.341-1.341,1.341,1.341,0,1,1,2.682,0A2.235,2.235,0,0,0,710.06,190.146Z" transform="translate(-706.79 -185.536)" fill="#EF2B2F" stroke="#fff" stroke-width="0.5"/>
            </g>
          </g>
          <g id="Group_3689" data-name="Group 3689" transform="translate(4.75 8.027)">
            <g id="Group_3688" data-name="Group 3688" transform="translate(0 0)">
              <path id="Path_2784" data-name="Path 2784" d="M460.486,222.737l-2.677-.473a.654.654,0,0,0-.654.276L456.1,224.1a6.452,6.452,0,0,1-3.763,2.633.654.654,0,1,0,.32,1.268,7.758,7.758,0,0,0,4.525-3.166l.821-1.207,2.26.4a.654.654,0,1,0,.227-1.288Z" transform="translate(-451.838 -222.254)" fill="#EF2B2F" stroke="#fff" stroke-width="0.5"/>
            </g>
          </g>
          <g id="Group_3691" data-name="Group 3691" transform="translate(16.848 30.16)">
            <g id="Group_3690" data-name="Group 3690" transform="translate(0)">
              <path id="Path_2785" data-name="Path 2785" d="M638.138,561.252a.7.7,0,0,0-.037-.122.655.655,0,0,0-.354-.354.7.7,0,0,0-.122-.037.646.646,0,0,0-.256,0,.663.663,0,0,0-.122.037.641.641,0,0,0-.113.06.664.664,0,0,0-.1.082.631.631,0,0,0-.081.1.672.672,0,0,0-.06.112.7.7,0,0,0-.037.122.657.657,0,0,0-.013.128.645.645,0,0,0,.013.128.665.665,0,0,0,.1.235.636.636,0,0,0,.181.181.662.662,0,0,0,.235.1.645.645,0,0,0,.128.013.657.657,0,0,0,.128-.013.691.691,0,0,0,.122-.037.682.682,0,0,0,.112-.06.63.63,0,0,0,.1-.081.661.661,0,0,0,.082-.1.64.64,0,0,0,.06-.113.662.662,0,0,0,.038-.122.644.644,0,0,0,.012-.128A.656.656,0,0,0,638.138,561.252Z" transform="translate(-636.842 -560.726)" fill="#EF2B2F" stroke="#fff" stroke-width="0.5"/>
            </g>
          </g>
          <g id="Group_3693" data-name="Group 3693" transform="translate(0 5.493)">
            <g id="Group_3692" data-name="Group 3692" transform="translate(0 0)">
              <path id="Path_2786" data-name="Path 2786" d="M403.3,202.98a.655.655,0,0,0-.514-.158,2.242,2.242,0,0,1-1.644-.37,1.112,1.112,0,0,1-.1-1.018,26.594,26.594,0,0,0,.5-4.542c0-3.713-.551-6.559-1.685-8.7-1.649-3.111-4.5-4.688-8.483-4.688s-6.835,1.577-8.484,4.688c-1.134,2.139-1.685,4.985-1.685,8.7a24.752,24.752,0,0,0,.467,4.542,1.114,1.114,0,0,1-.1,1.017c-.372.42-1.338.409-1.646.372a.654.654,0,0,0-.736.649c0,.99.568,2.362,3.2,3.407v3.962a.654.654,0,0,0,.654.654h16.629a.654.654,0,0,0,.654-.654v-3.962c2.628-1.044,3.2-2.416,3.2-3.407A.654.654,0,0,0,403.3,202.98Zm-4.283,7.205H383.7v-.7h10.283a.654.654,0,1,0,0-1.308H383.7c0-.009,0-2.077,0-2.086a1.228,1.228,0,0,1,1.226-1.226h4.33a2.176,2.176,0,0,0,4.21,0h4.33a1.228,1.228,0,0,1,1.226,1.226C399.02,206.1,399.02,210.177,399.02,210.186ZM390,201.633a5.431,5.431,0,0,1-4.076-5.263v-2.055a10.5,10.5,0,0,0,5.449-3.886l.513.09a5.932,5.932,0,0,1,4.907,5.85,5.431,5.431,0,0,1-4.076,5.263.654.654,0,0,0-.491.633v2.044a.868.868,0,0,1-1.736,0v-2.044A.654.654,0,0,0,390,201.633Zm10.255,3.854a2.539,2.539,0,0,0-2.462-1.933h-4.259v-.8a6.739,6.739,0,0,0,4.567-6.384,7.238,7.238,0,0,0-5.988-7.138l-.924-.163a.654.654,0,0,0-.655.276l-.058.085a9.2,9.2,0,0,1-5.367,3.754.654.654,0,0,0-.494.634v2.551a6.739,6.739,0,0,0,4.567,6.384v.8h-4.259a2.539,2.539,0,0,0-2.462,1.933,3.943,3.943,0,0,1-1.775-1.357,2.794,2.794,0,0,0,1.863-.808,2.3,2.3,0,0,0,.4-2.2,23.652,23.652,0,0,1-.429-4.23,17.337,17.337,0,0,1,1.533-8.086c1.424-2.687,3.821-3.993,7.328-3.993s5.9,1.306,7.328,3.993a17.337,17.337,0,0,1,1.533,8.086,25,25,0,0,1-.467,4.23,2.3,2.3,0,0,0,.4,2.2,2.794,2.794,0,0,0,1.863.808A3.944,3.944,0,0,1,400.256,205.486Z" transform="translate(-379.194 -183.506)" fill="#EF2B2F" stroke="#fff" stroke-width="0.5"/>
            </g>
          </g>
          <g id="Group_3695" data-name="Group 3695" transform="translate(7.813 17.083)">
            <g id="Group_3694" data-name="Group 3694">
              <path id="Path_2787" data-name="Path 2787" d="M501.765,360.94a.654.654,0,0,0-.925,0,.741.741,0,0,1-1.048,0,.654.654,0,0,0-.925.925,2.049,2.049,0,0,0,2.9,0A.654.654,0,0,0,501.765,360.94Z" transform="translate(-498.675 -360.748)" fill="#EF2B2F" stroke="#fff" stroke-width="0.5"/>
            </g>
          </g>
          <g id="Group_3697" data-name="Group 3697" transform="translate(13.237 17.084)">
            <g id="Group_3696" data-name="Group 3696" transform="translate(0)">
              <path id="Path_2788" data-name="Path 2788" d="M584.7,360.941a.654.654,0,0,0-.925,0,.741.741,0,0,1-1.048,0,.654.654,0,1,0-.925.925,2.049,2.049,0,0,0,2.9,0A.654.654,0,0,0,584.7,360.941Z" transform="translate(-581.612 -360.749)" fill="#EF2B2F" stroke="#fff" stroke-width="0.5"/>
            </g>
          </g>
          <g id="Group_3699" data-name="Group 3699" transform="translate(10.525 20.819)">
            <g id="Group_3698" data-name="Group 3698">
              <path id="Path_2789" data-name="Path 2789" d="M543.232,418.068a.654.654,0,0,0-.925,0,.742.742,0,0,1-1.048,0,.654.654,0,1,0-.925.925,2.052,2.052,0,0,0,2.9,0A.654.654,0,0,0,543.232,418.068Z" transform="translate(-540.143 -417.877)" fill="#EF2B2F" stroke="#fff" stroke-width="0.5"/>
            </g>
          </g>
        </g>
      </g>
    </g>
  </g>
</svg>
