<svg xmlns="http://www.w3.org/2000/svg" width="53.508" height="60.192" viewBox="0 0 53.508 60.192">
  <g id="Group_4008" data-name="Group 4008" transform="translate(637.754 -4897.808)">
    <g id="Group_3737" data-name="Group 3737" transform="translate(-637.004 4898.58)">
      <g id="Group_3638" data-name="Group 3638" transform="translate(19.38 0)">
        <g id="Group_3123" data-name="Group 3123">
          <path id="Path_2475" data-name="Path 2475" d="M106.69,376.921s3.106-8.967,6.037-6.036S106.69,376.921,106.69,376.921Z" transform="translate(-99.866 -370.296)" fill="none" stroke="#EF2B2F" stroke-miterlimit="10" stroke-width="1.5"/>
          <path id="Path_2476" data-name="Path 2476" d="M102.907,376.921s-3.106-8.967-6.037-6.036S102.907,376.921,102.907,376.921Z" transform="translate(-96.282 -370.296)" fill="none" stroke="#EF2B2F" stroke-miterlimit="10" stroke-width="1.5"/>
        </g>
      </g>
      <ellipse id="Ellipse_968" data-name="Ellipse 968" cx="26.004" cy="26.023" rx="26.004" ry="26.023" transform="translate(0 6.625)" fill="#fff" stroke="#EF2B2F" stroke-miterlimit="10" stroke-width="1.5"/>
      <path id="Path_2747" data-name="Path 2747" d="M104.334,429.229" transform="translate(-79.683 -390.371)"/>
      <path id="Path_2826" data-name="Path 2826" d="M0,0,1.424.317,2.847.635,1.861,1.709.874,2.783.437,1.392Z" transform="translate(11.825 37.996) rotate(-118)" fill="none" stroke="#EF2B2F" stroke-miterlimit="10" stroke-width="1"/>
      <g id="Group_3707" data-name="Group 3707" transform="translate(12.702 17.409)">
        <g id="manager">
          <path id="Path_2816" data-name="Path 2816" d="M109.379,10H107a6,6,0,0,0-6,6v2.4l14.4.024v-2.4A6.022,6.022,0,0,0,109.379,10Zm0,0" transform="translate(-94.939 -9.4)" fill="#fff"/>
          <path id="Path_2817" data-name="Path 2817" d="M28.652,281.528l-2.388-2.149-.051.029-7.171-.021-.028-.017-2.4,2.157c-2.989,0-6.613,2.427-6.613,5.421v5.78H35.265v-5.781C35.265,283.955,31.642,281.528,28.652,281.528Zm0,0" transform="translate(-9.404 -262.608)" fill="#fafaff"/>
          <path id="Path_2818" data-name="Path 2818" d="M113.182,96.93a7.312,7.312,0,0,1-10.017,0L101,100.1v1.572a7.194,7.194,0,0,0,3.552,6.218l.011-.01.017.027,3.593,5.748,3.579-5.727.03-.048.021.019a7.2,7.2,0,0,0,3.6-6.226v-1.548Zm0,0" transform="translate(-94.94 -91.114)" fill="#fff"/>
          <path id="Path_2820" data-name="Path 2820" d="M261.4,161.2a.6.6,0,1,0-.6-.6A.6.6,0,0,0,261.4,161.2Zm0,0" transform="translate(-245.152 -150.399)" fill="#d60644"/>
          <path id="Path_2821" data-name="Path 2821" d="M161.4,161.2a.6.6,0,1,0-.6-.6A.6.6,0,0,0,161.4,161.2Zm0,0" transform="translate(-151.152 -150.399)" fill="#d60644"/>
          <path id="Path_2822" data-name="Path 2822" d="M188.672,230.83a3.774,3.774,0,0,0,3.177.014.6.6,0,1,0-.5-1.09,2.574,2.574,0,0,1-2.164-.01.6.6,0,0,0-.512,1.085Zm0,0" transform="translate(-177.027 -215.905)" fill="#d60644"/>
          <path id="Path_2823" data-name="Path 2823" d="M26.461,24.348c0-3.3-3.754-5.887-6.972-6.01l-1.642-1.476a7.83,7.83,0,0,0,3.213-6.3V6.6A6.615,6.615,0,0,0,14.446,0H12.039A6.579,6.579,0,0,0,5.46,6.6v3.96a7.842,7.842,0,0,0,3.174,6.29L6.978,18.338C3.765,18.461,0,21.042,0,24.348v5.774a.6.6,0,0,0,.6.6H25.861a.6.6,0,0,0,.6-.6ZM11.919,26.762h2.655l.629,2.76H11.272Zm2.706-1.2H11.881l-.46-1.434,1.828-.914,1.867.934Zm-1.377-4.151-2.085-3.336a7.792,7.792,0,0,0,4.167,0Zm.859.89,2.881-4.61,1.554,1.4-1.977,4.443ZM12.039,1.2h2.4a5.417,5.417,0,0,1,5.421,5.4v.5l-1.17-1.685a.167.167,0,0,0-.026-.03.611.611,0,0,0-.852.015,5.918,5.918,0,0,1-4.579,1.8A5.921,5.921,0,0,1,8.607,5.349a.156.156,0,0,0-.029-.024.609.609,0,0,0-.849.154L6.66,7.045V6.6a5.4,5.4,0,0,1,5.379-5.4ZM6.66,10.561V9.174L8.327,6.732A7.188,7.188,0,0,0,13.234,8.4a7.186,7.186,0,0,0,4.911-1.672L19.861,9.2v1.36a6.6,6.6,0,1,1-13.2,0Zm2.848,7.131L12.39,22.3,9.932,23.531,7.955,19.088ZM1.2,24.348c0-2.472,3-4.606,5.631-4.8l2.245,5.044a.6.6,0,0,0,.823.289l.421-.21.487,1.516-.782,3.335H1.2Zm24.061,5.174H16.414L15.656,26.2l.522-1.507.391.2a.6.6,0,0,0,.739-.163.59.59,0,0,0,.08-.136l2.242-5.038c2.626.194,5.631,2.329,5.631,4.8Zm0,0" transform="translate(0 0)" fill="#d60644"/>
          <path id="Path_2824" data-name="Path 2824" d="M303.8,446h-2.4a.6.6,0,0,0,0,1.2h2.4a.6.6,0,1,0,0-1.2Zm0,0" transform="translate(-282.752 -419.239)" fill="#d60644"/>
          <path id="Path_2825" data-name="Path 2825" d="M381.6,447.2a.6.6,0,1,0-.6-.6A.6.6,0,0,0,381.6,447.2Zm0,0" transform="translate(-358.139 -419.239)" fill="#d60644"/>
        </g>
      </g>
      <path id="Path_2415" data-name="Path 2415" d="M15.685,43.094a1.575,1.575,0,1,0,1.574,1.576v0A1.578,1.578,0,0,0,15.685,43.094Zm0,2.362a.787.787,0,1,1,.786-.788A.786.786,0,0,1,15.685,45.456Z" transform="translate(21.905 -18.634)" fill="#d60644"/>
    </g>
  </g>
</svg>
